M48
;DRILL file {KiCad (6.0.0-rc1-dev-1-g01c5bdfb8)} date Tue Feb 19 09:47:59 2019
;FORMAT={-:-/ absolute / inch / decimal}
FMAT,2
INCH,TZ
T1C0.0118
T2C0.0150
T3C0.0197
T4C0.1260
%
G90
G05
M72
T1
X0.7343Y-0.7992
X0.7421Y-1.372
X0.7461Y-1.3228
X0.8012Y-1.124
X0.8013Y-1.2193
X0.813Y-1.1358
X0.8169Y-1.3583
X0.8248Y-1.1476
X0.8268Y-1.2362
X0.8307Y-0.9567
X0.8386Y-1.1594
X0.8386Y-1.2945
X0.935Y-1.4528
X0.937Y-1.3756
X0.9528Y-1.4528
X0.9705Y-1.4528
X0.9819Y-1.3831
X0.9882Y-1.4528
X1.0059Y-1.4528
X1.039Y-1.2579
X1.0512Y-1.3878
X1.0689Y-1.3878
X1.0706Y-1.2857
X1.0846Y-0.9764
X1.0846Y-1.2933
X1.0866Y-1.3878
X1.0974Y-1.2244
X1.1024Y-1.2933
X1.1043Y-1.3878
X1.1201Y-1.1496
X1.1201Y-1.2933
X1.1211Y-1.2008
X1.122Y-1.3878
X1.1378Y-1.1496
X1.1378Y-1.2933
X1.1398Y-1.4547
X1.1398Y-1.4724
X1.1398Y-1.4902
X1.1398Y-1.5079
X1.1555Y-1.1496
X1.1677Y-1.3656
X1.1732Y-1.1496
X1.1909Y-1.1496
T2
X0.7835Y-0.7402
X0.7835Y-0.8386
X0.8031Y-0.6516
X0.8031Y-0.6713
X0.8031Y-0.6909
X0.8031Y-0.7402
X0.8031Y-0.8386
X0.8031Y-0.8878
X0.8031Y-0.9075
X0.8031Y-0.9272
X0.8051Y-1.4587
X0.8228Y-0.7402
X0.8228Y-0.8386
T3
X0.9665Y-0.7283
X0.9942Y-0.6615
X0.9942Y-0.7952
X1.061Y-0.6339
X1.061Y-0.8228
X1.1278Y-0.6615
X1.1278Y-0.7952
X1.1555Y-0.7283
T4
X1.061Y-0.7283
T0
M30
