G04 #@! TF.GenerationSoftware,KiCad,Pcbnew,(6.0.0-rc1-dev-1-g01c5bdfb8)*
G04 #@! TF.CreationDate,2019-02-19T09:48:00+01:00*
G04 #@! TF.ProjectId,PD-Injector,50442D496E6A6563746F722E6B696361,v1.2*
G04 #@! TF.SameCoordinates,Original*
G04 #@! TF.FileFunction,Copper,L2,Bot,Signal*
G04 #@! TF.FilePolarity,Positive*
%FSLAX46Y46*%
G04 Gerber Fmt 4.6, Leading zero omitted, Abs format (unit mm)*
G04 Created by KiCad (PCBNEW (6.0.0-rc1-dev-1-g01c5bdfb8)) date Tue Feb 19 09:48:00 2019*
%MOMM*%
%LPD*%
G01*
G04 APERTURE LIST*
G04 #@! TA.AperFunction,NonConductor*
%ADD10C,0.150000*%
G04 #@! TD*
G04 #@! TA.AperFunction,SMDPad,CuDef*
%ADD11R,1.150000X0.700000*%
G04 #@! TD*
G04 #@! TA.AperFunction,SMDPad,CuDef*
%ADD12R,1.000000X0.340000*%
G04 #@! TD*
G04 #@! TA.AperFunction,SMDPad,CuDef*
%ADD13R,0.500000X0.500000*%
G04 #@! TD*
G04 #@! TA.AperFunction,ConnectorPad*
%ADD14R,1.830000X0.250000*%
G04 #@! TD*
G04 #@! TA.AperFunction,ConnectorPad*
%ADD15R,2.030000X0.250000*%
G04 #@! TD*
G04 #@! TA.AperFunction,ConnectorPad*
%ADD16R,2.380000X0.250000*%
G04 #@! TD*
G04 #@! TA.AperFunction,ComponentPad*
%ADD17C,6.400000*%
G04 #@! TD*
G04 #@! TA.AperFunction,ComponentPad*
%ADD18C,0.600000*%
G04 #@! TD*
G04 #@! TA.AperFunction,ViaPad*
%ADD19C,0.700000*%
G04 #@! TD*
G04 #@! TA.AperFunction,ViaPad*
%ADD20C,0.600000*%
G04 #@! TD*
G04 #@! TA.AperFunction,Conductor*
%ADD21C,0.250000*%
G04 #@! TD*
G04 #@! TA.AperFunction,Conductor*
%ADD22C,0.160000*%
G04 #@! TD*
G04 #@! TA.AperFunction,Conductor*
%ADD23C,0.200000*%
G04 #@! TD*
G04 #@! TA.AperFunction,Conductor*
%ADD24C,0.127000*%
G04 #@! TD*
G04 #@! TA.AperFunction,Conductor*
%ADD25C,0.254000*%
G04 #@! TD*
G04 APERTURE END LIST*
D10*
X30900000Y-22550000D02*
X30900000Y-15500000D01*
X30900000Y-38550000D02*
X30900000Y-37400000D01*
X17700000Y-30700000D02*
G75*
G02X17450000Y-30950000I-250000J0D01*
G01*
X16450000Y-30950000D02*
G75*
G02X16200000Y-30700000I0J250000D01*
G01*
X16200000Y-37400000D02*
G75*
G02X16450000Y-37150000I250000J0D01*
G01*
X17450000Y-37150000D02*
G75*
G02X17700000Y-37400000I0J-250000D01*
G01*
X17450000Y-23150000D02*
G75*
G02X17700000Y-23400000I0J-250000D01*
G01*
X16200000Y-23400000D02*
G75*
G02X16450000Y-23150000I250000J0D01*
G01*
X16450000Y-16950000D02*
G75*
G02X16200000Y-16700000I0J250000D01*
G01*
X17700000Y-16700000D02*
G75*
G02X17450000Y-16950000I-250000J0D01*
G01*
X19400000Y-37400000D02*
X19400000Y-38550000D01*
X17700000Y-37400000D02*
X19400000Y-37400000D01*
X16450000Y-37150000D02*
X17450000Y-37150000D01*
X15700000Y-37400000D02*
X16200000Y-37400000D01*
X14950000Y-37100000D02*
X15700000Y-37400000D01*
X14950000Y-31000000D02*
X14950000Y-37100000D01*
X15700000Y-30700000D02*
X14950000Y-31000000D01*
X16200000Y-30700000D02*
X15700000Y-30700000D01*
X17450000Y-30950000D02*
X16450000Y-30950000D01*
X19400000Y-30700000D02*
X17700000Y-30700000D01*
X19400000Y-23400000D02*
X19400000Y-30700000D01*
X17700000Y-23400000D02*
X19400000Y-23400000D01*
X16450000Y-23150000D02*
X17450000Y-23150000D01*
X15700000Y-23400000D02*
X16200000Y-23400000D01*
X14950000Y-23100000D02*
X15700000Y-23400000D01*
X14950000Y-17000000D02*
X14950000Y-23100000D01*
X15700000Y-16700000D02*
X14950000Y-17000000D01*
X16200000Y-16700000D02*
X15700000Y-16700000D01*
X17450000Y-16950000D02*
X16450000Y-16950000D01*
X19400000Y-16700000D02*
X17700000Y-16700000D01*
X19400000Y-15550000D02*
X19400000Y-16700000D01*
X31200000Y-31000000D02*
X31560000Y-31000000D01*
X30900000Y-30700000D02*
G75*
G03X31200000Y-31000000I300000J0D01*
G01*
X31860000Y-31300000D02*
X31860000Y-36800000D01*
X31860000Y-31300000D02*
G75*
G03X31560000Y-31000000I-300000J0D01*
G01*
X31560000Y-37100000D02*
X31200000Y-37100000D01*
X31560000Y-37100000D02*
G75*
G03X31860000Y-36800000I0J300000D01*
G01*
X31200000Y-37100000D02*
G75*
G03X30900000Y-37400000I0J-300000D01*
G01*
X30900000Y-15550000D02*
G75*
G03X29900000Y-14550000I-1000000J0D01*
G01*
X20400000Y-14550000D02*
G75*
G03X19400000Y-15550000I0J-1000000D01*
G01*
X19400000Y-38550000D02*
G75*
G03X20400000Y-39550000I1000000J0D01*
G01*
X29900000Y-39550000D02*
G75*
G03X30900000Y-38550000I0J1000000D01*
G01*
X20400000Y-39550000D02*
X29900000Y-39550000D01*
X29900000Y-14550000D02*
X20400000Y-14550000D01*
X30900000Y-30700000D02*
X30900000Y-22550000D01*
D11*
G04 #@! TO.P,P1,S1*
G04 #@! TO.N,GND*
X30020000Y-37470000D03*
D12*
G04 #@! TO.P,P1,B1*
X30860000Y-36800000D03*
G04 #@! TO.P,P1,B2*
G04 #@! TO.N,/TX2+*
X30860000Y-36300000D03*
G04 #@! TO.P,P1,B3*
G04 #@! TO.N,/TX2-*
X30860000Y-35800000D03*
G04 #@! TO.P,P1,B4*
G04 #@! TO.N,VBUS*
X30860000Y-35300000D03*
G04 #@! TO.P,P1,B5*
G04 #@! TO.N,/CC2P*
X30860000Y-34800000D03*
G04 #@! TO.P,P1,B8*
G04 #@! TO.N,Net-(P1-PadB8)*
X30860000Y-33300000D03*
G04 #@! TO.P,P1,B9*
G04 #@! TO.N,VBUS*
X30860000Y-32800000D03*
G04 #@! TO.P,P1,B10*
G04 #@! TO.N,/RX1-*
X30860000Y-32300000D03*
G04 #@! TO.P,P1,B11*
G04 #@! TO.N,/RX1+*
X30860000Y-31800000D03*
G04 #@! TO.P,P1,B12*
G04 #@! TO.N,GND*
X30860000Y-31300000D03*
G04 #@! TD*
D13*
G04 #@! TO.P,J2,S1*
G04 #@! TO.N,GND*
X19650000Y-31300000D03*
X19650000Y-36800000D03*
D14*
G04 #@! TO.P,J2,B11*
G04 #@! TO.N,/RX1+*
X16865000Y-31800000D03*
G04 #@! TO.P,J2,B6*
G04 #@! TO.N,/D+*
X16865000Y-34300000D03*
D15*
G04 #@! TO.P,J2,B4*
G04 #@! TO.N,VBUS*
X16765000Y-35300000D03*
D14*
G04 #@! TO.P,J2,B10*
G04 #@! TO.N,/RX1-*
X16865000Y-32300000D03*
D15*
G04 #@! TO.P,J2,B9*
G04 #@! TO.N,VBUS*
X16765000Y-32800000D03*
D14*
G04 #@! TO.P,J2,B2*
G04 #@! TO.N,/TX2+*
X16865000Y-36300000D03*
D16*
G04 #@! TO.P,J2,B1*
G04 #@! TO.N,GND*
X16590000Y-36800000D03*
D14*
G04 #@! TO.P,J2,B3*
G04 #@! TO.N,/TX2-*
X16865000Y-35800000D03*
D16*
G04 #@! TO.P,J2,B12*
G04 #@! TO.N,GND*
X16590000Y-31300000D03*
D14*
G04 #@! TO.P,J2,B8*
G04 #@! TO.N,Net-(J2-PadB8)*
X16865000Y-33300000D03*
G04 #@! TO.P,J2,B5*
G04 #@! TO.N,/CC2D*
X16865000Y-34800000D03*
G04 #@! TO.P,J2,B7*
G04 #@! TO.N,/D-*
X16865000Y-33800000D03*
G04 #@! TD*
G04 #@! TO.P,J1,B7*
G04 #@! TO.N,Net-(J1-PadB7)*
X16865000Y-19800000D03*
G04 #@! TO.P,J1,B5*
G04 #@! TO.N,/CC2P*
X16865000Y-20800000D03*
G04 #@! TO.P,J1,B8*
G04 #@! TO.N,Net-(J1-PadB8)*
X16865000Y-19300000D03*
D16*
G04 #@! TO.P,J1,B12*
G04 #@! TO.N,GND*
X16590000Y-17300000D03*
D14*
G04 #@! TO.P,J1,B3*
G04 #@! TO.N,Net-(J1-PadB3)*
X16865000Y-21800000D03*
D16*
G04 #@! TO.P,J1,B1*
G04 #@! TO.N,GND*
X16590000Y-22800000D03*
D14*
G04 #@! TO.P,J1,B2*
G04 #@! TO.N,Net-(J1-PadB2)*
X16865000Y-22300000D03*
D15*
G04 #@! TO.P,J1,B9*
G04 #@! TO.N,VBUS*
X16765000Y-18800000D03*
D14*
G04 #@! TO.P,J1,B10*
G04 #@! TO.N,Net-(J1-PadB10)*
X16865000Y-18300000D03*
D15*
G04 #@! TO.P,J1,B4*
G04 #@! TO.N,VBUS*
X16765000Y-21300000D03*
D14*
G04 #@! TO.P,J1,B6*
G04 #@! TO.N,Net-(J1-PadB6)*
X16865000Y-20300000D03*
G04 #@! TO.P,J1,B11*
G04 #@! TO.N,Net-(J1-PadB11)*
X16865000Y-17800000D03*
D13*
G04 #@! TO.P,J1,S1*
G04 #@! TO.N,GND*
X19650000Y-22800000D03*
X19650000Y-17300000D03*
G04 #@! TD*
D17*
G04 #@! TO.P,MK1,1*
G04 #@! TO.N,GND*
X26950000Y-18500000D03*
D18*
G04 #@! TO.P,MK1,*
G04 #@! TO.N,*
X29350000Y-18500000D03*
X28647056Y-20197056D03*
X26950000Y-20900000D03*
X25252944Y-20197056D03*
X24550000Y-18500000D03*
X25252944Y-16802944D03*
X26950000Y-16100000D03*
X28647056Y-16802944D03*
G04 #@! TD*
D19*
G04 #@! TO.N,GND*
X20400000Y-23550000D03*
X20400000Y-23050000D03*
X20400000Y-22550000D03*
X20400000Y-17550000D03*
X20400000Y-17050000D03*
X20400000Y-16550000D03*
D20*
X28950000Y-37850000D03*
X28950000Y-38300000D03*
D19*
X20450000Y-37050000D03*
D20*
X21300000Y-32880000D03*
X23800038Y-34941338D03*
X28900000Y-29200000D03*
X29350000Y-29200000D03*
X29800000Y-29200000D03*
X30250000Y-29200000D03*
X28450000Y-29200000D03*
X28950000Y-36950000D03*
X28950000Y-37400000D03*
X25550000Y-36900000D03*
X25100000Y-36900000D03*
X24650000Y-36900000D03*
X24200000Y-36900000D03*
X23750000Y-36900000D03*
X21300000Y-29450000D03*
X20950000Y-29150000D03*
X20650000Y-28850000D03*
X20350000Y-28550000D03*
D19*
G04 #@! TO.N,VBUS*
X19900000Y-18800000D03*
X20400000Y-18800000D03*
X20900000Y-18800000D03*
X19900022Y-21300000D03*
X20400000Y-21300000D03*
X20900000Y-21300000D03*
D20*
X28450000Y-32850000D03*
X28900000Y-32850000D03*
X28000000Y-32850000D03*
X27550000Y-32850000D03*
X27192091Y-32657236D03*
X28500000Y-35250000D03*
X28050000Y-35250000D03*
X27600000Y-35250000D03*
X26700000Y-35250000D03*
X27150000Y-35250000D03*
G04 #@! TO.N,/D+*
X18950000Y-33600000D03*
G04 #@! TO.N,/D-*
X20749996Y-34500000D03*
G04 #@! TO.N,/CC1P*
X26390000Y-31950000D03*
X27550000Y-24800000D03*
G04 #@! TO.N,/CC2P*
X18649970Y-20300000D03*
X29659991Y-34685021D03*
X24939990Y-35130000D03*
X21100000Y-24300000D03*
G04 #@! TO.N,/CC2D*
X18850000Y-34850000D03*
G04 #@! TO.N,/RX1-*
X27874479Y-31100521D03*
X21000000Y-31400000D03*
G04 #@! TO.N,/RX1+*
X28475521Y-30499479D03*
X20352913Y-30970797D03*
G04 #@! TD*
D21*
G04 #@! TO.N,GND*
X16590000Y-22800000D02*
X20150000Y-22800000D01*
X16590000Y-17300000D02*
X20150000Y-17300000D01*
X16590000Y-36800000D02*
X19650000Y-36800000D01*
X20200000Y-36800000D02*
X20450000Y-37050000D01*
X19650000Y-36800000D02*
X20200000Y-36800000D01*
X16590000Y-31300000D02*
X19650000Y-31300000D01*
D22*
X19650000Y-30890000D02*
X19650000Y-31300000D01*
X21300000Y-32880000D02*
X21300000Y-32300000D01*
X20490000Y-30050000D02*
X19650000Y-30890000D01*
D21*
G04 #@! TO.N,VBUS*
X16765000Y-18800000D02*
X19900000Y-18800000D01*
X16765000Y-21300000D02*
X19900022Y-21300000D01*
D22*
G04 #@! TO.N,/D+*
X16865000Y-34300000D02*
X18250000Y-34300000D01*
X18650001Y-33899999D02*
X18950000Y-33600000D01*
X18250000Y-34300000D02*
X18650001Y-33899999D01*
G04 #@! TO.N,/D-*
X20749996Y-34449996D02*
X20749996Y-34600000D01*
X20700000Y-34400000D02*
X20749996Y-34449996D01*
X20750000Y-34450000D02*
X20750000Y-34550000D01*
X18700000Y-32950000D02*
X19200000Y-32950000D01*
X16865000Y-33800000D02*
X17850000Y-33800000D01*
X20700000Y-34450000D02*
X20750000Y-34450000D01*
X19200000Y-32950000D02*
X20700000Y-34450000D01*
X17850000Y-33800000D02*
X18700000Y-32950000D01*
G04 #@! TO.N,/CC1P*
X27550000Y-30500000D02*
X27550000Y-24800000D01*
X26390000Y-31950000D02*
X26390000Y-31660000D01*
X26390000Y-31660000D02*
X27550000Y-30500000D01*
G04 #@! TO.N,/CC2P*
X18400000Y-20300000D02*
X18649970Y-20300000D01*
X16865000Y-20800000D02*
X17900000Y-20800000D01*
X17900000Y-20800000D02*
X18400000Y-20300000D01*
X30860000Y-34800000D02*
X29774970Y-34800000D01*
X29774970Y-34800000D02*
X29659991Y-34685021D01*
X21050000Y-24350000D02*
X21100000Y-24300000D01*
X22650000Y-29750000D02*
X21050000Y-28150000D01*
X24939990Y-35130000D02*
X22650000Y-32840010D01*
X21050000Y-28150000D02*
X21050000Y-24350000D01*
X22650000Y-32840010D02*
X22650000Y-29750000D01*
G04 #@! TO.N,/CC2D*
X16865000Y-34800000D02*
X18800000Y-34800000D01*
X18800000Y-34800000D02*
X18850000Y-34850000D01*
D23*
G04 #@! TO.N,/TX2+*
X18262501Y-36275000D02*
X21506800Y-36275000D01*
X16865000Y-36300000D02*
X18237501Y-36300000D01*
X18237501Y-36300000D02*
X18262501Y-36275000D01*
X21506800Y-36275000D02*
X23256800Y-38025000D01*
X23256800Y-38025000D02*
X25993200Y-38025000D01*
X25993200Y-38025000D02*
X27743200Y-36275000D01*
X30109999Y-36300000D02*
X30860000Y-36300000D01*
X30084999Y-36275000D02*
X30109999Y-36300000D01*
X27743200Y-36275000D02*
X30084999Y-36275000D01*
G04 #@! TO.N,/TX2-*
X16865000Y-35800000D02*
X18237501Y-35800000D01*
X18262501Y-35825000D02*
X21693200Y-35825000D01*
X18237501Y-35800000D02*
X18262501Y-35825000D01*
X21693200Y-35825000D02*
X23443200Y-37575000D01*
X23443200Y-37575000D02*
X25806800Y-37575000D01*
X25806800Y-37575000D02*
X27556800Y-35825000D01*
X30109999Y-35800000D02*
X30860000Y-35800000D01*
X27556800Y-35825000D02*
X30084999Y-35825000D01*
X30084999Y-35825000D02*
X30109999Y-35800000D01*
D22*
G04 #@! TO.N,/RX1-*
X30200000Y-32300000D02*
X30860000Y-32300000D01*
X29675000Y-32300000D02*
X30200000Y-32300000D01*
X27874479Y-31100521D02*
X28475521Y-31100521D01*
X28475521Y-31100521D02*
X29675000Y-32300000D01*
X20100000Y-32300000D02*
X20700001Y-31699999D01*
X16865000Y-32300000D02*
X20100000Y-32300000D01*
X20700001Y-31699999D02*
X21000000Y-31400000D01*
G04 #@! TO.N,/RX1+*
X29625000Y-31800000D02*
X30860000Y-31800000D01*
X28475521Y-30499479D02*
X28666563Y-30690521D01*
X28666563Y-30690521D02*
X28666563Y-30841563D01*
X28666563Y-30841563D02*
X29625000Y-31800000D01*
X16865000Y-31800000D02*
X19976690Y-31800000D01*
X20352913Y-31395061D02*
X20352913Y-30970797D01*
X20352913Y-31423777D02*
X20352913Y-31395061D01*
X19976690Y-31800000D02*
X20352913Y-31423777D01*
G04 #@! TD*
D24*
G04 #@! TO.N,VBUS*
G36*
X29457266Y-32497337D02*
X29466460Y-32508540D01*
X29511151Y-32545217D01*
X29562139Y-32572471D01*
X29600681Y-32584162D01*
X29617463Y-32589253D01*
X29623128Y-32589811D01*
X29660583Y-32593500D01*
X29660590Y-32593500D01*
X29674999Y-32594919D01*
X29689408Y-32593500D01*
X30185161Y-32593500D01*
X30208302Y-32621698D01*
X30240812Y-32648378D01*
X30277902Y-32668203D01*
X30318147Y-32680411D01*
X30360000Y-32684533D01*
X31360000Y-32684533D01*
X31401853Y-32680411D01*
X31442098Y-32668203D01*
X31479188Y-32648378D01*
X31486500Y-32642377D01*
X31486500Y-32957623D01*
X31479188Y-32951622D01*
X31442098Y-32931797D01*
X31401853Y-32919589D01*
X31360000Y-32915467D01*
X30360000Y-32915467D01*
X30318147Y-32919589D01*
X30277902Y-32931797D01*
X30240812Y-32951622D01*
X30208302Y-32978302D01*
X30181622Y-33010812D01*
X30161797Y-33047902D01*
X30149589Y-33088147D01*
X30145467Y-33130000D01*
X30145467Y-33470000D01*
X30149589Y-33511853D01*
X30161797Y-33552098D01*
X30181622Y-33589188D01*
X30208302Y-33621698D01*
X30240812Y-33648378D01*
X30277902Y-33668203D01*
X30318147Y-33680411D01*
X30360000Y-33684533D01*
X31360000Y-33684533D01*
X31401853Y-33680411D01*
X31442098Y-33668203D01*
X31479188Y-33648378D01*
X31486500Y-33642377D01*
X31486500Y-34457623D01*
X31479188Y-34451622D01*
X31442098Y-34431797D01*
X31401853Y-34419589D01*
X31360000Y-34415467D01*
X30360000Y-34415467D01*
X30318147Y-34419589D01*
X30277902Y-34431797D01*
X30240812Y-34451622D01*
X30208302Y-34478302D01*
X30185161Y-34506500D01*
X30141854Y-34506500D01*
X30115049Y-34441787D01*
X30058853Y-34357684D01*
X29987328Y-34286159D01*
X29903225Y-34229963D01*
X29809774Y-34191254D01*
X29710566Y-34171521D01*
X29609416Y-34171521D01*
X29510208Y-34191254D01*
X29416757Y-34229963D01*
X29332654Y-34286159D01*
X29261129Y-34357684D01*
X29204933Y-34441787D01*
X29166224Y-34535238D01*
X29146491Y-34634446D01*
X29146491Y-34735596D01*
X29166224Y-34834804D01*
X29204933Y-34928255D01*
X29261129Y-35012358D01*
X29332654Y-35083883D01*
X29416757Y-35140079D01*
X29510208Y-35178788D01*
X29609416Y-35198521D01*
X29710566Y-35198521D01*
X29809774Y-35178788D01*
X29903225Y-35140079D01*
X29972935Y-35093500D01*
X30185161Y-35093500D01*
X30208302Y-35121698D01*
X30240812Y-35148378D01*
X30277902Y-35168203D01*
X30318147Y-35180411D01*
X30360000Y-35184533D01*
X31360000Y-35184533D01*
X31401853Y-35180411D01*
X31442098Y-35168203D01*
X31479188Y-35148378D01*
X31486500Y-35142377D01*
X31486500Y-35457623D01*
X31479188Y-35451622D01*
X31442098Y-35431797D01*
X31401853Y-35419589D01*
X31360000Y-35415467D01*
X30360000Y-35415467D01*
X30318147Y-35419589D01*
X30277902Y-35431797D01*
X30240812Y-35451622D01*
X30208302Y-35478302D01*
X30201574Y-35486500D01*
X30125380Y-35486500D01*
X30109998Y-35484985D01*
X30094616Y-35486500D01*
X30094607Y-35486500D01*
X30048542Y-35491037D01*
X29989448Y-35508963D01*
X29984702Y-35511500D01*
X27572192Y-35511500D01*
X27556800Y-35509984D01*
X27541408Y-35511500D01*
X27495343Y-35516037D01*
X27436249Y-35533963D01*
X27381786Y-35563074D01*
X27334050Y-35602250D01*
X27324238Y-35614206D01*
X27201944Y-35736500D01*
X26263500Y-35736500D01*
X26263500Y-32448398D01*
X26339425Y-32463500D01*
X26440575Y-32463500D01*
X26539783Y-32443767D01*
X26633234Y-32405058D01*
X26695430Y-32363500D01*
X29323429Y-32363500D01*
X29457266Y-32497337D01*
X29457266Y-32497337D01*
G37*
X29457266Y-32497337D02*
X29466460Y-32508540D01*
X29511151Y-32545217D01*
X29562139Y-32572471D01*
X29600681Y-32584162D01*
X29617463Y-32589253D01*
X29623128Y-32589811D01*
X29660583Y-32593500D01*
X29660590Y-32593500D01*
X29674999Y-32594919D01*
X29689408Y-32593500D01*
X30185161Y-32593500D01*
X30208302Y-32621698D01*
X30240812Y-32648378D01*
X30277902Y-32668203D01*
X30318147Y-32680411D01*
X30360000Y-32684533D01*
X31360000Y-32684533D01*
X31401853Y-32680411D01*
X31442098Y-32668203D01*
X31479188Y-32648378D01*
X31486500Y-32642377D01*
X31486500Y-32957623D01*
X31479188Y-32951622D01*
X31442098Y-32931797D01*
X31401853Y-32919589D01*
X31360000Y-32915467D01*
X30360000Y-32915467D01*
X30318147Y-32919589D01*
X30277902Y-32931797D01*
X30240812Y-32951622D01*
X30208302Y-32978302D01*
X30181622Y-33010812D01*
X30161797Y-33047902D01*
X30149589Y-33088147D01*
X30145467Y-33130000D01*
X30145467Y-33470000D01*
X30149589Y-33511853D01*
X30161797Y-33552098D01*
X30181622Y-33589188D01*
X30208302Y-33621698D01*
X30240812Y-33648378D01*
X30277902Y-33668203D01*
X30318147Y-33680411D01*
X30360000Y-33684533D01*
X31360000Y-33684533D01*
X31401853Y-33680411D01*
X31442098Y-33668203D01*
X31479188Y-33648378D01*
X31486500Y-33642377D01*
X31486500Y-34457623D01*
X31479188Y-34451622D01*
X31442098Y-34431797D01*
X31401853Y-34419589D01*
X31360000Y-34415467D01*
X30360000Y-34415467D01*
X30318147Y-34419589D01*
X30277902Y-34431797D01*
X30240812Y-34451622D01*
X30208302Y-34478302D01*
X30185161Y-34506500D01*
X30141854Y-34506500D01*
X30115049Y-34441787D01*
X30058853Y-34357684D01*
X29987328Y-34286159D01*
X29903225Y-34229963D01*
X29809774Y-34191254D01*
X29710566Y-34171521D01*
X29609416Y-34171521D01*
X29510208Y-34191254D01*
X29416757Y-34229963D01*
X29332654Y-34286159D01*
X29261129Y-34357684D01*
X29204933Y-34441787D01*
X29166224Y-34535238D01*
X29146491Y-34634446D01*
X29146491Y-34735596D01*
X29166224Y-34834804D01*
X29204933Y-34928255D01*
X29261129Y-35012358D01*
X29332654Y-35083883D01*
X29416757Y-35140079D01*
X29510208Y-35178788D01*
X29609416Y-35198521D01*
X29710566Y-35198521D01*
X29809774Y-35178788D01*
X29903225Y-35140079D01*
X29972935Y-35093500D01*
X30185161Y-35093500D01*
X30208302Y-35121698D01*
X30240812Y-35148378D01*
X30277902Y-35168203D01*
X30318147Y-35180411D01*
X30360000Y-35184533D01*
X31360000Y-35184533D01*
X31401853Y-35180411D01*
X31442098Y-35168203D01*
X31479188Y-35148378D01*
X31486500Y-35142377D01*
X31486500Y-35457623D01*
X31479188Y-35451622D01*
X31442098Y-35431797D01*
X31401853Y-35419589D01*
X31360000Y-35415467D01*
X30360000Y-35415467D01*
X30318147Y-35419589D01*
X30277902Y-35431797D01*
X30240812Y-35451622D01*
X30208302Y-35478302D01*
X30201574Y-35486500D01*
X30125380Y-35486500D01*
X30109998Y-35484985D01*
X30094616Y-35486500D01*
X30094607Y-35486500D01*
X30048542Y-35491037D01*
X29989448Y-35508963D01*
X29984702Y-35511500D01*
X27572192Y-35511500D01*
X27556800Y-35509984D01*
X27541408Y-35511500D01*
X27495343Y-35516037D01*
X27436249Y-35533963D01*
X27381786Y-35563074D01*
X27334050Y-35602250D01*
X27324238Y-35614206D01*
X27201944Y-35736500D01*
X26263500Y-35736500D01*
X26263500Y-32448398D01*
X26339425Y-32463500D01*
X26440575Y-32463500D01*
X26539783Y-32443767D01*
X26633234Y-32405058D01*
X26695430Y-32363500D01*
X29323429Y-32363500D01*
X29457266Y-32497337D01*
D25*
G04 #@! TO.N,GND*
G36*
X22899975Y-38348412D02*
X22915036Y-38366764D01*
X22988278Y-38426872D01*
X23071839Y-38471536D01*
X23135003Y-38490696D01*
X23162507Y-38499040D01*
X23256800Y-38508327D01*
X23280426Y-38506000D01*
X25969574Y-38506000D01*
X25993200Y-38508327D01*
X26016826Y-38506000D01*
X26021883Y-38505502D01*
X26087492Y-38499040D01*
X26178161Y-38471536D01*
X26261722Y-38426872D01*
X26334964Y-38366764D01*
X26350030Y-38348406D01*
X27942437Y-36756000D01*
X29956237Y-36756000D01*
X30015707Y-36774040D01*
X30086373Y-36781000D01*
X30086374Y-36781000D01*
X30109998Y-36783327D01*
X30133622Y-36781000D01*
X30138382Y-36781000D01*
X30147304Y-36788322D01*
X30213492Y-36823701D01*
X30285311Y-36845487D01*
X30360000Y-36852843D01*
X30680985Y-36852843D01*
X30667333Y-36866591D01*
X30637811Y-36895500D01*
X30633753Y-36900406D01*
X30596748Y-36945779D01*
X30573874Y-36980207D01*
X30550530Y-37014298D01*
X30547502Y-37019899D01*
X30520014Y-37071595D01*
X30504249Y-37109841D01*
X30487981Y-37147797D01*
X30486104Y-37153863D01*
X30486099Y-37153875D01*
X30486098Y-37153882D01*
X30469176Y-37209930D01*
X30461149Y-37250467D01*
X30452554Y-37290904D01*
X30451890Y-37297225D01*
X30451889Y-37297231D01*
X30451889Y-37297236D01*
X30446176Y-37355505D01*
X30446176Y-37355517D01*
X30444001Y-37377601D01*
X30444000Y-38527694D01*
X30431494Y-38655238D01*
X30400930Y-38756470D01*
X30351288Y-38849835D01*
X30284454Y-38931782D01*
X30202980Y-38999183D01*
X30109963Y-39049477D01*
X30008948Y-39080746D01*
X29882853Y-39094000D01*
X20422306Y-39094000D01*
X20294762Y-39081494D01*
X20193530Y-39050930D01*
X20100165Y-39001288D01*
X20018218Y-38934454D01*
X19950817Y-38852980D01*
X19900523Y-38759963D01*
X19869254Y-38658948D01*
X19856000Y-38532853D01*
X19856000Y-37422399D01*
X19858206Y-37400000D01*
X19849402Y-37310608D01*
X19823327Y-37224652D01*
X19780984Y-37145434D01*
X19724001Y-37075999D01*
X19654566Y-37019016D01*
X19575348Y-36976673D01*
X19489392Y-36950598D01*
X19422399Y-36944000D01*
X19400000Y-36941794D01*
X19377601Y-36944000D01*
X17987488Y-36944000D01*
X17977519Y-36931949D01*
X17948180Y-36902813D01*
X17919265Y-36873286D01*
X17914377Y-36869243D01*
X17914372Y-36869238D01*
X17914367Y-36869235D01*
X17914359Y-36869228D01*
X17876548Y-36838391D01*
X17842130Y-36815524D01*
X17824510Y-36803459D01*
X17854689Y-36800487D01*
X17918929Y-36781000D01*
X18213875Y-36781000D01*
X18237501Y-36783327D01*
X18261127Y-36781000D01*
X18266397Y-36780481D01*
X18331793Y-36774040D01*
X18338238Y-36772085D01*
X18391263Y-36756000D01*
X21307564Y-36756000D01*
X22899975Y-38348412D01*
X22899975Y-38348412D01*
G37*
X22899975Y-38348412D02*
X22915036Y-38366764D01*
X22988278Y-38426872D01*
X23071839Y-38471536D01*
X23135003Y-38490696D01*
X23162507Y-38499040D01*
X23256800Y-38508327D01*
X23280426Y-38506000D01*
X25969574Y-38506000D01*
X25993200Y-38508327D01*
X26016826Y-38506000D01*
X26021883Y-38505502D01*
X26087492Y-38499040D01*
X26178161Y-38471536D01*
X26261722Y-38426872D01*
X26334964Y-38366764D01*
X26350030Y-38348406D01*
X27942437Y-36756000D01*
X29956237Y-36756000D01*
X30015707Y-36774040D01*
X30086373Y-36781000D01*
X30086374Y-36781000D01*
X30109998Y-36783327D01*
X30133622Y-36781000D01*
X30138382Y-36781000D01*
X30147304Y-36788322D01*
X30213492Y-36823701D01*
X30285311Y-36845487D01*
X30360000Y-36852843D01*
X30680985Y-36852843D01*
X30667333Y-36866591D01*
X30637811Y-36895500D01*
X30633753Y-36900406D01*
X30596748Y-36945779D01*
X30573874Y-36980207D01*
X30550530Y-37014298D01*
X30547502Y-37019899D01*
X30520014Y-37071595D01*
X30504249Y-37109841D01*
X30487981Y-37147797D01*
X30486104Y-37153863D01*
X30486099Y-37153875D01*
X30486098Y-37153882D01*
X30469176Y-37209930D01*
X30461149Y-37250467D01*
X30452554Y-37290904D01*
X30451890Y-37297225D01*
X30451889Y-37297231D01*
X30451889Y-37297236D01*
X30446176Y-37355505D01*
X30446176Y-37355517D01*
X30444001Y-37377601D01*
X30444000Y-38527694D01*
X30431494Y-38655238D01*
X30400930Y-38756470D01*
X30351288Y-38849835D01*
X30284454Y-38931782D01*
X30202980Y-38999183D01*
X30109963Y-39049477D01*
X30008948Y-39080746D01*
X29882853Y-39094000D01*
X20422306Y-39094000D01*
X20294762Y-39081494D01*
X20193530Y-39050930D01*
X20100165Y-39001288D01*
X20018218Y-38934454D01*
X19950817Y-38852980D01*
X19900523Y-38759963D01*
X19869254Y-38658948D01*
X19856000Y-38532853D01*
X19856000Y-37422399D01*
X19858206Y-37400000D01*
X19849402Y-37310608D01*
X19823327Y-37224652D01*
X19780984Y-37145434D01*
X19724001Y-37075999D01*
X19654566Y-37019016D01*
X19575348Y-36976673D01*
X19489392Y-36950598D01*
X19422399Y-36944000D01*
X19400000Y-36941794D01*
X19377601Y-36944000D01*
X17987488Y-36944000D01*
X17977519Y-36931949D01*
X17948180Y-36902813D01*
X17919265Y-36873286D01*
X17914377Y-36869243D01*
X17914372Y-36869238D01*
X17914367Y-36869235D01*
X17914359Y-36869228D01*
X17876548Y-36838391D01*
X17842130Y-36815524D01*
X17824510Y-36803459D01*
X17854689Y-36800487D01*
X17918929Y-36781000D01*
X18213875Y-36781000D01*
X18237501Y-36783327D01*
X18261127Y-36781000D01*
X18266397Y-36780481D01*
X18331793Y-36774040D01*
X18338238Y-36772085D01*
X18391263Y-36756000D01*
X21307564Y-36756000D01*
X22899975Y-38348412D01*
G36*
X20837368Y-23671677D02*
X20777426Y-23696506D01*
X20665888Y-23771033D01*
X20571033Y-23865888D01*
X20496506Y-23977426D01*
X20445171Y-24101360D01*
X20419000Y-24232927D01*
X20419000Y-24367073D01*
X20445171Y-24498640D01*
X20496506Y-24622574D01*
X20571033Y-24734112D01*
X20589001Y-24752080D01*
X20589000Y-28127367D01*
X20586771Y-28150000D01*
X20589000Y-28172633D01*
X20589000Y-28172640D01*
X20595671Y-28240371D01*
X20622031Y-28327269D01*
X20664838Y-28407356D01*
X20722447Y-28477553D01*
X20740042Y-28491993D01*
X22163663Y-29915616D01*
X22175255Y-32164464D01*
X22189000Y-32232496D01*
X22189000Y-32817376D01*
X22186771Y-32840010D01*
X22189000Y-32862643D01*
X22189000Y-32862650D01*
X22195671Y-32930381D01*
X22222031Y-33017279D01*
X22264838Y-33097366D01*
X22322447Y-33167563D01*
X22340042Y-33182003D01*
X24258990Y-35100952D01*
X24258990Y-35197073D01*
X24285161Y-35328640D01*
X24336496Y-35452574D01*
X24411023Y-35564112D01*
X24505878Y-35658967D01*
X24617416Y-35733494D01*
X24741350Y-35784829D01*
X24872917Y-35811000D01*
X25007063Y-35811000D01*
X25138630Y-35784829D01*
X25262564Y-35733494D01*
X25374102Y-35658967D01*
X25446712Y-35586357D01*
X25930591Y-36069406D01*
X25930592Y-36069408D01*
X25930594Y-36069409D01*
X25930824Y-36069639D01*
X26054198Y-36151998D01*
X26200000Y-36181000D01*
X26520563Y-36181000D01*
X25607564Y-37094000D01*
X23642437Y-37094000D01*
X22050030Y-35501594D01*
X22034964Y-35483236D01*
X21961722Y-35423128D01*
X21878161Y-35378464D01*
X21787492Y-35350960D01*
X21716826Y-35344000D01*
X21693200Y-35341673D01*
X21669574Y-35344000D01*
X19319079Y-35344000D01*
X19378967Y-35284112D01*
X19453494Y-35172574D01*
X19504829Y-35048640D01*
X19531000Y-34917073D01*
X19531000Y-34782927D01*
X19504829Y-34651360D01*
X19453494Y-34527426D01*
X19378967Y-34415888D01*
X19284112Y-34321033D01*
X19172574Y-34246506D01*
X19170654Y-34245711D01*
X19272574Y-34203494D01*
X19384112Y-34128967D01*
X19478967Y-34034112D01*
X19540328Y-33942279D01*
X20068996Y-34470948D01*
X20068996Y-34567073D01*
X20095167Y-34698640D01*
X20146502Y-34822574D01*
X20221029Y-34934112D01*
X20315884Y-35028967D01*
X20427422Y-35103494D01*
X20551356Y-35154829D01*
X20682923Y-35181000D01*
X20817069Y-35181000D01*
X20948636Y-35154829D01*
X21072570Y-35103494D01*
X21184108Y-35028967D01*
X21278963Y-34934112D01*
X21353490Y-34822574D01*
X21404825Y-34698640D01*
X21430996Y-34567073D01*
X21430996Y-34432927D01*
X21404825Y-34301360D01*
X21353490Y-34177426D01*
X21278963Y-34065888D01*
X21184108Y-33971033D01*
X21072570Y-33896506D01*
X20948636Y-33845171D01*
X20817069Y-33819000D01*
X20720952Y-33819000D01*
X19662951Y-32761000D01*
X20077367Y-32761000D01*
X20100000Y-32763229D01*
X20122633Y-32761000D01*
X20122641Y-32761000D01*
X20190372Y-32754329D01*
X20277270Y-32727969D01*
X20357357Y-32685162D01*
X20427553Y-32627553D01*
X20441993Y-32609959D01*
X20970953Y-32081000D01*
X21067073Y-32081000D01*
X21198640Y-32054829D01*
X21322574Y-32003494D01*
X21434112Y-31928967D01*
X21528967Y-31834112D01*
X21603494Y-31722574D01*
X21654829Y-31598640D01*
X21681000Y-31467073D01*
X21681000Y-31332927D01*
X21654829Y-31201360D01*
X21603494Y-31077426D01*
X21528967Y-30965888D01*
X21434112Y-30871033D01*
X21322574Y-30796506D01*
X21198640Y-30745171D01*
X21067073Y-30719000D01*
X20985724Y-30719000D01*
X20956407Y-30648223D01*
X20881880Y-30536685D01*
X20787025Y-30441830D01*
X20675487Y-30367303D01*
X20551553Y-30315968D01*
X20419986Y-30289797D01*
X20285840Y-30289797D01*
X20154273Y-30315968D01*
X20030339Y-30367303D01*
X19918801Y-30441830D01*
X19856000Y-30504631D01*
X19856000Y-23422399D01*
X19858206Y-23400000D01*
X19849402Y-23310608D01*
X19823327Y-23224652D01*
X19780984Y-23145434D01*
X19724001Y-23075999D01*
X19654566Y-23019016D01*
X19575348Y-22976673D01*
X19489392Y-22950598D01*
X19422399Y-22944000D01*
X19400000Y-22941794D01*
X19377601Y-22944000D01*
X17987488Y-22944000D01*
X17977519Y-22931949D01*
X17948180Y-22902813D01*
X17919265Y-22873286D01*
X17914377Y-22869243D01*
X17914372Y-22869238D01*
X17914367Y-22869235D01*
X17914359Y-22869228D01*
X17876548Y-22838391D01*
X17842130Y-22815524D01*
X17824510Y-22803459D01*
X17854689Y-22800487D01*
X17926508Y-22778701D01*
X17992696Y-22743322D01*
X18050711Y-22695711D01*
X18098322Y-22637696D01*
X18133701Y-22571508D01*
X18155487Y-22499689D01*
X18162843Y-22425000D01*
X18162843Y-22181000D01*
X20839208Y-22181000D01*
X20837368Y-23671677D01*
X20837368Y-23671677D01*
G37*
X20837368Y-23671677D02*
X20777426Y-23696506D01*
X20665888Y-23771033D01*
X20571033Y-23865888D01*
X20496506Y-23977426D01*
X20445171Y-24101360D01*
X20419000Y-24232927D01*
X20419000Y-24367073D01*
X20445171Y-24498640D01*
X20496506Y-24622574D01*
X20571033Y-24734112D01*
X20589001Y-24752080D01*
X20589000Y-28127367D01*
X20586771Y-28150000D01*
X20589000Y-28172633D01*
X20589000Y-28172640D01*
X20595671Y-28240371D01*
X20622031Y-28327269D01*
X20664838Y-28407356D01*
X20722447Y-28477553D01*
X20740042Y-28491993D01*
X22163663Y-29915616D01*
X22175255Y-32164464D01*
X22189000Y-32232496D01*
X22189000Y-32817376D01*
X22186771Y-32840010D01*
X22189000Y-32862643D01*
X22189000Y-32862650D01*
X22195671Y-32930381D01*
X22222031Y-33017279D01*
X22264838Y-33097366D01*
X22322447Y-33167563D01*
X22340042Y-33182003D01*
X24258990Y-35100952D01*
X24258990Y-35197073D01*
X24285161Y-35328640D01*
X24336496Y-35452574D01*
X24411023Y-35564112D01*
X24505878Y-35658967D01*
X24617416Y-35733494D01*
X24741350Y-35784829D01*
X24872917Y-35811000D01*
X25007063Y-35811000D01*
X25138630Y-35784829D01*
X25262564Y-35733494D01*
X25374102Y-35658967D01*
X25446712Y-35586357D01*
X25930591Y-36069406D01*
X25930592Y-36069408D01*
X25930594Y-36069409D01*
X25930824Y-36069639D01*
X26054198Y-36151998D01*
X26200000Y-36181000D01*
X26520563Y-36181000D01*
X25607564Y-37094000D01*
X23642437Y-37094000D01*
X22050030Y-35501594D01*
X22034964Y-35483236D01*
X21961722Y-35423128D01*
X21878161Y-35378464D01*
X21787492Y-35350960D01*
X21716826Y-35344000D01*
X21693200Y-35341673D01*
X21669574Y-35344000D01*
X19319079Y-35344000D01*
X19378967Y-35284112D01*
X19453494Y-35172574D01*
X19504829Y-35048640D01*
X19531000Y-34917073D01*
X19531000Y-34782927D01*
X19504829Y-34651360D01*
X19453494Y-34527426D01*
X19378967Y-34415888D01*
X19284112Y-34321033D01*
X19172574Y-34246506D01*
X19170654Y-34245711D01*
X19272574Y-34203494D01*
X19384112Y-34128967D01*
X19478967Y-34034112D01*
X19540328Y-33942279D01*
X20068996Y-34470948D01*
X20068996Y-34567073D01*
X20095167Y-34698640D01*
X20146502Y-34822574D01*
X20221029Y-34934112D01*
X20315884Y-35028967D01*
X20427422Y-35103494D01*
X20551356Y-35154829D01*
X20682923Y-35181000D01*
X20817069Y-35181000D01*
X20948636Y-35154829D01*
X21072570Y-35103494D01*
X21184108Y-35028967D01*
X21278963Y-34934112D01*
X21353490Y-34822574D01*
X21404825Y-34698640D01*
X21430996Y-34567073D01*
X21430996Y-34432927D01*
X21404825Y-34301360D01*
X21353490Y-34177426D01*
X21278963Y-34065888D01*
X21184108Y-33971033D01*
X21072570Y-33896506D01*
X20948636Y-33845171D01*
X20817069Y-33819000D01*
X20720952Y-33819000D01*
X19662951Y-32761000D01*
X20077367Y-32761000D01*
X20100000Y-32763229D01*
X20122633Y-32761000D01*
X20122641Y-32761000D01*
X20190372Y-32754329D01*
X20277270Y-32727969D01*
X20357357Y-32685162D01*
X20427553Y-32627553D01*
X20441993Y-32609959D01*
X20970953Y-32081000D01*
X21067073Y-32081000D01*
X21198640Y-32054829D01*
X21322574Y-32003494D01*
X21434112Y-31928967D01*
X21528967Y-31834112D01*
X21603494Y-31722574D01*
X21654829Y-31598640D01*
X21681000Y-31467073D01*
X21681000Y-31332927D01*
X21654829Y-31201360D01*
X21603494Y-31077426D01*
X21528967Y-30965888D01*
X21434112Y-30871033D01*
X21322574Y-30796506D01*
X21198640Y-30745171D01*
X21067073Y-30719000D01*
X20985724Y-30719000D01*
X20956407Y-30648223D01*
X20881880Y-30536685D01*
X20787025Y-30441830D01*
X20675487Y-30367303D01*
X20551553Y-30315968D01*
X20419986Y-30289797D01*
X20285840Y-30289797D01*
X20154273Y-30315968D01*
X20030339Y-30367303D01*
X19918801Y-30441830D01*
X19856000Y-30504631D01*
X19856000Y-23422399D01*
X19858206Y-23400000D01*
X19849402Y-23310608D01*
X19823327Y-23224652D01*
X19780984Y-23145434D01*
X19724001Y-23075999D01*
X19654566Y-23019016D01*
X19575348Y-22976673D01*
X19489392Y-22950598D01*
X19422399Y-22944000D01*
X19400000Y-22941794D01*
X19377601Y-22944000D01*
X17987488Y-22944000D01*
X17977519Y-22931949D01*
X17948180Y-22902813D01*
X17919265Y-22873286D01*
X17914377Y-22869243D01*
X17914372Y-22869238D01*
X17914367Y-22869235D01*
X17914359Y-22869228D01*
X17876548Y-22838391D01*
X17842130Y-22815524D01*
X17824510Y-22803459D01*
X17854689Y-22800487D01*
X17926508Y-22778701D01*
X17992696Y-22743322D01*
X18050711Y-22695711D01*
X18098322Y-22637696D01*
X18133701Y-22571508D01*
X18155487Y-22499689D01*
X18162843Y-22425000D01*
X18162843Y-22181000D01*
X20839208Y-22181000D01*
X20837368Y-23671677D01*
G36*
X30005239Y-15018506D02*
X30106470Y-15049069D01*
X30199836Y-15098713D01*
X30281781Y-15165546D01*
X30349185Y-15247023D01*
X30399478Y-15340038D01*
X30430746Y-15441052D01*
X30444001Y-15567157D01*
X30444000Y-22572398D01*
X30444001Y-22572408D01*
X30444000Y-30722398D01*
X30445895Y-30741643D01*
X30445883Y-30743421D01*
X30446505Y-30749758D01*
X30449518Y-30778427D01*
X30450598Y-30789391D01*
X30450709Y-30789757D01*
X30452625Y-30807987D01*
X30460940Y-30848498D01*
X30468680Y-30889072D01*
X30470520Y-30895167D01*
X30487835Y-30951099D01*
X30503839Y-30989172D01*
X30519333Y-31027521D01*
X30522323Y-31033142D01*
X30550171Y-31084645D01*
X30573259Y-31118875D01*
X30595911Y-31153491D01*
X30599936Y-31158425D01*
X30637257Y-31203537D01*
X30666588Y-31232665D01*
X30680780Y-31247157D01*
X30360000Y-31247157D01*
X30285311Y-31254513D01*
X30213492Y-31276299D01*
X30147304Y-31311678D01*
X30114012Y-31339000D01*
X29815953Y-31339000D01*
X29137770Y-30660818D01*
X29156521Y-30566552D01*
X29156521Y-30432406D01*
X29130350Y-30300839D01*
X29079015Y-30176905D01*
X29004488Y-30065367D01*
X28909633Y-29970512D01*
X28798095Y-29895985D01*
X28674161Y-29844650D01*
X28542594Y-29818479D01*
X28408448Y-29818479D01*
X28276881Y-29844650D01*
X28152947Y-29895985D01*
X28041409Y-29970512D01*
X28011000Y-30000921D01*
X28011000Y-25302079D01*
X28078967Y-25234112D01*
X28153494Y-25122574D01*
X28204829Y-24998640D01*
X28231000Y-24867073D01*
X28231000Y-24732927D01*
X28204829Y-24601360D01*
X28153494Y-24477426D01*
X28078967Y-24365888D01*
X27984112Y-24271033D01*
X27872574Y-24196506D01*
X27748640Y-24145171D01*
X27687710Y-24133051D01*
X27676998Y-24079198D01*
X27594408Y-23955592D01*
X23768799Y-20129983D01*
X24571944Y-20129983D01*
X24571944Y-20264129D01*
X24598115Y-20395696D01*
X24649450Y-20519630D01*
X24723977Y-20631168D01*
X24818832Y-20726023D01*
X24930370Y-20800550D01*
X25054304Y-20851885D01*
X25185871Y-20878056D01*
X25320017Y-20878056D01*
X25451584Y-20851885D01*
X25497352Y-20832927D01*
X26269000Y-20832927D01*
X26269000Y-20967073D01*
X26295171Y-21098640D01*
X26346506Y-21222574D01*
X26421033Y-21334112D01*
X26515888Y-21428967D01*
X26627426Y-21503494D01*
X26751360Y-21554829D01*
X26882927Y-21581000D01*
X27017073Y-21581000D01*
X27148640Y-21554829D01*
X27272574Y-21503494D01*
X27384112Y-21428967D01*
X27478967Y-21334112D01*
X27553494Y-21222574D01*
X27604829Y-21098640D01*
X27631000Y-20967073D01*
X27631000Y-20832927D01*
X27604829Y-20701360D01*
X27553494Y-20577426D01*
X27478967Y-20465888D01*
X27384112Y-20371033D01*
X27272574Y-20296506D01*
X27148640Y-20245171D01*
X27017073Y-20219000D01*
X26882927Y-20219000D01*
X26751360Y-20245171D01*
X26627426Y-20296506D01*
X26515888Y-20371033D01*
X26421033Y-20465888D01*
X26346506Y-20577426D01*
X26295171Y-20701360D01*
X26269000Y-20832927D01*
X25497352Y-20832927D01*
X25575518Y-20800550D01*
X25687056Y-20726023D01*
X25781911Y-20631168D01*
X25856438Y-20519630D01*
X25907773Y-20395696D01*
X25933944Y-20264129D01*
X25933944Y-20129983D01*
X27966056Y-20129983D01*
X27966056Y-20264129D01*
X27992227Y-20395696D01*
X28043562Y-20519630D01*
X28118089Y-20631168D01*
X28212944Y-20726023D01*
X28324482Y-20800550D01*
X28448416Y-20851885D01*
X28579983Y-20878056D01*
X28714129Y-20878056D01*
X28845696Y-20851885D01*
X28969630Y-20800550D01*
X29081168Y-20726023D01*
X29176023Y-20631168D01*
X29250550Y-20519630D01*
X29301885Y-20395696D01*
X29328056Y-20264129D01*
X29328056Y-20129983D01*
X29301885Y-19998416D01*
X29250550Y-19874482D01*
X29176023Y-19762944D01*
X29081168Y-19668089D01*
X28969630Y-19593562D01*
X28845696Y-19542227D01*
X28714129Y-19516056D01*
X28579983Y-19516056D01*
X28448416Y-19542227D01*
X28324482Y-19593562D01*
X28212944Y-19668089D01*
X28118089Y-19762944D01*
X28043562Y-19874482D01*
X27992227Y-19998416D01*
X27966056Y-20129983D01*
X25933944Y-20129983D01*
X25907773Y-19998416D01*
X25856438Y-19874482D01*
X25781911Y-19762944D01*
X25687056Y-19668089D01*
X25575518Y-19593562D01*
X25451584Y-19542227D01*
X25320017Y-19516056D01*
X25185871Y-19516056D01*
X25054304Y-19542227D01*
X24930370Y-19593562D01*
X24818832Y-19668089D01*
X24723977Y-19762944D01*
X24649450Y-19874482D01*
X24598115Y-19998416D01*
X24571944Y-20129983D01*
X23768799Y-20129983D01*
X22071743Y-18432927D01*
X23869000Y-18432927D01*
X23869000Y-18567073D01*
X23895171Y-18698640D01*
X23946506Y-18822574D01*
X24021033Y-18934112D01*
X24115888Y-19028967D01*
X24227426Y-19103494D01*
X24351360Y-19154829D01*
X24482927Y-19181000D01*
X24617073Y-19181000D01*
X24748640Y-19154829D01*
X24872574Y-19103494D01*
X24984112Y-19028967D01*
X25078967Y-18934112D01*
X25153494Y-18822574D01*
X25204829Y-18698640D01*
X25231000Y-18567073D01*
X25231000Y-18432927D01*
X28669000Y-18432927D01*
X28669000Y-18567073D01*
X28695171Y-18698640D01*
X28746506Y-18822574D01*
X28821033Y-18934112D01*
X28915888Y-19028967D01*
X29027426Y-19103494D01*
X29151360Y-19154829D01*
X29282927Y-19181000D01*
X29417073Y-19181000D01*
X29548640Y-19154829D01*
X29672574Y-19103494D01*
X29784112Y-19028967D01*
X29878967Y-18934112D01*
X29953494Y-18822574D01*
X30004829Y-18698640D01*
X30031000Y-18567073D01*
X30031000Y-18432927D01*
X30004829Y-18301360D01*
X29953494Y-18177426D01*
X29878967Y-18065888D01*
X29784112Y-17971033D01*
X29672574Y-17896506D01*
X29548640Y-17845171D01*
X29417073Y-17819000D01*
X29282927Y-17819000D01*
X29151360Y-17845171D01*
X29027426Y-17896506D01*
X28915888Y-17971033D01*
X28821033Y-18065888D01*
X28746506Y-18177426D01*
X28695171Y-18301360D01*
X28669000Y-18432927D01*
X25231000Y-18432927D01*
X25204829Y-18301360D01*
X25153494Y-18177426D01*
X25078967Y-18065888D01*
X24984112Y-17971033D01*
X24872574Y-17896506D01*
X24748640Y-17845171D01*
X24617073Y-17819000D01*
X24482927Y-17819000D01*
X24351360Y-17845171D01*
X24227426Y-17896506D01*
X24115888Y-17971033D01*
X24021033Y-18065888D01*
X23946506Y-18177426D01*
X23895171Y-18301360D01*
X23869000Y-18432927D01*
X22071743Y-18432927D01*
X21669408Y-18030592D01*
X21545802Y-17948002D01*
X21400000Y-17919000D01*
X18162843Y-17919000D01*
X18162843Y-17675000D01*
X18155487Y-17600311D01*
X18133701Y-17528492D01*
X18098322Y-17462304D01*
X18050711Y-17404289D01*
X17992696Y-17356678D01*
X17926508Y-17321299D01*
X17854689Y-17299513D01*
X17824269Y-17296517D01*
X17840959Y-17285259D01*
X17875522Y-17262643D01*
X17880456Y-17258619D01*
X17918051Y-17227519D01*
X17947168Y-17198200D01*
X17976714Y-17169266D01*
X17980758Y-17164377D01*
X17980762Y-17164372D01*
X17980765Y-17164367D01*
X17980772Y-17164359D01*
X17987589Y-17156000D01*
X19377601Y-17156000D01*
X19400000Y-17158206D01*
X19489392Y-17149402D01*
X19575348Y-17123327D01*
X19654566Y-17080984D01*
X19724001Y-17024001D01*
X19780984Y-16954566D01*
X19823327Y-16875348D01*
X19849402Y-16789392D01*
X19854673Y-16735871D01*
X24571944Y-16735871D01*
X24571944Y-16870017D01*
X24598115Y-17001584D01*
X24649450Y-17125518D01*
X24723977Y-17237056D01*
X24818832Y-17331911D01*
X24930370Y-17406438D01*
X25054304Y-17457773D01*
X25185871Y-17483944D01*
X25320017Y-17483944D01*
X25451584Y-17457773D01*
X25575518Y-17406438D01*
X25687056Y-17331911D01*
X25781911Y-17237056D01*
X25856438Y-17125518D01*
X25907773Y-17001584D01*
X25933944Y-16870017D01*
X25933944Y-16735871D01*
X25907773Y-16604304D01*
X25856438Y-16480370D01*
X25781911Y-16368832D01*
X25687056Y-16273977D01*
X25575518Y-16199450D01*
X25451584Y-16148115D01*
X25320017Y-16121944D01*
X25185871Y-16121944D01*
X25054304Y-16148115D01*
X24930370Y-16199450D01*
X24818832Y-16273977D01*
X24723977Y-16368832D01*
X24649450Y-16480370D01*
X24598115Y-16604304D01*
X24571944Y-16735871D01*
X19854673Y-16735871D01*
X19856000Y-16722399D01*
X19858206Y-16700000D01*
X19856000Y-16677601D01*
X19856000Y-16032927D01*
X26269000Y-16032927D01*
X26269000Y-16167073D01*
X26295171Y-16298640D01*
X26346506Y-16422574D01*
X26421033Y-16534112D01*
X26515888Y-16628967D01*
X26627426Y-16703494D01*
X26751360Y-16754829D01*
X26882927Y-16781000D01*
X27017073Y-16781000D01*
X27148640Y-16754829D01*
X27194408Y-16735871D01*
X27966056Y-16735871D01*
X27966056Y-16870017D01*
X27992227Y-17001584D01*
X28043562Y-17125518D01*
X28118089Y-17237056D01*
X28212944Y-17331911D01*
X28324482Y-17406438D01*
X28448416Y-17457773D01*
X28579983Y-17483944D01*
X28714129Y-17483944D01*
X28845696Y-17457773D01*
X28969630Y-17406438D01*
X29081168Y-17331911D01*
X29176023Y-17237056D01*
X29250550Y-17125518D01*
X29301885Y-17001584D01*
X29328056Y-16870017D01*
X29328056Y-16735871D01*
X29301885Y-16604304D01*
X29250550Y-16480370D01*
X29176023Y-16368832D01*
X29081168Y-16273977D01*
X28969630Y-16199450D01*
X28845696Y-16148115D01*
X28714129Y-16121944D01*
X28579983Y-16121944D01*
X28448416Y-16148115D01*
X28324482Y-16199450D01*
X28212944Y-16273977D01*
X28118089Y-16368832D01*
X28043562Y-16480370D01*
X27992227Y-16604304D01*
X27966056Y-16735871D01*
X27194408Y-16735871D01*
X27272574Y-16703494D01*
X27384112Y-16628967D01*
X27478967Y-16534112D01*
X27553494Y-16422574D01*
X27604829Y-16298640D01*
X27631000Y-16167073D01*
X27631000Y-16032927D01*
X27604829Y-15901360D01*
X27553494Y-15777426D01*
X27478967Y-15665888D01*
X27384112Y-15571033D01*
X27272574Y-15496506D01*
X27148640Y-15445171D01*
X27017073Y-15419000D01*
X26882927Y-15419000D01*
X26751360Y-15445171D01*
X26627426Y-15496506D01*
X26515888Y-15571033D01*
X26421033Y-15665888D01*
X26346506Y-15777426D01*
X26295171Y-15901360D01*
X26269000Y-16032927D01*
X19856000Y-16032927D01*
X19856000Y-15572306D01*
X19868506Y-15444761D01*
X19899069Y-15343530D01*
X19948713Y-15250164D01*
X20015546Y-15168219D01*
X20097023Y-15100815D01*
X20190038Y-15050522D01*
X20291052Y-15019254D01*
X20417147Y-15006000D01*
X29877694Y-15006000D01*
X30005239Y-15018506D01*
X30005239Y-15018506D01*
G37*
X30005239Y-15018506D02*
X30106470Y-15049069D01*
X30199836Y-15098713D01*
X30281781Y-15165546D01*
X30349185Y-15247023D01*
X30399478Y-15340038D01*
X30430746Y-15441052D01*
X30444001Y-15567157D01*
X30444000Y-22572398D01*
X30444001Y-22572408D01*
X30444000Y-30722398D01*
X30445895Y-30741643D01*
X30445883Y-30743421D01*
X30446505Y-30749758D01*
X30449518Y-30778427D01*
X30450598Y-30789391D01*
X30450709Y-30789757D01*
X30452625Y-30807987D01*
X30460940Y-30848498D01*
X30468680Y-30889072D01*
X30470520Y-30895167D01*
X30487835Y-30951099D01*
X30503839Y-30989172D01*
X30519333Y-31027521D01*
X30522323Y-31033142D01*
X30550171Y-31084645D01*
X30573259Y-31118875D01*
X30595911Y-31153491D01*
X30599936Y-31158425D01*
X30637257Y-31203537D01*
X30666588Y-31232665D01*
X30680780Y-31247157D01*
X30360000Y-31247157D01*
X30285311Y-31254513D01*
X30213492Y-31276299D01*
X30147304Y-31311678D01*
X30114012Y-31339000D01*
X29815953Y-31339000D01*
X29137770Y-30660818D01*
X29156521Y-30566552D01*
X29156521Y-30432406D01*
X29130350Y-30300839D01*
X29079015Y-30176905D01*
X29004488Y-30065367D01*
X28909633Y-29970512D01*
X28798095Y-29895985D01*
X28674161Y-29844650D01*
X28542594Y-29818479D01*
X28408448Y-29818479D01*
X28276881Y-29844650D01*
X28152947Y-29895985D01*
X28041409Y-29970512D01*
X28011000Y-30000921D01*
X28011000Y-25302079D01*
X28078967Y-25234112D01*
X28153494Y-25122574D01*
X28204829Y-24998640D01*
X28231000Y-24867073D01*
X28231000Y-24732927D01*
X28204829Y-24601360D01*
X28153494Y-24477426D01*
X28078967Y-24365888D01*
X27984112Y-24271033D01*
X27872574Y-24196506D01*
X27748640Y-24145171D01*
X27687710Y-24133051D01*
X27676998Y-24079198D01*
X27594408Y-23955592D01*
X23768799Y-20129983D01*
X24571944Y-20129983D01*
X24571944Y-20264129D01*
X24598115Y-20395696D01*
X24649450Y-20519630D01*
X24723977Y-20631168D01*
X24818832Y-20726023D01*
X24930370Y-20800550D01*
X25054304Y-20851885D01*
X25185871Y-20878056D01*
X25320017Y-20878056D01*
X25451584Y-20851885D01*
X25497352Y-20832927D01*
X26269000Y-20832927D01*
X26269000Y-20967073D01*
X26295171Y-21098640D01*
X26346506Y-21222574D01*
X26421033Y-21334112D01*
X26515888Y-21428967D01*
X26627426Y-21503494D01*
X26751360Y-21554829D01*
X26882927Y-21581000D01*
X27017073Y-21581000D01*
X27148640Y-21554829D01*
X27272574Y-21503494D01*
X27384112Y-21428967D01*
X27478967Y-21334112D01*
X27553494Y-21222574D01*
X27604829Y-21098640D01*
X27631000Y-20967073D01*
X27631000Y-20832927D01*
X27604829Y-20701360D01*
X27553494Y-20577426D01*
X27478967Y-20465888D01*
X27384112Y-20371033D01*
X27272574Y-20296506D01*
X27148640Y-20245171D01*
X27017073Y-20219000D01*
X26882927Y-20219000D01*
X26751360Y-20245171D01*
X26627426Y-20296506D01*
X26515888Y-20371033D01*
X26421033Y-20465888D01*
X26346506Y-20577426D01*
X26295171Y-20701360D01*
X26269000Y-20832927D01*
X25497352Y-20832927D01*
X25575518Y-20800550D01*
X25687056Y-20726023D01*
X25781911Y-20631168D01*
X25856438Y-20519630D01*
X25907773Y-20395696D01*
X25933944Y-20264129D01*
X25933944Y-20129983D01*
X27966056Y-20129983D01*
X27966056Y-20264129D01*
X27992227Y-20395696D01*
X28043562Y-20519630D01*
X28118089Y-20631168D01*
X28212944Y-20726023D01*
X28324482Y-20800550D01*
X28448416Y-20851885D01*
X28579983Y-20878056D01*
X28714129Y-20878056D01*
X28845696Y-20851885D01*
X28969630Y-20800550D01*
X29081168Y-20726023D01*
X29176023Y-20631168D01*
X29250550Y-20519630D01*
X29301885Y-20395696D01*
X29328056Y-20264129D01*
X29328056Y-20129983D01*
X29301885Y-19998416D01*
X29250550Y-19874482D01*
X29176023Y-19762944D01*
X29081168Y-19668089D01*
X28969630Y-19593562D01*
X28845696Y-19542227D01*
X28714129Y-19516056D01*
X28579983Y-19516056D01*
X28448416Y-19542227D01*
X28324482Y-19593562D01*
X28212944Y-19668089D01*
X28118089Y-19762944D01*
X28043562Y-19874482D01*
X27992227Y-19998416D01*
X27966056Y-20129983D01*
X25933944Y-20129983D01*
X25907773Y-19998416D01*
X25856438Y-19874482D01*
X25781911Y-19762944D01*
X25687056Y-19668089D01*
X25575518Y-19593562D01*
X25451584Y-19542227D01*
X25320017Y-19516056D01*
X25185871Y-19516056D01*
X25054304Y-19542227D01*
X24930370Y-19593562D01*
X24818832Y-19668089D01*
X24723977Y-19762944D01*
X24649450Y-19874482D01*
X24598115Y-19998416D01*
X24571944Y-20129983D01*
X23768799Y-20129983D01*
X22071743Y-18432927D01*
X23869000Y-18432927D01*
X23869000Y-18567073D01*
X23895171Y-18698640D01*
X23946506Y-18822574D01*
X24021033Y-18934112D01*
X24115888Y-19028967D01*
X24227426Y-19103494D01*
X24351360Y-19154829D01*
X24482927Y-19181000D01*
X24617073Y-19181000D01*
X24748640Y-19154829D01*
X24872574Y-19103494D01*
X24984112Y-19028967D01*
X25078967Y-18934112D01*
X25153494Y-18822574D01*
X25204829Y-18698640D01*
X25231000Y-18567073D01*
X25231000Y-18432927D01*
X28669000Y-18432927D01*
X28669000Y-18567073D01*
X28695171Y-18698640D01*
X28746506Y-18822574D01*
X28821033Y-18934112D01*
X28915888Y-19028967D01*
X29027426Y-19103494D01*
X29151360Y-19154829D01*
X29282927Y-19181000D01*
X29417073Y-19181000D01*
X29548640Y-19154829D01*
X29672574Y-19103494D01*
X29784112Y-19028967D01*
X29878967Y-18934112D01*
X29953494Y-18822574D01*
X30004829Y-18698640D01*
X30031000Y-18567073D01*
X30031000Y-18432927D01*
X30004829Y-18301360D01*
X29953494Y-18177426D01*
X29878967Y-18065888D01*
X29784112Y-17971033D01*
X29672574Y-17896506D01*
X29548640Y-17845171D01*
X29417073Y-17819000D01*
X29282927Y-17819000D01*
X29151360Y-17845171D01*
X29027426Y-17896506D01*
X28915888Y-17971033D01*
X28821033Y-18065888D01*
X28746506Y-18177426D01*
X28695171Y-18301360D01*
X28669000Y-18432927D01*
X25231000Y-18432927D01*
X25204829Y-18301360D01*
X25153494Y-18177426D01*
X25078967Y-18065888D01*
X24984112Y-17971033D01*
X24872574Y-17896506D01*
X24748640Y-17845171D01*
X24617073Y-17819000D01*
X24482927Y-17819000D01*
X24351360Y-17845171D01*
X24227426Y-17896506D01*
X24115888Y-17971033D01*
X24021033Y-18065888D01*
X23946506Y-18177426D01*
X23895171Y-18301360D01*
X23869000Y-18432927D01*
X22071743Y-18432927D01*
X21669408Y-18030592D01*
X21545802Y-17948002D01*
X21400000Y-17919000D01*
X18162843Y-17919000D01*
X18162843Y-17675000D01*
X18155487Y-17600311D01*
X18133701Y-17528492D01*
X18098322Y-17462304D01*
X18050711Y-17404289D01*
X17992696Y-17356678D01*
X17926508Y-17321299D01*
X17854689Y-17299513D01*
X17824269Y-17296517D01*
X17840959Y-17285259D01*
X17875522Y-17262643D01*
X17880456Y-17258619D01*
X17918051Y-17227519D01*
X17947168Y-17198200D01*
X17976714Y-17169266D01*
X17980758Y-17164377D01*
X17980762Y-17164372D01*
X17980765Y-17164367D01*
X17980772Y-17164359D01*
X17987589Y-17156000D01*
X19377601Y-17156000D01*
X19400000Y-17158206D01*
X19489392Y-17149402D01*
X19575348Y-17123327D01*
X19654566Y-17080984D01*
X19724001Y-17024001D01*
X19780984Y-16954566D01*
X19823327Y-16875348D01*
X19849402Y-16789392D01*
X19854673Y-16735871D01*
X24571944Y-16735871D01*
X24571944Y-16870017D01*
X24598115Y-17001584D01*
X24649450Y-17125518D01*
X24723977Y-17237056D01*
X24818832Y-17331911D01*
X24930370Y-17406438D01*
X25054304Y-17457773D01*
X25185871Y-17483944D01*
X25320017Y-17483944D01*
X25451584Y-17457773D01*
X25575518Y-17406438D01*
X25687056Y-17331911D01*
X25781911Y-17237056D01*
X25856438Y-17125518D01*
X25907773Y-17001584D01*
X25933944Y-16870017D01*
X25933944Y-16735871D01*
X25907773Y-16604304D01*
X25856438Y-16480370D01*
X25781911Y-16368832D01*
X25687056Y-16273977D01*
X25575518Y-16199450D01*
X25451584Y-16148115D01*
X25320017Y-16121944D01*
X25185871Y-16121944D01*
X25054304Y-16148115D01*
X24930370Y-16199450D01*
X24818832Y-16273977D01*
X24723977Y-16368832D01*
X24649450Y-16480370D01*
X24598115Y-16604304D01*
X24571944Y-16735871D01*
X19854673Y-16735871D01*
X19856000Y-16722399D01*
X19858206Y-16700000D01*
X19856000Y-16677601D01*
X19856000Y-16032927D01*
X26269000Y-16032927D01*
X26269000Y-16167073D01*
X26295171Y-16298640D01*
X26346506Y-16422574D01*
X26421033Y-16534112D01*
X26515888Y-16628967D01*
X26627426Y-16703494D01*
X26751360Y-16754829D01*
X26882927Y-16781000D01*
X27017073Y-16781000D01*
X27148640Y-16754829D01*
X27194408Y-16735871D01*
X27966056Y-16735871D01*
X27966056Y-16870017D01*
X27992227Y-17001584D01*
X28043562Y-17125518D01*
X28118089Y-17237056D01*
X28212944Y-17331911D01*
X28324482Y-17406438D01*
X28448416Y-17457773D01*
X28579983Y-17483944D01*
X28714129Y-17483944D01*
X28845696Y-17457773D01*
X28969630Y-17406438D01*
X29081168Y-17331911D01*
X29176023Y-17237056D01*
X29250550Y-17125518D01*
X29301885Y-17001584D01*
X29328056Y-16870017D01*
X29328056Y-16735871D01*
X29301885Y-16604304D01*
X29250550Y-16480370D01*
X29176023Y-16368832D01*
X29081168Y-16273977D01*
X28969630Y-16199450D01*
X28845696Y-16148115D01*
X28714129Y-16121944D01*
X28579983Y-16121944D01*
X28448416Y-16148115D01*
X28324482Y-16199450D01*
X28212944Y-16273977D01*
X28118089Y-16368832D01*
X28043562Y-16480370D01*
X27992227Y-16604304D01*
X27966056Y-16735871D01*
X27194408Y-16735871D01*
X27272574Y-16703494D01*
X27384112Y-16628967D01*
X27478967Y-16534112D01*
X27553494Y-16422574D01*
X27604829Y-16298640D01*
X27631000Y-16167073D01*
X27631000Y-16032927D01*
X27604829Y-15901360D01*
X27553494Y-15777426D01*
X27478967Y-15665888D01*
X27384112Y-15571033D01*
X27272574Y-15496506D01*
X27148640Y-15445171D01*
X27017073Y-15419000D01*
X26882927Y-15419000D01*
X26751360Y-15445171D01*
X26627426Y-15496506D01*
X26515888Y-15571033D01*
X26421033Y-15665888D01*
X26346506Y-15777426D01*
X26295171Y-15901360D01*
X26269000Y-16032927D01*
X19856000Y-16032927D01*
X19856000Y-15572306D01*
X19868506Y-15444761D01*
X19899069Y-15343530D01*
X19948713Y-15250164D01*
X20015546Y-15168219D01*
X20097023Y-15100815D01*
X20190038Y-15050522D01*
X20291052Y-15019254D01*
X20417147Y-15006000D01*
X29877694Y-15006000D01*
X30005239Y-15018506D01*
G36*
X19698084Y-31169437D02*
X19749419Y-31293371D01*
X19779907Y-31339000D01*
X17959624Y-31339000D01*
X17926508Y-31321299D01*
X17854689Y-31299513D01*
X17824269Y-31296517D01*
X17840959Y-31285259D01*
X17875522Y-31262643D01*
X17880456Y-31258619D01*
X17918051Y-31227519D01*
X17947168Y-31198200D01*
X17976714Y-31169266D01*
X17980758Y-31164377D01*
X17980762Y-31164372D01*
X17980765Y-31164367D01*
X17980772Y-31164359D01*
X17987589Y-31156000D01*
X19377601Y-31156000D01*
X19400000Y-31158206D01*
X19489392Y-31149402D01*
X19575348Y-31123327D01*
X19654566Y-31080984D01*
X19676851Y-31062695D01*
X19698084Y-31169437D01*
X19698084Y-31169437D01*
G37*
X19698084Y-31169437D02*
X19749419Y-31293371D01*
X19779907Y-31339000D01*
X17959624Y-31339000D01*
X17926508Y-31321299D01*
X17854689Y-31299513D01*
X17824269Y-31296517D01*
X17840959Y-31285259D01*
X17875522Y-31262643D01*
X17880456Y-31258619D01*
X17918051Y-31227519D01*
X17947168Y-31198200D01*
X17976714Y-31169266D01*
X17980758Y-31164377D01*
X17980762Y-31164372D01*
X17980765Y-31164367D01*
X17980772Y-31164359D01*
X17987589Y-31156000D01*
X19377601Y-31156000D01*
X19400000Y-31158206D01*
X19489392Y-31149402D01*
X19575348Y-31123327D01*
X19654566Y-31080984D01*
X19676851Y-31062695D01*
X19698084Y-31169437D01*
G04 #@! TO.N,VBUS*
G36*
X21273000Y-21673000D02*
X18168066Y-21673000D01*
X18138894Y-21526341D01*
X18054686Y-21400314D01*
X17928659Y-21316106D01*
X17847688Y-21300000D01*
X17928659Y-21283894D01*
X17970349Y-21256038D01*
X18079873Y-21234252D01*
X18232362Y-21132362D01*
X18258080Y-21093872D01*
X18413000Y-20938953D01*
X18514511Y-20981000D01*
X18785429Y-20981000D01*
X19035726Y-20877324D01*
X19227294Y-20685756D01*
X19330970Y-20435459D01*
X19330970Y-20164541D01*
X19227294Y-19914244D01*
X19035726Y-19722676D01*
X18785429Y-19619000D01*
X18514511Y-19619000D01*
X18264214Y-19722676D01*
X18168464Y-19818426D01*
X18168464Y-19675000D01*
X18143600Y-19550000D01*
X18168464Y-19425000D01*
X18168464Y-19175000D01*
X18138894Y-19026341D01*
X18054686Y-18900314D01*
X17928659Y-18816106D01*
X17847688Y-18800000D01*
X17928659Y-18783894D01*
X18054686Y-18699686D01*
X18138894Y-18573659D01*
X18168066Y-18427000D01*
X21273000Y-18427000D01*
X21273000Y-21673000D01*
X21273000Y-21673000D01*
G37*
X21273000Y-21673000D02*
X18168066Y-21673000D01*
X18138894Y-21526341D01*
X18054686Y-21400314D01*
X17928659Y-21316106D01*
X17847688Y-21300000D01*
X17928659Y-21283894D01*
X17970349Y-21256038D01*
X18079873Y-21234252D01*
X18232362Y-21132362D01*
X18258080Y-21093872D01*
X18413000Y-20938953D01*
X18514511Y-20981000D01*
X18785429Y-20981000D01*
X19035726Y-20877324D01*
X19227294Y-20685756D01*
X19330970Y-20435459D01*
X19330970Y-20164541D01*
X19227294Y-19914244D01*
X19035726Y-19722676D01*
X18785429Y-19619000D01*
X18514511Y-19619000D01*
X18264214Y-19722676D01*
X18168464Y-19818426D01*
X18168464Y-19675000D01*
X18143600Y-19550000D01*
X18168464Y-19425000D01*
X18168464Y-19175000D01*
X18138894Y-19026341D01*
X18054686Y-18900314D01*
X17928659Y-18816106D01*
X17847688Y-18800000D01*
X17928659Y-18783894D01*
X18054686Y-18699686D01*
X18138894Y-18573659D01*
X18168066Y-18427000D01*
X21273000Y-18427000D01*
X21273000Y-21673000D01*
G36*
X27198000Y-24277606D02*
X27198000Y-24341247D01*
X27182184Y-24351815D01*
X27101815Y-24432184D01*
X27038669Y-24526688D01*
X26995174Y-24631695D01*
X26973000Y-24743170D01*
X26973000Y-24856830D01*
X26995174Y-24968305D01*
X27038669Y-25073312D01*
X27101815Y-25167816D01*
X27182184Y-25248185D01*
X27193001Y-25255413D01*
X27193000Y-30352126D01*
X26149962Y-31395165D01*
X26136343Y-31406342D01*
X26125166Y-31419961D01*
X26125165Y-31419962D01*
X26101464Y-31448842D01*
X26022184Y-31501815D01*
X25941815Y-31582184D01*
X25878669Y-31676688D01*
X25835174Y-31781695D01*
X25813000Y-31893170D01*
X25813000Y-32006830D01*
X25835174Y-32118305D01*
X25878669Y-32223312D01*
X25941815Y-32317816D01*
X26022184Y-32398185D01*
X26116688Y-32461331D01*
X26221695Y-32504826D01*
X26333170Y-32527000D01*
X26446830Y-32527000D01*
X26558305Y-32504826D01*
X26663312Y-32461331D01*
X26757816Y-32398185D01*
X26838185Y-32317816D01*
X26901331Y-32223312D01*
X26944826Y-32118305D01*
X26967000Y-32006830D01*
X26967000Y-31893170D01*
X26944826Y-31781695D01*
X26901331Y-31676688D01*
X26892060Y-31662813D01*
X27198000Y-31356873D01*
X27198000Y-35650641D01*
X27175641Y-35673000D01*
X26252541Y-35673000D01*
X25462950Y-34884764D01*
X25451321Y-34856688D01*
X25388175Y-34762184D01*
X25307806Y-34681815D01*
X25213302Y-34618669D01*
X25184411Y-34606702D01*
X23007000Y-32433026D01*
X23007000Y-29767526D01*
X23008726Y-29750000D01*
X23007000Y-29732473D01*
X23007000Y-29732466D01*
X23001834Y-29680016D01*
X22981421Y-29612721D01*
X22948271Y-29550702D01*
X22903658Y-29496342D01*
X22890039Y-29485165D01*
X21407000Y-28002127D01*
X21407000Y-24788821D01*
X21467816Y-24748185D01*
X21548185Y-24667816D01*
X21611331Y-24573312D01*
X21654826Y-24468305D01*
X21677000Y-24356830D01*
X21677000Y-24243170D01*
X21654826Y-24131695D01*
X21611331Y-24026688D01*
X21548185Y-23932184D01*
X21467816Y-23851815D01*
X21373312Y-23788669D01*
X21345239Y-23777041D01*
X21351838Y-18431444D01*
X27198000Y-24277606D01*
X27198000Y-24277606D01*
G37*
X27198000Y-24277606D02*
X27198000Y-24341247D01*
X27182184Y-24351815D01*
X27101815Y-24432184D01*
X27038669Y-24526688D01*
X26995174Y-24631695D01*
X26973000Y-24743170D01*
X26973000Y-24856830D01*
X26995174Y-24968305D01*
X27038669Y-25073312D01*
X27101815Y-25167816D01*
X27182184Y-25248185D01*
X27193001Y-25255413D01*
X27193000Y-30352126D01*
X26149962Y-31395165D01*
X26136343Y-31406342D01*
X26125166Y-31419961D01*
X26125165Y-31419962D01*
X26101464Y-31448842D01*
X26022184Y-31501815D01*
X25941815Y-31582184D01*
X25878669Y-31676688D01*
X25835174Y-31781695D01*
X25813000Y-31893170D01*
X25813000Y-32006830D01*
X25835174Y-32118305D01*
X25878669Y-32223312D01*
X25941815Y-32317816D01*
X26022184Y-32398185D01*
X26116688Y-32461331D01*
X26221695Y-32504826D01*
X26333170Y-32527000D01*
X26446830Y-32527000D01*
X26558305Y-32504826D01*
X26663312Y-32461331D01*
X26757816Y-32398185D01*
X26838185Y-32317816D01*
X26901331Y-32223312D01*
X26944826Y-32118305D01*
X26967000Y-32006830D01*
X26967000Y-31893170D01*
X26944826Y-31781695D01*
X26901331Y-31676688D01*
X26892060Y-31662813D01*
X27198000Y-31356873D01*
X27198000Y-35650641D01*
X27175641Y-35673000D01*
X26252541Y-35673000D01*
X25462950Y-34884764D01*
X25451321Y-34856688D01*
X25388175Y-34762184D01*
X25307806Y-34681815D01*
X25213302Y-34618669D01*
X25184411Y-34606702D01*
X23007000Y-32433026D01*
X23007000Y-29767526D01*
X23008726Y-29750000D01*
X23007000Y-29732473D01*
X23007000Y-29732466D01*
X23001834Y-29680016D01*
X22981421Y-29612721D01*
X22948271Y-29550702D01*
X22903658Y-29496342D01*
X22890039Y-29485165D01*
X21407000Y-28002127D01*
X21407000Y-24788821D01*
X21467816Y-24748185D01*
X21548185Y-24667816D01*
X21611331Y-24573312D01*
X21654826Y-24468305D01*
X21677000Y-24356830D01*
X21677000Y-24243170D01*
X21654826Y-24131695D01*
X21611331Y-24026688D01*
X21548185Y-23932184D01*
X21467816Y-23851815D01*
X21373312Y-23788669D01*
X21345239Y-23777041D01*
X21351838Y-18431444D01*
X27198000Y-24277606D01*
G04 #@! TD*
M02*
