G04 #@! TF.GenerationSoftware,KiCad,Pcbnew,(6.0.0-rc1-dev-1-g01c5bdfb8)*
G04 #@! TF.CreationDate,2019-02-19T09:48:00+01:00*
G04 #@! TF.ProjectId,PD-Injector,50442D496E6A6563746F722E6B696361,v1.2*
G04 #@! TF.SameCoordinates,Original*
G04 #@! TF.FileFunction,Legend,Bot*
G04 #@! TF.FilePolarity,Positive*
%FSLAX46Y46*%
G04 Gerber Fmt 4.6, Leading zero omitted, Abs format (unit mm)*
G04 Created by KiCad (PCBNEW (6.0.0-rc1-dev-1-g01c5bdfb8)) date Tue Feb 19 09:48:00 2019*
%MOMM*%
%LPD*%
G01*
G04 APERTURE LIST*
%ADD10C,0.100000*%
%ADD11C,0.150000*%
G04 APERTURE END LIST*
D10*
X21452380Y-18573809D02*
X20452380Y-18573809D01*
X20452380Y-18811904D01*
X20500000Y-18954761D01*
X20595238Y-19050000D01*
X20690476Y-19097619D01*
X20880952Y-19145238D01*
X21023809Y-19145238D01*
X21214285Y-19097619D01*
X21309523Y-19050000D01*
X21404761Y-18954761D01*
X21452380Y-18811904D01*
X21452380Y-18573809D01*
X21404761Y-19954761D02*
X21452380Y-19859523D01*
X21452380Y-19669047D01*
X21404761Y-19573809D01*
X21309523Y-19526190D01*
X20928571Y-19526190D01*
X20833333Y-19573809D01*
X20785714Y-19669047D01*
X20785714Y-19859523D01*
X20833333Y-19954761D01*
X20928571Y-20002380D01*
X21023809Y-20002380D01*
X21119047Y-19526190D01*
X21404761Y-20383333D02*
X21452380Y-20478571D01*
X21452380Y-20669047D01*
X21404761Y-20764285D01*
X21309523Y-20811904D01*
X21261904Y-20811904D01*
X21166666Y-20764285D01*
X21119047Y-20669047D01*
X21119047Y-20526190D01*
X21071428Y-20430952D01*
X20976190Y-20383333D01*
X20928571Y-20383333D01*
X20833333Y-20430952D01*
X20785714Y-20526190D01*
X20785714Y-20669047D01*
X20833333Y-20764285D01*
X21452380Y-21240476D02*
X20785714Y-21240476D01*
X20452380Y-21240476D02*
X20500000Y-21192857D01*
X20547619Y-21240476D01*
X20500000Y-21288095D01*
X20452380Y-21240476D01*
X20547619Y-21240476D01*
X20785714Y-22145238D02*
X21595238Y-22145238D01*
X21690476Y-22097619D01*
X21738095Y-22050000D01*
X21785714Y-21954761D01*
X21785714Y-21811904D01*
X21738095Y-21716666D01*
X21404761Y-22145238D02*
X21452380Y-22050000D01*
X21452380Y-21859523D01*
X21404761Y-21764285D01*
X21357142Y-21716666D01*
X21261904Y-21669047D01*
X20976190Y-21669047D01*
X20880952Y-21716666D01*
X20833333Y-21764285D01*
X20785714Y-21859523D01*
X20785714Y-22050000D01*
X20833333Y-22145238D01*
X20785714Y-22621428D02*
X21452380Y-22621428D01*
X20880952Y-22621428D02*
X20833333Y-22669047D01*
X20785714Y-22764285D01*
X20785714Y-22907142D01*
X20833333Y-23002380D01*
X20928571Y-23050000D01*
X21452380Y-23050000D01*
X21452380Y-24288095D02*
X20452380Y-24288095D01*
X20833333Y-24288095D02*
X20785714Y-24383333D01*
X20785714Y-24573809D01*
X20833333Y-24669047D01*
X20880952Y-24716666D01*
X20976190Y-24764285D01*
X21261904Y-24764285D01*
X21357142Y-24716666D01*
X21404761Y-24669047D01*
X21452380Y-24573809D01*
X21452380Y-24383333D01*
X21404761Y-24288095D01*
X20785714Y-25097619D02*
X21452380Y-25335714D01*
X20785714Y-25573809D02*
X21452380Y-25335714D01*
X21690476Y-25240476D01*
X21738095Y-25192857D01*
X21785714Y-25097619D01*
X21357142Y-27288095D02*
X21404761Y-27240476D01*
X21452380Y-27097619D01*
X21452380Y-27002380D01*
X21404761Y-26859523D01*
X21309523Y-26764285D01*
X21214285Y-26716666D01*
X21023809Y-26669047D01*
X20880952Y-26669047D01*
X20690476Y-26716666D01*
X20595238Y-26764285D01*
X20500000Y-26859523D01*
X20452380Y-27002380D01*
X20452380Y-27097619D01*
X20500000Y-27240476D01*
X20547619Y-27288095D01*
X21452380Y-27859523D02*
X21404761Y-27764285D01*
X21309523Y-27716666D01*
X20452380Y-27716666D01*
X21452380Y-28669047D02*
X20928571Y-28669047D01*
X20833333Y-28621428D01*
X20785714Y-28526190D01*
X20785714Y-28335714D01*
X20833333Y-28240476D01*
X21404761Y-28669047D02*
X21452380Y-28573809D01*
X21452380Y-28335714D01*
X21404761Y-28240476D01*
X21309523Y-28192857D01*
X21214285Y-28192857D01*
X21119047Y-28240476D01*
X21071428Y-28335714D01*
X21071428Y-28573809D01*
X21023809Y-28669047D01*
X21452380Y-29145238D02*
X20785714Y-29145238D01*
X20976190Y-29145238D02*
X20880952Y-29192857D01*
X20833333Y-29240476D01*
X20785714Y-29335714D01*
X20785714Y-29430952D01*
X21452380Y-30192857D02*
X20928571Y-30192857D01*
X20833333Y-30145238D01*
X20785714Y-30049999D01*
X20785714Y-29859523D01*
X20833333Y-29764285D01*
X21404761Y-30192857D02*
X21452380Y-30097619D01*
X21452380Y-29859523D01*
X21404761Y-29764285D01*
X21309523Y-29716666D01*
X21214285Y-29716666D01*
X21119047Y-29764285D01*
X21071428Y-29859523D01*
X21071428Y-30097619D01*
X21023809Y-30192857D01*
X21452380Y-31430952D02*
X20452380Y-31430952D01*
X20928571Y-31430952D02*
X20928571Y-32002380D01*
X21452380Y-32002380D02*
X20452380Y-32002380D01*
X21452380Y-32621428D02*
X21404761Y-32526190D01*
X21357142Y-32478571D01*
X21261904Y-32430952D01*
X20976190Y-32430952D01*
X20880952Y-32478571D01*
X20833333Y-32526190D01*
X20785714Y-32621428D01*
X20785714Y-32764285D01*
X20833333Y-32859523D01*
X20880952Y-32907142D01*
X20976190Y-32954761D01*
X21261904Y-32954761D01*
X21357142Y-32907142D01*
X21404761Y-32859523D01*
X21452380Y-32764285D01*
X21452380Y-32621428D01*
X21452380Y-33383333D02*
X20452380Y-33383333D01*
X20833333Y-33383333D02*
X20785714Y-33478571D01*
X20785714Y-33669047D01*
X20833333Y-33764285D01*
X20880952Y-33811904D01*
X20976190Y-33859523D01*
X21261904Y-33859523D01*
X21357142Y-33811904D01*
X21404761Y-33764285D01*
X21452380Y-33669047D01*
X21452380Y-33478571D01*
X21404761Y-33383333D01*
X21452380Y-34288095D02*
X20452380Y-34288095D01*
X20833333Y-34288095D02*
X20785714Y-34383333D01*
X20785714Y-34573809D01*
X20833333Y-34669047D01*
X20880952Y-34716666D01*
X20976190Y-34764285D01*
X21261904Y-34764285D01*
X21357142Y-34716666D01*
X21404761Y-34669047D01*
X21452380Y-34573809D01*
X21452380Y-34383333D01*
X21404761Y-34288095D01*
X21404761Y-35145238D02*
X21452380Y-35240476D01*
X21452380Y-35430952D01*
X21404761Y-35526190D01*
X21309523Y-35573809D01*
X21261904Y-35573809D01*
X21166666Y-35526190D01*
X21119047Y-35430952D01*
X21119047Y-35288095D01*
X21071428Y-35192857D01*
X20976190Y-35145238D01*
X20928571Y-35145238D01*
X20833333Y-35192857D01*
X20785714Y-35288095D01*
X20785714Y-35430952D01*
X20833333Y-35526190D01*
X22528571Y-15811904D02*
X22528571Y-16145238D01*
X23052380Y-16288095D02*
X23052380Y-15811904D01*
X22052380Y-15811904D01*
X22052380Y-16288095D01*
X23052380Y-17145238D02*
X22052380Y-17145238D01*
X23004761Y-17145238D02*
X23052380Y-17050000D01*
X23052380Y-16859523D01*
X23004761Y-16764285D01*
X22957142Y-16716666D01*
X22861904Y-16669047D01*
X22576190Y-16669047D01*
X22480952Y-16716666D01*
X22433333Y-16764285D01*
X22385714Y-16859523D01*
X22385714Y-17050000D01*
X22433333Y-17145238D01*
X23052380Y-17621428D02*
X22385714Y-17621428D01*
X22052380Y-17621428D02*
X22100000Y-17573809D01*
X22147619Y-17621428D01*
X22100000Y-17669047D01*
X22052380Y-17621428D01*
X22147619Y-17621428D01*
X22385714Y-17954761D02*
X22385714Y-18335714D01*
X22052380Y-18097619D02*
X22909523Y-18097619D01*
X23004761Y-18145238D01*
X23052380Y-18240476D01*
X23052380Y-18335714D01*
X23004761Y-19050000D02*
X23052380Y-18954761D01*
X23052380Y-18764285D01*
X23004761Y-18669047D01*
X22909523Y-18621428D01*
X22528571Y-18621428D01*
X22433333Y-18669047D01*
X22385714Y-18764285D01*
X22385714Y-18954761D01*
X22433333Y-19050000D01*
X22528571Y-19097619D01*
X22623809Y-19097619D01*
X22719047Y-18621428D01*
X23052380Y-19954761D02*
X22052380Y-19954761D01*
X23004761Y-19954761D02*
X23052380Y-19859523D01*
X23052380Y-19669047D01*
X23004761Y-19573809D01*
X22957142Y-19526190D01*
X22861904Y-19478571D01*
X22576190Y-19478571D01*
X22480952Y-19526190D01*
X22433333Y-19573809D01*
X22385714Y-19669047D01*
X22385714Y-19859523D01*
X22433333Y-19954761D01*
X23052380Y-21192857D02*
X22052380Y-21192857D01*
X22433333Y-21192857D02*
X22385714Y-21288095D01*
X22385714Y-21478571D01*
X22433333Y-21573809D01*
X22480952Y-21621428D01*
X22576190Y-21669047D01*
X22861904Y-21669047D01*
X22957142Y-21621428D01*
X23004761Y-21573809D01*
X23052380Y-21478571D01*
X23052380Y-21288095D01*
X23004761Y-21192857D01*
X22385714Y-22002380D02*
X23052380Y-22240476D01*
X22385714Y-22478571D02*
X23052380Y-22240476D01*
X23290476Y-22145238D01*
X23338095Y-22097619D01*
X23385714Y-22002380D01*
X22052380Y-23907142D02*
X22766666Y-23907142D01*
X22909523Y-23859523D01*
X23004761Y-23764285D01*
X23052380Y-23621428D01*
X23052380Y-23526190D01*
X23052380Y-24811904D02*
X22528571Y-24811904D01*
X22433333Y-24764285D01*
X22385714Y-24669047D01*
X22385714Y-24478571D01*
X22433333Y-24383333D01*
X23004761Y-24811904D02*
X23052380Y-24716666D01*
X23052380Y-24478571D01*
X23004761Y-24383333D01*
X22909523Y-24335714D01*
X22814285Y-24335714D01*
X22719047Y-24383333D01*
X22671428Y-24478571D01*
X22671428Y-24716666D01*
X22623809Y-24811904D01*
X22385714Y-25288095D02*
X23052380Y-25288095D01*
X22480952Y-25288095D02*
X22433333Y-25335714D01*
X22385714Y-25430952D01*
X22385714Y-25573809D01*
X22433333Y-25669047D01*
X22528571Y-25716666D01*
X23052380Y-25716666D01*
X23052380Y-26954761D02*
X22052380Y-26954761D01*
X22528571Y-26954761D02*
X22528571Y-27526190D01*
X23052380Y-27526190D02*
X22052380Y-27526190D01*
X23004761Y-28383333D02*
X23052380Y-28288095D01*
X23052380Y-28097619D01*
X23004761Y-28002380D01*
X22909523Y-27954761D01*
X22528571Y-27954761D01*
X22433333Y-28002380D01*
X22385714Y-28097619D01*
X22385714Y-28288095D01*
X22433333Y-28383333D01*
X22528571Y-28430952D01*
X22623809Y-28430952D01*
X22719047Y-27954761D01*
X22385714Y-28859523D02*
X23052380Y-28859523D01*
X22480952Y-28859523D02*
X22433333Y-28907142D01*
X22385714Y-29002380D01*
X22385714Y-29145238D01*
X22433333Y-29240476D01*
X22528571Y-29288095D01*
X23052380Y-29288095D01*
X23052380Y-29764285D02*
X22385714Y-29764285D01*
X22576190Y-29764285D02*
X22480952Y-29811904D01*
X22433333Y-29859523D01*
X22385714Y-29954761D01*
X22385714Y-30049999D01*
X23052380Y-30383333D02*
X22385714Y-30383333D01*
X22052380Y-30383333D02*
X22100000Y-30335714D01*
X22147619Y-30383333D01*
X22100000Y-30430952D01*
X22052380Y-30383333D01*
X22147619Y-30383333D01*
X23052380Y-30859523D02*
X22052380Y-30859523D01*
X22671428Y-30954761D02*
X23052380Y-31240476D01*
X22385714Y-31240476D02*
X22766666Y-30859523D01*
X23052380Y-32430952D02*
X22052380Y-32430952D01*
X22528571Y-32430952D02*
X22528571Y-33002380D01*
X23052380Y-33002380D02*
X22052380Y-33002380D01*
X23004761Y-33859523D02*
X23052380Y-33764285D01*
X23052380Y-33573809D01*
X23004761Y-33478571D01*
X22909523Y-33430952D01*
X22528571Y-33430952D01*
X22433333Y-33478571D01*
X22385714Y-33573809D01*
X22385714Y-33764285D01*
X22433333Y-33859523D01*
X22528571Y-33907142D01*
X22623809Y-33907142D01*
X22719047Y-33430952D01*
X23052380Y-34335714D02*
X22385714Y-34335714D01*
X22480952Y-34335714D02*
X22433333Y-34383333D01*
X22385714Y-34478571D01*
X22385714Y-34621428D01*
X22433333Y-34716666D01*
X22528571Y-34764285D01*
X23052380Y-34764285D01*
X22528571Y-34764285D02*
X22433333Y-34811904D01*
X22385714Y-34907142D01*
X22385714Y-35049999D01*
X22433333Y-35145238D01*
X22528571Y-35192857D01*
X23052380Y-35192857D01*
X23004761Y-35621428D02*
X23052380Y-35716666D01*
X23052380Y-35907142D01*
X23004761Y-36002380D01*
X22909523Y-36049999D01*
X22861904Y-36049999D01*
X22766666Y-36002380D01*
X22719047Y-35907142D01*
X22719047Y-35764285D01*
X22671428Y-35669047D01*
X22576190Y-35621428D01*
X22528571Y-35621428D01*
X22433333Y-35669047D01*
X22385714Y-35764285D01*
X22385714Y-35907142D01*
X22433333Y-36002380D01*
X23052380Y-36478571D02*
X22385714Y-36478571D01*
X22052380Y-36478571D02*
X22100000Y-36430952D01*
X22147619Y-36478571D01*
X22100000Y-36526190D01*
X22052380Y-36478571D01*
X22147619Y-36478571D01*
X22385714Y-36954761D02*
X23052380Y-36954761D01*
X22480952Y-36954761D02*
X22433333Y-37002380D01*
X22385714Y-37097619D01*
X22385714Y-37240476D01*
X22433333Y-37335714D01*
X22528571Y-37383333D01*
X23052380Y-37383333D01*
X22385714Y-38288095D02*
X23195238Y-38288095D01*
X23290476Y-38240476D01*
X23338095Y-38192857D01*
X23385714Y-38097619D01*
X23385714Y-37954761D01*
X23338095Y-37859523D01*
X23004761Y-38288095D02*
X23052380Y-38192857D01*
X23052380Y-38002380D01*
X23004761Y-37907142D01*
X22957142Y-37859523D01*
X22861904Y-37811904D01*
X22576190Y-37811904D01*
X22480952Y-37859523D01*
X22433333Y-37907142D01*
X22385714Y-38002380D01*
X22385714Y-38192857D01*
X22433333Y-38288095D01*
D11*
X30900000Y-22550000D02*
X30900000Y-15500000D01*
X30900000Y-38550000D02*
X30900000Y-37400000D01*
X17700000Y-30700000D02*
G75*
G02X17450000Y-30950000I-250000J0D01*
G01*
X16450000Y-30950000D02*
G75*
G02X16200000Y-30700000I0J250000D01*
G01*
X16200000Y-37400000D02*
G75*
G02X16450000Y-37150000I250000J0D01*
G01*
X17450000Y-37150000D02*
G75*
G02X17700000Y-37400000I0J-250000D01*
G01*
X17450000Y-23150000D02*
G75*
G02X17700000Y-23400000I0J-250000D01*
G01*
X16200000Y-23400000D02*
G75*
G02X16450000Y-23150000I250000J0D01*
G01*
X16450000Y-16950000D02*
G75*
G02X16200000Y-16700000I0J250000D01*
G01*
X17700000Y-16700000D02*
G75*
G02X17450000Y-16950000I-250000J0D01*
G01*
X19400000Y-37400000D02*
X19400000Y-38550000D01*
X17700000Y-37400000D02*
X19400000Y-37400000D01*
X16450000Y-37150000D02*
X17450000Y-37150000D01*
X15700000Y-37400000D02*
X16200000Y-37400000D01*
X14950000Y-37100000D02*
X15700000Y-37400000D01*
X14950000Y-31000000D02*
X14950000Y-37100000D01*
X15700000Y-30700000D02*
X14950000Y-31000000D01*
X16200000Y-30700000D02*
X15700000Y-30700000D01*
X17450000Y-30950000D02*
X16450000Y-30950000D01*
X19400000Y-30700000D02*
X17700000Y-30700000D01*
X19400000Y-23400000D02*
X19400000Y-30700000D01*
X17700000Y-23400000D02*
X19400000Y-23400000D01*
X16450000Y-23150000D02*
X17450000Y-23150000D01*
X15700000Y-23400000D02*
X16200000Y-23400000D01*
X14950000Y-23100000D02*
X15700000Y-23400000D01*
X14950000Y-17000000D02*
X14950000Y-23100000D01*
X15700000Y-16700000D02*
X14950000Y-17000000D01*
X16200000Y-16700000D02*
X15700000Y-16700000D01*
X17450000Y-16950000D02*
X16450000Y-16950000D01*
X19400000Y-16700000D02*
X17700000Y-16700000D01*
X19400000Y-15550000D02*
X19400000Y-16700000D01*
X31200000Y-31000000D02*
X31560000Y-31000000D01*
X30900000Y-30700000D02*
G75*
G03X31200000Y-31000000I300000J0D01*
G01*
X31860000Y-31300000D02*
X31860000Y-36800000D01*
X31860000Y-31300000D02*
G75*
G03X31560000Y-31000000I-300000J0D01*
G01*
X31560000Y-37100000D02*
X31200000Y-37100000D01*
X31560000Y-37100000D02*
G75*
G03X31860000Y-36800000I0J300000D01*
G01*
X31200000Y-37100000D02*
G75*
G03X30900000Y-37400000I0J-300000D01*
G01*
X30900000Y-15550000D02*
G75*
G03X29900000Y-14550000I-1000000J0D01*
G01*
X20400000Y-14550000D02*
G75*
G03X19400000Y-15550000I0J-1000000D01*
G01*
X19400000Y-38550000D02*
G75*
G03X20400000Y-39550000I1000000J0D01*
G01*
X29900000Y-39550000D02*
G75*
G03X30900000Y-38550000I0J1000000D01*
G01*
X20400000Y-39550000D02*
X29900000Y-39550000D01*
X29900000Y-14550000D02*
X20400000Y-14550000D01*
X30900000Y-30700000D02*
X30900000Y-22550000D01*
M02*
