G04 #@! TF.GenerationSoftware,KiCad,Pcbnew,(6.0.0-rc1-dev-1-g01c5bdfb8)*
G04 #@! TF.CreationDate,2019-02-19T09:48:00+01:00*
G04 #@! TF.ProjectId,PD-Injector,50442D496E6A6563746F722E6B696361,v1.2*
G04 #@! TF.SameCoordinates,Original*
G04 #@! TF.FileFunction,Copper,L1,Top,Signal*
G04 #@! TF.FilePolarity,Positive*
%FSLAX46Y46*%
G04 Gerber Fmt 4.6, Leading zero omitted, Abs format (unit mm)*
G04 Created by KiCad (PCBNEW (6.0.0-rc1-dev-1-g01c5bdfb8)) date Tue Feb 19 09:48:00 2019*
%MOMM*%
%LPD*%
G01*
G04 APERTURE LIST*
G04 #@! TA.AperFunction,NonConductor*
%ADD10C,0.150000*%
G04 #@! TD*
G04 #@! TA.AperFunction,Conductor*
%ADD11C,0.100000*%
G04 #@! TD*
G04 #@! TA.AperFunction,SMDPad,CuDef*
%ADD12C,0.590000*%
G04 #@! TD*
G04 #@! TA.AperFunction,SMDPad,CuDef*
%ADD13R,1.000000X0.340000*%
G04 #@! TD*
G04 #@! TA.AperFunction,SMDPad,CuDef*
%ADD14R,1.150000X0.700000*%
G04 #@! TD*
G04 #@! TA.AperFunction,SMDPad,CuDef*
%ADD15R,0.500000X0.500000*%
G04 #@! TD*
G04 #@! TA.AperFunction,ConnectorPad*
%ADD16R,1.830000X0.250000*%
G04 #@! TD*
G04 #@! TA.AperFunction,ConnectorPad*
%ADD17R,2.380000X0.250000*%
G04 #@! TD*
G04 #@! TA.AperFunction,ConnectorPad*
%ADD18R,2.030000X0.250000*%
G04 #@! TD*
G04 #@! TA.AperFunction,ComponentPad*
%ADD19C,6.400000*%
G04 #@! TD*
G04 #@! TA.AperFunction,ComponentPad*
%ADD20C,0.600000*%
G04 #@! TD*
G04 #@! TA.AperFunction,ViaPad*
%ADD21C,0.700000*%
G04 #@! TD*
G04 #@! TA.AperFunction,ViaPad*
%ADD22C,0.600000*%
G04 #@! TD*
G04 #@! TA.AperFunction,Conductor*
%ADD23C,0.250000*%
G04 #@! TD*
G04 #@! TA.AperFunction,Conductor*
%ADD24C,0.160000*%
G04 #@! TD*
G04 #@! TA.AperFunction,Conductor*
%ADD25C,0.254000*%
G04 #@! TD*
G04 #@! TA.AperFunction,Conductor*
%ADD26C,0.127000*%
G04 #@! TD*
G04 APERTURE END LIST*
D10*
X30900000Y-22550000D02*
X30900000Y-15500000D01*
X30900000Y-38550000D02*
X30900000Y-37400000D01*
X17700000Y-30700000D02*
G75*
G02X17450000Y-30950000I-250000J0D01*
G01*
X16450000Y-30950000D02*
G75*
G02X16200000Y-30700000I0J250000D01*
G01*
X16200000Y-37400000D02*
G75*
G02X16450000Y-37150000I250000J0D01*
G01*
X17450000Y-37150000D02*
G75*
G02X17700000Y-37400000I0J-250000D01*
G01*
X17450000Y-23150000D02*
G75*
G02X17700000Y-23400000I0J-250000D01*
G01*
X16200000Y-23400000D02*
G75*
G02X16450000Y-23150000I250000J0D01*
G01*
X16450000Y-16950000D02*
G75*
G02X16200000Y-16700000I0J250000D01*
G01*
X17700000Y-16700000D02*
G75*
G02X17450000Y-16950000I-250000J0D01*
G01*
X19400000Y-37400000D02*
X19400000Y-38550000D01*
X17700000Y-37400000D02*
X19400000Y-37400000D01*
X16450000Y-37150000D02*
X17450000Y-37150000D01*
X15700000Y-37400000D02*
X16200000Y-37400000D01*
X14950000Y-37100000D02*
X15700000Y-37400000D01*
X14950000Y-31000000D02*
X14950000Y-37100000D01*
X15700000Y-30700000D02*
X14950000Y-31000000D01*
X16200000Y-30700000D02*
X15700000Y-30700000D01*
X17450000Y-30950000D02*
X16450000Y-30950000D01*
X19400000Y-30700000D02*
X17700000Y-30700000D01*
X19400000Y-23400000D02*
X19400000Y-30700000D01*
X17700000Y-23400000D02*
X19400000Y-23400000D01*
X16450000Y-23150000D02*
X17450000Y-23150000D01*
X15700000Y-23400000D02*
X16200000Y-23400000D01*
X14950000Y-23100000D02*
X15700000Y-23400000D01*
X14950000Y-17000000D02*
X14950000Y-23100000D01*
X15700000Y-16700000D02*
X14950000Y-17000000D01*
X16200000Y-16700000D02*
X15700000Y-16700000D01*
X17450000Y-16950000D02*
X16450000Y-16950000D01*
X19400000Y-16700000D02*
X17700000Y-16700000D01*
X19400000Y-15550000D02*
X19400000Y-16700000D01*
X31200000Y-31000000D02*
X31560000Y-31000000D01*
X30900000Y-30700000D02*
G75*
G03X31200000Y-31000000I300000J0D01*
G01*
X31860000Y-31300000D02*
X31860000Y-36800000D01*
X31860000Y-31300000D02*
G75*
G03X31560000Y-31000000I-300000J0D01*
G01*
X31560000Y-37100000D02*
X31200000Y-37100000D01*
X31560000Y-37100000D02*
G75*
G03X31860000Y-36800000I0J300000D01*
G01*
X31200000Y-37100000D02*
G75*
G03X30900000Y-37400000I0J-300000D01*
G01*
X30900000Y-15550000D02*
G75*
G03X29900000Y-14550000I-1000000J0D01*
G01*
X20400000Y-14550000D02*
G75*
G03X19400000Y-15550000I0J-1000000D01*
G01*
X19400000Y-38550000D02*
G75*
G03X20400000Y-39550000I1000000J0D01*
G01*
X29900000Y-39550000D02*
G75*
G03X30900000Y-38550000I0J1000000D01*
G01*
X20400000Y-39550000D02*
X29900000Y-39550000D01*
X29900000Y-14550000D02*
X20400000Y-14550000D01*
X30900000Y-30700000D02*
X30900000Y-22550000D01*
D11*
G04 #@! TO.N,/CC2D*
G04 #@! TO.C,R2*
G36*
X22426958Y-34630710D02*
X22441276Y-34632834D01*
X22455317Y-34636351D01*
X22468946Y-34641228D01*
X22482031Y-34647417D01*
X22494447Y-34654858D01*
X22506073Y-34663481D01*
X22516798Y-34673202D01*
X22526519Y-34683927D01*
X22535142Y-34695553D01*
X22542583Y-34707969D01*
X22548772Y-34721054D01*
X22553649Y-34734683D01*
X22557166Y-34748724D01*
X22559290Y-34763042D01*
X22560000Y-34777500D01*
X22560000Y-35122500D01*
X22559290Y-35136958D01*
X22557166Y-35151276D01*
X22553649Y-35165317D01*
X22548772Y-35178946D01*
X22542583Y-35192031D01*
X22535142Y-35204447D01*
X22526519Y-35216073D01*
X22516798Y-35226798D01*
X22506073Y-35236519D01*
X22494447Y-35245142D01*
X22482031Y-35252583D01*
X22468946Y-35258772D01*
X22455317Y-35263649D01*
X22441276Y-35267166D01*
X22426958Y-35269290D01*
X22412500Y-35270000D01*
X22117500Y-35270000D01*
X22103042Y-35269290D01*
X22088724Y-35267166D01*
X22074683Y-35263649D01*
X22061054Y-35258772D01*
X22047969Y-35252583D01*
X22035553Y-35245142D01*
X22023927Y-35236519D01*
X22013202Y-35226798D01*
X22003481Y-35216073D01*
X21994858Y-35204447D01*
X21987417Y-35192031D01*
X21981228Y-35178946D01*
X21976351Y-35165317D01*
X21972834Y-35151276D01*
X21970710Y-35136958D01*
X21970000Y-35122500D01*
X21970000Y-34777500D01*
X21970710Y-34763042D01*
X21972834Y-34748724D01*
X21976351Y-34734683D01*
X21981228Y-34721054D01*
X21987417Y-34707969D01*
X21994858Y-34695553D01*
X22003481Y-34683927D01*
X22013202Y-34673202D01*
X22023927Y-34663481D01*
X22035553Y-34654858D01*
X22047969Y-34647417D01*
X22061054Y-34641228D01*
X22074683Y-34636351D01*
X22088724Y-34632834D01*
X22103042Y-34630710D01*
X22117500Y-34630000D01*
X22412500Y-34630000D01*
X22426958Y-34630710D01*
X22426958Y-34630710D01*
G37*
D12*
G04 #@! TD*
G04 #@! TO.P,R2,2*
G04 #@! TO.N,/CC2D*
X22265000Y-34950000D03*
D11*
G04 #@! TO.N,GND*
G04 #@! TO.C,R2*
G36*
X23396958Y-34630710D02*
X23411276Y-34632834D01*
X23425317Y-34636351D01*
X23438946Y-34641228D01*
X23452031Y-34647417D01*
X23464447Y-34654858D01*
X23476073Y-34663481D01*
X23486798Y-34673202D01*
X23496519Y-34683927D01*
X23505142Y-34695553D01*
X23512583Y-34707969D01*
X23518772Y-34721054D01*
X23523649Y-34734683D01*
X23527166Y-34748724D01*
X23529290Y-34763042D01*
X23530000Y-34777500D01*
X23530000Y-35122500D01*
X23529290Y-35136958D01*
X23527166Y-35151276D01*
X23523649Y-35165317D01*
X23518772Y-35178946D01*
X23512583Y-35192031D01*
X23505142Y-35204447D01*
X23496519Y-35216073D01*
X23486798Y-35226798D01*
X23476073Y-35236519D01*
X23464447Y-35245142D01*
X23452031Y-35252583D01*
X23438946Y-35258772D01*
X23425317Y-35263649D01*
X23411276Y-35267166D01*
X23396958Y-35269290D01*
X23382500Y-35270000D01*
X23087500Y-35270000D01*
X23073042Y-35269290D01*
X23058724Y-35267166D01*
X23044683Y-35263649D01*
X23031054Y-35258772D01*
X23017969Y-35252583D01*
X23005553Y-35245142D01*
X22993927Y-35236519D01*
X22983202Y-35226798D01*
X22973481Y-35216073D01*
X22964858Y-35204447D01*
X22957417Y-35192031D01*
X22951228Y-35178946D01*
X22946351Y-35165317D01*
X22942834Y-35151276D01*
X22940710Y-35136958D01*
X22940000Y-35122500D01*
X22940000Y-34777500D01*
X22940710Y-34763042D01*
X22942834Y-34748724D01*
X22946351Y-34734683D01*
X22951228Y-34721054D01*
X22957417Y-34707969D01*
X22964858Y-34695553D01*
X22973481Y-34683927D01*
X22983202Y-34673202D01*
X22993927Y-34663481D01*
X23005553Y-34654858D01*
X23017969Y-34647417D01*
X23031054Y-34641228D01*
X23044683Y-34636351D01*
X23058724Y-34632834D01*
X23073042Y-34630710D01*
X23087500Y-34630000D01*
X23382500Y-34630000D01*
X23396958Y-34630710D01*
X23396958Y-34630710D01*
G37*
D12*
G04 #@! TD*
G04 #@! TO.P,R2,1*
G04 #@! TO.N,GND*
X23235000Y-34950000D03*
D11*
G04 #@! TO.N,/CC1D*
G04 #@! TO.C,R1*
G36*
X22426958Y-32930710D02*
X22441276Y-32932834D01*
X22455317Y-32936351D01*
X22468946Y-32941228D01*
X22482031Y-32947417D01*
X22494447Y-32954858D01*
X22506073Y-32963481D01*
X22516798Y-32973202D01*
X22526519Y-32983927D01*
X22535142Y-32995553D01*
X22542583Y-33007969D01*
X22548772Y-33021054D01*
X22553649Y-33034683D01*
X22557166Y-33048724D01*
X22559290Y-33063042D01*
X22560000Y-33077500D01*
X22560000Y-33422500D01*
X22559290Y-33436958D01*
X22557166Y-33451276D01*
X22553649Y-33465317D01*
X22548772Y-33478946D01*
X22542583Y-33492031D01*
X22535142Y-33504447D01*
X22526519Y-33516073D01*
X22516798Y-33526798D01*
X22506073Y-33536519D01*
X22494447Y-33545142D01*
X22482031Y-33552583D01*
X22468946Y-33558772D01*
X22455317Y-33563649D01*
X22441276Y-33567166D01*
X22426958Y-33569290D01*
X22412500Y-33570000D01*
X22117500Y-33570000D01*
X22103042Y-33569290D01*
X22088724Y-33567166D01*
X22074683Y-33563649D01*
X22061054Y-33558772D01*
X22047969Y-33552583D01*
X22035553Y-33545142D01*
X22023927Y-33536519D01*
X22013202Y-33526798D01*
X22003481Y-33516073D01*
X21994858Y-33504447D01*
X21987417Y-33492031D01*
X21981228Y-33478946D01*
X21976351Y-33465317D01*
X21972834Y-33451276D01*
X21970710Y-33436958D01*
X21970000Y-33422500D01*
X21970000Y-33077500D01*
X21970710Y-33063042D01*
X21972834Y-33048724D01*
X21976351Y-33034683D01*
X21981228Y-33021054D01*
X21987417Y-33007969D01*
X21994858Y-32995553D01*
X22003481Y-32983927D01*
X22013202Y-32973202D01*
X22023927Y-32963481D01*
X22035553Y-32954858D01*
X22047969Y-32947417D01*
X22061054Y-32941228D01*
X22074683Y-32936351D01*
X22088724Y-32932834D01*
X22103042Y-32930710D01*
X22117500Y-32930000D01*
X22412500Y-32930000D01*
X22426958Y-32930710D01*
X22426958Y-32930710D01*
G37*
D12*
G04 #@! TD*
G04 #@! TO.P,R1,1*
G04 #@! TO.N,/CC1D*
X22265000Y-33250000D03*
D11*
G04 #@! TO.N,GND*
G04 #@! TO.C,R1*
G36*
X23396958Y-32930710D02*
X23411276Y-32932834D01*
X23425317Y-32936351D01*
X23438946Y-32941228D01*
X23452031Y-32947417D01*
X23464447Y-32954858D01*
X23476073Y-32963481D01*
X23486798Y-32973202D01*
X23496519Y-32983927D01*
X23505142Y-32995553D01*
X23512583Y-33007969D01*
X23518772Y-33021054D01*
X23523649Y-33034683D01*
X23527166Y-33048724D01*
X23529290Y-33063042D01*
X23530000Y-33077500D01*
X23530000Y-33422500D01*
X23529290Y-33436958D01*
X23527166Y-33451276D01*
X23523649Y-33465317D01*
X23518772Y-33478946D01*
X23512583Y-33492031D01*
X23505142Y-33504447D01*
X23496519Y-33516073D01*
X23486798Y-33526798D01*
X23476073Y-33536519D01*
X23464447Y-33545142D01*
X23452031Y-33552583D01*
X23438946Y-33558772D01*
X23425317Y-33563649D01*
X23411276Y-33567166D01*
X23396958Y-33569290D01*
X23382500Y-33570000D01*
X23087500Y-33570000D01*
X23073042Y-33569290D01*
X23058724Y-33567166D01*
X23044683Y-33563649D01*
X23031054Y-33558772D01*
X23017969Y-33552583D01*
X23005553Y-33545142D01*
X22993927Y-33536519D01*
X22983202Y-33526798D01*
X22973481Y-33516073D01*
X22964858Y-33504447D01*
X22957417Y-33492031D01*
X22951228Y-33478946D01*
X22946351Y-33465317D01*
X22942834Y-33451276D01*
X22940710Y-33436958D01*
X22940000Y-33422500D01*
X22940000Y-33077500D01*
X22940710Y-33063042D01*
X22942834Y-33048724D01*
X22946351Y-33034683D01*
X22951228Y-33021054D01*
X22957417Y-33007969D01*
X22964858Y-32995553D01*
X22973481Y-32983927D01*
X22983202Y-32973202D01*
X22993927Y-32963481D01*
X23005553Y-32954858D01*
X23017969Y-32947417D01*
X23031054Y-32941228D01*
X23044683Y-32936351D01*
X23058724Y-32932834D01*
X23073042Y-32930710D01*
X23087500Y-32930000D01*
X23382500Y-32930000D01*
X23396958Y-32930710D01*
X23396958Y-32930710D01*
G37*
D12*
G04 #@! TD*
G04 #@! TO.P,R1,2*
G04 #@! TO.N,GND*
X23235000Y-33250000D03*
D13*
G04 #@! TO.P,P1,A1*
G04 #@! TO.N,GND*
X30860000Y-31300000D03*
G04 #@! TO.P,P1,A2*
G04 #@! TO.N,/TX1+*
X30860000Y-31800000D03*
G04 #@! TO.P,P1,A3*
G04 #@! TO.N,/TX1-*
X30860000Y-32300000D03*
G04 #@! TO.P,P1,A4*
G04 #@! TO.N,VBUS*
X30860000Y-32800000D03*
G04 #@! TO.P,P1,A5*
G04 #@! TO.N,/CC1P*
X30860000Y-33300000D03*
G04 #@! TO.P,P1,A6*
G04 #@! TO.N,/D+*
X30860000Y-33800000D03*
G04 #@! TO.P,P1,A7*
G04 #@! TO.N,/D-*
X30860000Y-34300000D03*
G04 #@! TO.P,P1,A8*
G04 #@! TO.N,Net-(P1-PadA8)*
X30860000Y-34800000D03*
G04 #@! TO.P,P1,A9*
G04 #@! TO.N,VBUS*
X30860000Y-35300000D03*
G04 #@! TO.P,P1,A10*
G04 #@! TO.N,/RX2-*
X30860000Y-35800000D03*
G04 #@! TO.P,P1,A11*
G04 #@! TO.N,/RX2+*
X30860000Y-36300000D03*
G04 #@! TO.P,P1,A12*
G04 #@! TO.N,GND*
X30860000Y-36800000D03*
D14*
G04 #@! TO.P,P1,S1*
X30020000Y-30630000D03*
G04 #@! TD*
D15*
G04 #@! TO.P,J2,S1*
G04 #@! TO.N,GND*
X19650000Y-31300000D03*
D16*
G04 #@! TO.P,J2,A7*
G04 #@! TO.N,/D-*
X16865000Y-34300000D03*
G04 #@! TO.P,J2,A6*
G04 #@! TO.N,/D+*
X16865000Y-33800000D03*
G04 #@! TO.P,J2,A5*
G04 #@! TO.N,/CC1D*
X16865000Y-33300000D03*
G04 #@! TO.P,J2,A8*
G04 #@! TO.N,Net-(J2-PadA8)*
X16865000Y-34800000D03*
G04 #@! TO.P,J2,A3*
G04 #@! TO.N,/TX1-*
X16865000Y-32300000D03*
G04 #@! TO.P,J2,A2*
G04 #@! TO.N,/TX1+*
X16865000Y-31800000D03*
G04 #@! TO.P,J2,A10*
G04 #@! TO.N,/RX2-*
X16865000Y-35800000D03*
G04 #@! TO.P,J2,A11*
G04 #@! TO.N,/RX2+*
X16865000Y-36300000D03*
D17*
G04 #@! TO.P,J2,A1*
G04 #@! TO.N,GND*
X16590000Y-31300000D03*
D18*
G04 #@! TO.P,J2,A4*
G04 #@! TO.N,VBUS*
X16765000Y-32800000D03*
G04 #@! TO.P,J2,A9*
X16765000Y-35300000D03*
D15*
G04 #@! TO.P,J2,S1*
G04 #@! TO.N,GND*
X19650000Y-36800000D03*
D17*
G04 #@! TO.P,J2,A12*
X16590000Y-36800000D03*
G04 #@! TD*
G04 #@! TO.P,J1,A12*
G04 #@! TO.N,GND*
X16590000Y-22800000D03*
D15*
G04 #@! TO.P,J1,S1*
X19650000Y-22800000D03*
D18*
G04 #@! TO.P,J1,A9*
G04 #@! TO.N,VBUS*
X16765000Y-21300000D03*
G04 #@! TO.P,J1,A4*
X16765000Y-18800000D03*
D17*
G04 #@! TO.P,J1,A1*
G04 #@! TO.N,GND*
X16590000Y-17300000D03*
D16*
G04 #@! TO.P,J1,A11*
G04 #@! TO.N,Net-(J1-PadA11)*
X16865000Y-22300000D03*
G04 #@! TO.P,J1,A10*
G04 #@! TO.N,Net-(J1-PadA10)*
X16865000Y-21800000D03*
G04 #@! TO.P,J1,A2*
G04 #@! TO.N,Net-(J1-PadA2)*
X16865000Y-17800000D03*
G04 #@! TO.P,J1,A3*
G04 #@! TO.N,Net-(J1-PadA3)*
X16865000Y-18300000D03*
G04 #@! TO.P,J1,A8*
G04 #@! TO.N,Net-(J1-PadA8)*
X16865000Y-20800000D03*
G04 #@! TO.P,J1,A5*
G04 #@! TO.N,/CC1P*
X16865000Y-19300000D03*
G04 #@! TO.P,J1,A6*
G04 #@! TO.N,Net-(J1-PadA6)*
X16865000Y-19800000D03*
G04 #@! TO.P,J1,A7*
G04 #@! TO.N,Net-(J1-PadA7)*
X16865000Y-20300000D03*
D15*
G04 #@! TO.P,J1,S1*
G04 #@! TO.N,GND*
X19650000Y-17300000D03*
G04 #@! TD*
D19*
G04 #@! TO.P,MK1,1*
G04 #@! TO.N,GND*
X26950000Y-18500000D03*
D20*
G04 #@! TO.P,MK1,*
G04 #@! TO.N,*
X29350000Y-18500000D03*
X28647056Y-20197056D03*
X26950000Y-20900000D03*
X25252944Y-20197056D03*
X24550000Y-18500000D03*
X25252944Y-16802944D03*
X26950000Y-16100000D03*
X28647056Y-16802944D03*
G04 #@! TD*
D21*
G04 #@! TO.N,GND*
X20400000Y-23550000D03*
X20400000Y-23050000D03*
X20400000Y-22550000D03*
X20400000Y-17550000D03*
X20400000Y-17050000D03*
X20400000Y-16550000D03*
D22*
X28950000Y-37850000D03*
X28950000Y-38300000D03*
D21*
X20450000Y-37050000D03*
D22*
X21300000Y-32880000D03*
X23800038Y-34941338D03*
X28900000Y-29200000D03*
X29350000Y-29200000D03*
X29800000Y-29200000D03*
X30250000Y-29200000D03*
X28450000Y-29200000D03*
X28950000Y-36950000D03*
X28950000Y-37400000D03*
X25550000Y-36900000D03*
X25100000Y-36900000D03*
X24650000Y-36900000D03*
X24200000Y-36900000D03*
X23750000Y-36900000D03*
X21300000Y-29450000D03*
X20950000Y-29150000D03*
X20650000Y-28850000D03*
X20350000Y-28550000D03*
D21*
G04 #@! TO.N,VBUS*
X19900000Y-18800000D03*
X20400000Y-18800000D03*
X20900000Y-18800000D03*
X19900022Y-21300000D03*
X20400000Y-21300000D03*
X20900000Y-21300000D03*
D22*
X28450000Y-32850000D03*
X28900000Y-32850000D03*
X28000000Y-32850000D03*
X27550000Y-32850000D03*
X27192091Y-32657236D03*
X28500000Y-35250000D03*
X28050000Y-35250000D03*
X27600000Y-35250000D03*
X26700000Y-35250000D03*
X27150000Y-35250000D03*
G04 #@! TO.N,/D+*
X18950000Y-33600000D03*
G04 #@! TO.N,/D-*
X20749996Y-34500000D03*
G04 #@! TO.N,/CC1P*
X26390000Y-31950000D03*
X27550000Y-24800000D03*
G04 #@! TO.N,/CC2P*
X18649970Y-20300000D03*
X29659991Y-34685021D03*
X24939990Y-35130000D03*
X21100000Y-24300000D03*
G04 #@! TO.N,/CC2D*
X18850000Y-34850000D03*
G04 #@! TO.N,/RX1-*
X27874479Y-31100521D03*
X21000000Y-31400000D03*
G04 #@! TO.N,/RX1+*
X28475521Y-30499479D03*
X20352913Y-30970797D03*
G04 #@! TD*
D23*
G04 #@! TO.N,GND*
X16590000Y-22800000D02*
X20150000Y-22800000D01*
X16590000Y-17300000D02*
X20150000Y-17300000D01*
X16590000Y-31300000D02*
X19650000Y-31300000D01*
X16590000Y-36800000D02*
X19650000Y-36800000D01*
X20200000Y-36800000D02*
X20450000Y-37050000D01*
X19650000Y-36800000D02*
X20200000Y-36800000D01*
D24*
X23235000Y-33250000D02*
X22635001Y-32650001D01*
X21999253Y-32605011D02*
X22590011Y-32605011D01*
X21300000Y-32880000D02*
X21724264Y-32880000D01*
X22590011Y-32605011D02*
X22900832Y-32915832D01*
X22900832Y-32915832D02*
X23235000Y-33250000D01*
X21724264Y-32880000D02*
X21999253Y-32605011D01*
X20350000Y-30190000D02*
X20350000Y-28974264D01*
X19650000Y-31300000D02*
X19650000Y-30890000D01*
X19650000Y-30890000D02*
X20350000Y-30190000D01*
D23*
G04 #@! TO.N,VBUS*
X16765000Y-18800000D02*
X19900000Y-18800000D01*
X16765000Y-21300000D02*
X19900022Y-21300000D01*
D24*
G04 #@! TO.N,/D+*
X18282501Y-33845000D02*
X18237501Y-33800000D01*
X18237501Y-33800000D02*
X16865000Y-33800000D01*
X19450000Y-33845000D02*
X18282501Y-33845000D01*
X19150000Y-33800000D02*
X18950000Y-33600000D01*
X19450000Y-33845000D02*
X19195000Y-33845000D01*
X19195000Y-33845000D02*
X19150000Y-33800000D01*
X29032176Y-33845000D02*
X19450000Y-33845000D01*
X30860000Y-33800000D02*
X30172825Y-33800000D01*
X30127825Y-33845000D02*
X29032176Y-33845000D01*
X30172825Y-33800000D02*
X30127825Y-33845000D01*
G04 #@! TO.N,/D-*
X21000000Y-34255000D02*
X21000000Y-34300000D01*
X21000000Y-34300000D02*
X20750000Y-34550000D01*
X21099989Y-34155011D02*
X21000000Y-34255000D01*
X30860000Y-34300000D02*
X30200000Y-34300000D01*
X30055011Y-34155011D02*
X21099989Y-34155011D01*
X30200000Y-34300000D02*
X30055011Y-34155011D01*
X21000000Y-34255000D02*
X18282501Y-34255000D01*
X18282501Y-34255000D02*
X18237501Y-34300000D01*
X18237501Y-34300000D02*
X16865000Y-34300000D01*
G04 #@! TO.N,/CC1P*
X29088778Y-33349976D02*
X28938754Y-33500000D01*
X27245736Y-33500000D02*
X26390000Y-32644264D01*
X26390000Y-32644264D02*
X26390000Y-32374264D01*
X30200000Y-33300000D02*
X30150024Y-33349976D01*
X26390000Y-32374264D02*
X26390000Y-31950000D01*
X30860000Y-33300000D02*
X30200000Y-33300000D01*
X28938754Y-33500000D02*
X27245736Y-33500000D01*
X30150024Y-33349976D02*
X29088778Y-33349976D01*
X22611579Y-19861579D02*
X27250001Y-24500001D01*
X16865000Y-19300000D02*
X18650000Y-19300000D01*
X19211579Y-19861579D02*
X22611579Y-19861579D01*
X18650000Y-19300000D02*
X19211579Y-19861579D01*
X27250001Y-24500001D02*
X27550000Y-24800000D01*
G04 #@! TO.N,/CC2P*
X25384969Y-34685021D02*
X25239989Y-34830001D01*
X25239989Y-34830001D02*
X24939990Y-35130000D01*
X29659991Y-34685021D02*
X25384969Y-34685021D01*
X21399999Y-24000001D02*
X21100000Y-24300000D01*
X21700000Y-23700000D02*
X21399999Y-24000001D01*
X18649970Y-20300000D02*
X21450000Y-20300000D01*
X21700000Y-20550000D02*
X21700000Y-23700000D01*
X21450000Y-20300000D02*
X21700000Y-20550000D01*
G04 #@! TO.N,/CC1D*
X17940000Y-33300000D02*
X18440000Y-32800000D01*
X18440000Y-32800000D02*
X20191596Y-32800000D01*
X21884998Y-33530002D02*
X22265000Y-33150000D01*
X20191596Y-32800000D02*
X20921598Y-33530002D01*
X20921598Y-33530002D02*
X21884998Y-33530002D01*
X16865000Y-33300000D02*
X17940000Y-33300000D01*
G04 #@! TO.N,/CC2D*
X18850000Y-34900000D02*
X18850000Y-34850000D01*
X19050000Y-35100000D02*
X18850000Y-34900000D01*
X22265000Y-34950000D02*
X22115000Y-35100000D01*
X22115000Y-35100000D02*
X19050000Y-35100000D01*
G04 #@! TO.N,/TX1+*
X22389410Y-30995000D02*
X21404402Y-31980008D01*
X17940000Y-31800000D02*
X16865000Y-31800000D01*
X21404402Y-31980008D02*
X18120008Y-31980008D01*
X18120008Y-31980008D02*
X17940000Y-31800000D01*
X27688200Y-31800000D02*
X26883200Y-30995000D01*
X30860000Y-31800000D02*
X27688200Y-31800000D01*
X26883200Y-30995000D02*
X22389410Y-30995000D01*
G04 #@! TO.N,/TX1-*
X17940000Y-32300000D02*
X16865000Y-32300000D01*
X21522827Y-32300000D02*
X17940000Y-32300000D01*
X22472827Y-31350000D02*
X21522827Y-32300000D01*
X26634404Y-31350000D02*
X22472827Y-31350000D01*
X27549780Y-32100000D02*
X27384404Y-32100000D01*
X27384404Y-32100000D02*
X26634404Y-31350000D01*
X30760001Y-32200001D02*
X30175999Y-32200001D01*
X30860000Y-32300000D02*
X30760001Y-32200001D01*
X30129999Y-32154001D02*
X30129999Y-32110010D01*
X30129999Y-32110010D02*
X27559790Y-32110010D01*
X30175999Y-32200001D02*
X30129999Y-32154001D01*
X27559790Y-32110010D02*
X27549780Y-32100000D01*
G04 #@! TO.N,/RX2-*
X30200000Y-35800000D02*
X30860000Y-35800000D01*
X30050000Y-35950000D02*
X30200000Y-35800000D01*
X18307658Y-35950000D02*
X30050000Y-35950000D01*
X16865000Y-35800000D02*
X18157658Y-35800000D01*
X18157658Y-35800000D02*
X18307658Y-35950000D01*
G04 #@! TO.N,/RX2+*
X16865000Y-36300000D02*
X30200000Y-36300000D01*
X30200000Y-36300000D02*
X30860000Y-36300000D01*
G04 #@! TO.N,/RX1-*
X21299999Y-31100001D02*
X21000000Y-31400000D01*
X21299999Y-30800001D02*
X21299999Y-31100001D01*
X21470000Y-30630000D02*
X21299999Y-30800001D01*
X27874479Y-31100521D02*
X27403958Y-30630000D01*
X27403958Y-30630000D02*
X21470000Y-30630000D01*
G04 #@! TO.N,/RX1+*
X20929202Y-30670798D02*
X20652912Y-30670798D01*
X21350000Y-30250000D02*
X20929202Y-30670798D01*
X20652912Y-30670798D02*
X20352913Y-30970797D01*
X28475521Y-30499479D02*
X28226042Y-30250000D01*
X28226042Y-30250000D02*
X21350000Y-30250000D01*
G04 #@! TD*
D25*
G04 #@! TO.N,GND*
G36*
X30211341Y-36828894D02*
X30360000Y-36858464D01*
X30684781Y-36858464D01*
X30654285Y-36888961D01*
X30608718Y-36934528D01*
X30543686Y-37031854D01*
X30488069Y-37166126D01*
X30475598Y-37196234D01*
X30452762Y-37311039D01*
X30452762Y-37311047D01*
X30444001Y-37355091D01*
X30444000Y-38505088D01*
X30394337Y-38754761D01*
X30278349Y-38928349D01*
X30104761Y-39044337D01*
X29855089Y-39094000D01*
X20444911Y-39094000D01*
X20195239Y-39044337D01*
X20021651Y-38928349D01*
X19905663Y-38754761D01*
X19856000Y-38505089D01*
X19856000Y-37444909D01*
X19864933Y-37400000D01*
X19829542Y-37222078D01*
X19728757Y-37071243D01*
X19577922Y-36970458D01*
X19444909Y-36944000D01*
X19400000Y-36935067D01*
X19355091Y-36944000D01*
X17980045Y-36944000D01*
X17943022Y-36906978D01*
X17880118Y-36844073D01*
X17880117Y-36844072D01*
X17821849Y-36805140D01*
X17928659Y-36783894D01*
X17962923Y-36761000D01*
X30109730Y-36761000D01*
X30211341Y-36828894D01*
X30211341Y-36828894D01*
G37*
X30211341Y-36828894D02*
X30360000Y-36858464D01*
X30684781Y-36858464D01*
X30654285Y-36888961D01*
X30608718Y-36934528D01*
X30543686Y-37031854D01*
X30488069Y-37166126D01*
X30475598Y-37196234D01*
X30452762Y-37311039D01*
X30452762Y-37311047D01*
X30444001Y-37355091D01*
X30444000Y-38505088D01*
X30394337Y-38754761D01*
X30278349Y-38928349D01*
X30104761Y-39044337D01*
X29855089Y-39094000D01*
X20444911Y-39094000D01*
X20195239Y-39044337D01*
X20021651Y-38928349D01*
X19905663Y-38754761D01*
X19856000Y-38505089D01*
X19856000Y-37444909D01*
X19864933Y-37400000D01*
X19829542Y-37222078D01*
X19728757Y-37071243D01*
X19577922Y-36970458D01*
X19444909Y-36944000D01*
X19400000Y-36935067D01*
X19355091Y-36944000D01*
X17980045Y-36944000D01*
X17943022Y-36906978D01*
X17880118Y-36844073D01*
X17880117Y-36844072D01*
X17821849Y-36805140D01*
X17928659Y-36783894D01*
X17962923Y-36761000D01*
X30109730Y-36761000D01*
X30211341Y-36828894D01*
G36*
X24362666Y-34744244D02*
X24258990Y-34994541D01*
X24258990Y-35265459D01*
X24351583Y-35489000D01*
X22799826Y-35489000D01*
X22907666Y-35327605D01*
X22948464Y-35122500D01*
X22948464Y-34777500D01*
X22916342Y-34616011D01*
X24490899Y-34616011D01*
X24362666Y-34744244D01*
X24362666Y-34744244D01*
G37*
X24362666Y-34744244D02*
X24258990Y-34994541D01*
X24258990Y-35265459D01*
X24351583Y-35489000D01*
X22799826Y-35489000D01*
X22907666Y-35327605D01*
X22948464Y-35122500D01*
X22948464Y-34777500D01*
X22916342Y-34616011D01*
X24490899Y-34616011D01*
X24362666Y-34744244D01*
G36*
X25709000Y-31814541D02*
X25709000Y-32085459D01*
X25812676Y-32335756D01*
X25819000Y-32342080D01*
X25819000Y-33384000D01*
X22948464Y-33384000D01*
X22948464Y-33077500D01*
X22907666Y-32872395D01*
X22791484Y-32698516D01*
X22617605Y-32582334D01*
X22412500Y-32541536D01*
X22117500Y-32541536D01*
X21912395Y-32582334D01*
X21869438Y-32611037D01*
X21880908Y-32593872D01*
X22663780Y-31811000D01*
X25710467Y-31811000D01*
X25709000Y-31814541D01*
X25709000Y-31814541D01*
G37*
X25709000Y-31814541D02*
X25709000Y-32085459D01*
X25812676Y-32335756D01*
X25819000Y-32342080D01*
X25819000Y-33384000D01*
X22948464Y-33384000D01*
X22948464Y-33077500D01*
X22907666Y-32872395D01*
X22791484Y-32698516D01*
X22617605Y-32582334D01*
X22412500Y-32541536D01*
X22117500Y-32541536D01*
X21912395Y-32582334D01*
X21869438Y-32611037D01*
X21880908Y-32593872D01*
X22663780Y-31811000D01*
X25710467Y-31811000D01*
X25709000Y-31814541D01*
G36*
X21622334Y-32872395D02*
X21583226Y-33069002D01*
X21112550Y-33069002D01*
X20804548Y-32761000D01*
X21477430Y-32761000D01*
X21522827Y-32770030D01*
X21568224Y-32761000D01*
X21568229Y-32761000D01*
X21702700Y-32734252D01*
X21724267Y-32719842D01*
X21622334Y-32872395D01*
X21622334Y-32872395D01*
G37*
X21622334Y-32872395D02*
X21583226Y-33069002D01*
X21112550Y-33069002D01*
X20804548Y-32761000D01*
X21477430Y-32761000D01*
X21522827Y-32770030D01*
X21568224Y-32761000D01*
X21568229Y-32761000D01*
X21702700Y-32734252D01*
X21724267Y-32719842D01*
X21622334Y-32872395D01*
G36*
X19671913Y-31106256D02*
X19775589Y-31356553D01*
X19938044Y-31519008D01*
X18310960Y-31519008D01*
X18298081Y-31506129D01*
X18272362Y-31467638D01*
X18119873Y-31365748D01*
X17985402Y-31339000D01*
X17985397Y-31339000D01*
X17953396Y-31332635D01*
X17928659Y-31316106D01*
X17821849Y-31294860D01*
X17880116Y-31255928D01*
X17880118Y-31255927D01*
X17943022Y-31193022D01*
X17980045Y-31156000D01*
X19355091Y-31156000D01*
X19400000Y-31164933D01*
X19444909Y-31156000D01*
X19577922Y-31129542D01*
X19671913Y-31066739D01*
X19671913Y-31106256D01*
X19671913Y-31106256D01*
G37*
X19671913Y-31106256D02*
X19775589Y-31356553D01*
X19938044Y-31519008D01*
X18310960Y-31519008D01*
X18298081Y-31506129D01*
X18272362Y-31467638D01*
X18119873Y-31365748D01*
X17985402Y-31339000D01*
X17985397Y-31339000D01*
X17953396Y-31332635D01*
X17928659Y-31316106D01*
X17821849Y-31294860D01*
X17880116Y-31255928D01*
X17880118Y-31255927D01*
X17943022Y-31193022D01*
X17980045Y-31156000D01*
X19355091Y-31156000D01*
X19400000Y-31164933D01*
X19444909Y-31156000D01*
X19577922Y-31129542D01*
X19671913Y-31066739D01*
X19671913Y-31106256D01*
G36*
X30104761Y-15055663D02*
X30278349Y-15171651D01*
X30394337Y-15345239D01*
X30444001Y-15594916D01*
X30444000Y-22594908D01*
X30444001Y-22594913D01*
X30444000Y-30744908D01*
X30452762Y-30788957D01*
X30452762Y-30788961D01*
X30475598Y-30903766D01*
X30543686Y-31068146D01*
X30608716Y-31165470D01*
X30608717Y-31165471D01*
X30684781Y-31241536D01*
X30360000Y-31241536D01*
X30211341Y-31271106D01*
X30109730Y-31339000D01*
X28512807Y-31339000D01*
X28555479Y-31235980D01*
X28555479Y-31180479D01*
X28610980Y-31180479D01*
X28861277Y-31076803D01*
X29052845Y-30885235D01*
X29156521Y-30634938D01*
X29156521Y-30364020D01*
X29052845Y-30113723D01*
X28861277Y-29922155D01*
X28610980Y-29818479D01*
X28410002Y-29818479D01*
X28405915Y-29815748D01*
X28271444Y-29789000D01*
X28271439Y-29789000D01*
X28226042Y-29779970D01*
X28180645Y-29789000D01*
X21395396Y-29789000D01*
X21349999Y-29779970D01*
X21304602Y-29789000D01*
X21304598Y-29789000D01*
X21170127Y-29815748D01*
X21170125Y-29815749D01*
X21170126Y-29815749D01*
X21056127Y-29891920D01*
X21056126Y-29891921D01*
X21017638Y-29917638D01*
X20991921Y-29956126D01*
X20738250Y-30209798D01*
X20698314Y-30209798D01*
X20652912Y-30200767D01*
X20607510Y-30209798D01*
X20473039Y-30236546D01*
X20393343Y-30289797D01*
X20217454Y-30289797D01*
X19967157Y-30393473D01*
X19856000Y-30504630D01*
X19856000Y-23444909D01*
X19864933Y-23400000D01*
X19829542Y-23222078D01*
X19728757Y-23071243D01*
X19577922Y-22970458D01*
X19444909Y-22944000D01*
X19400000Y-22935067D01*
X19355091Y-22944000D01*
X17980045Y-22944000D01*
X17943022Y-22906978D01*
X17880118Y-22844073D01*
X17880117Y-22844072D01*
X17821849Y-22805140D01*
X17928659Y-22783894D01*
X18054686Y-22699686D01*
X18138894Y-22573659D01*
X18168464Y-22425000D01*
X18168464Y-22181000D01*
X21239001Y-22181000D01*
X21239001Y-23509047D01*
X21129048Y-23619000D01*
X20964541Y-23619000D01*
X20714244Y-23722676D01*
X20522676Y-23914244D01*
X20419000Y-24164541D01*
X20419000Y-24435459D01*
X20522676Y-24685756D01*
X20714244Y-24877324D01*
X20964541Y-24981000D01*
X21235459Y-24981000D01*
X21485756Y-24877324D01*
X21677324Y-24685756D01*
X21781000Y-24435459D01*
X21781000Y-24270952D01*
X21993871Y-24058081D01*
X22032362Y-24032362D01*
X22134252Y-23879873D01*
X22161000Y-23745402D01*
X22161000Y-23745398D01*
X22170030Y-23700001D01*
X22161000Y-23654604D01*
X22161000Y-20595396D01*
X22170030Y-20549999D01*
X22161000Y-20504602D01*
X22161000Y-20504598D01*
X22134252Y-20370127D01*
X22102481Y-20322579D01*
X22420627Y-20322579D01*
X26869000Y-24770953D01*
X26869000Y-24935459D01*
X26972676Y-25185756D01*
X27164244Y-25377324D01*
X27414541Y-25481000D01*
X27685459Y-25481000D01*
X27935756Y-25377324D01*
X28127324Y-25185756D01*
X28231000Y-24935459D01*
X28231000Y-24664541D01*
X28127324Y-24414244D01*
X27935756Y-24222676D01*
X27685459Y-24119000D01*
X27520953Y-24119000D01*
X23463550Y-20061597D01*
X24571944Y-20061597D01*
X24571944Y-20332515D01*
X24675620Y-20582812D01*
X24867188Y-20774380D01*
X25117485Y-20878056D01*
X25388403Y-20878056D01*
X25638700Y-20774380D01*
X25648539Y-20764541D01*
X26269000Y-20764541D01*
X26269000Y-21035459D01*
X26372676Y-21285756D01*
X26564244Y-21477324D01*
X26814541Y-21581000D01*
X27085459Y-21581000D01*
X27335756Y-21477324D01*
X27527324Y-21285756D01*
X27631000Y-21035459D01*
X27631000Y-20764541D01*
X27527324Y-20514244D01*
X27335756Y-20322676D01*
X27085459Y-20219000D01*
X26814541Y-20219000D01*
X26564244Y-20322676D01*
X26372676Y-20514244D01*
X26269000Y-20764541D01*
X25648539Y-20764541D01*
X25830268Y-20582812D01*
X25933944Y-20332515D01*
X25933944Y-20061597D01*
X27966056Y-20061597D01*
X27966056Y-20332515D01*
X28069732Y-20582812D01*
X28261300Y-20774380D01*
X28511597Y-20878056D01*
X28782515Y-20878056D01*
X29032812Y-20774380D01*
X29224380Y-20582812D01*
X29328056Y-20332515D01*
X29328056Y-20061597D01*
X29224380Y-19811300D01*
X29032812Y-19619732D01*
X28782515Y-19516056D01*
X28511597Y-19516056D01*
X28261300Y-19619732D01*
X28069732Y-19811300D01*
X27966056Y-20061597D01*
X25933944Y-20061597D01*
X25830268Y-19811300D01*
X25638700Y-19619732D01*
X25388403Y-19516056D01*
X25117485Y-19516056D01*
X24867188Y-19619732D01*
X24675620Y-19811300D01*
X24571944Y-20061597D01*
X23463550Y-20061597D01*
X22969659Y-19567707D01*
X22943941Y-19529217D01*
X22791452Y-19427327D01*
X22656981Y-19400579D01*
X22656976Y-19400579D01*
X22611579Y-19391549D01*
X22566182Y-19400579D01*
X21781000Y-19400579D01*
X21781000Y-18364541D01*
X23869000Y-18364541D01*
X23869000Y-18635459D01*
X23972676Y-18885756D01*
X24164244Y-19077324D01*
X24414541Y-19181000D01*
X24685459Y-19181000D01*
X24935756Y-19077324D01*
X25127324Y-18885756D01*
X25231000Y-18635459D01*
X25231000Y-18364541D01*
X28669000Y-18364541D01*
X28669000Y-18635459D01*
X28772676Y-18885756D01*
X28964244Y-19077324D01*
X29214541Y-19181000D01*
X29485459Y-19181000D01*
X29735756Y-19077324D01*
X29927324Y-18885756D01*
X30031000Y-18635459D01*
X30031000Y-18364541D01*
X29927324Y-18114244D01*
X29735756Y-17922676D01*
X29485459Y-17819000D01*
X29214541Y-17819000D01*
X28964244Y-17922676D01*
X28772676Y-18114244D01*
X28669000Y-18364541D01*
X25231000Y-18364541D01*
X25127324Y-18114244D01*
X24935756Y-17922676D01*
X24685459Y-17819000D01*
X24414541Y-17819000D01*
X24164244Y-17922676D01*
X23972676Y-18114244D01*
X23869000Y-18364541D01*
X21781000Y-18364541D01*
X21781000Y-18300000D01*
X21751998Y-18154198D01*
X21669408Y-18030592D01*
X21545802Y-17948002D01*
X21400000Y-17919000D01*
X18168464Y-17919000D01*
X18168464Y-17675000D01*
X18138894Y-17526341D01*
X18054686Y-17400314D01*
X17928659Y-17316106D01*
X17821849Y-17294860D01*
X17880116Y-17255928D01*
X17880118Y-17255927D01*
X17943022Y-17193022D01*
X17980045Y-17156000D01*
X19355091Y-17156000D01*
X19400000Y-17164933D01*
X19444909Y-17156000D01*
X19577922Y-17129542D01*
X19728757Y-17028757D01*
X19829542Y-16877922D01*
X19864933Y-16700000D01*
X19858466Y-16667485D01*
X24571944Y-16667485D01*
X24571944Y-16938403D01*
X24675620Y-17188700D01*
X24867188Y-17380268D01*
X25117485Y-17483944D01*
X25388403Y-17483944D01*
X25638700Y-17380268D01*
X25830268Y-17188700D01*
X25933944Y-16938403D01*
X25933944Y-16667485D01*
X25830268Y-16417188D01*
X25638700Y-16225620D01*
X25388403Y-16121944D01*
X25117485Y-16121944D01*
X24867188Y-16225620D01*
X24675620Y-16417188D01*
X24571944Y-16667485D01*
X19858466Y-16667485D01*
X19856000Y-16655091D01*
X19856000Y-15964541D01*
X26269000Y-15964541D01*
X26269000Y-16235459D01*
X26372676Y-16485756D01*
X26564244Y-16677324D01*
X26814541Y-16781000D01*
X27085459Y-16781000D01*
X27335756Y-16677324D01*
X27345595Y-16667485D01*
X27966056Y-16667485D01*
X27966056Y-16938403D01*
X28069732Y-17188700D01*
X28261300Y-17380268D01*
X28511597Y-17483944D01*
X28782515Y-17483944D01*
X29032812Y-17380268D01*
X29224380Y-17188700D01*
X29328056Y-16938403D01*
X29328056Y-16667485D01*
X29224380Y-16417188D01*
X29032812Y-16225620D01*
X28782515Y-16121944D01*
X28511597Y-16121944D01*
X28261300Y-16225620D01*
X28069732Y-16417188D01*
X27966056Y-16667485D01*
X27345595Y-16667485D01*
X27527324Y-16485756D01*
X27631000Y-16235459D01*
X27631000Y-15964541D01*
X27527324Y-15714244D01*
X27335756Y-15522676D01*
X27085459Y-15419000D01*
X26814541Y-15419000D01*
X26564244Y-15522676D01*
X26372676Y-15714244D01*
X26269000Y-15964541D01*
X19856000Y-15964541D01*
X19856000Y-15594911D01*
X19905663Y-15345239D01*
X20021651Y-15171651D01*
X20195239Y-15055663D01*
X20444911Y-15006000D01*
X29855089Y-15006000D01*
X30104761Y-15055663D01*
X30104761Y-15055663D01*
G37*
X30104761Y-15055663D02*
X30278349Y-15171651D01*
X30394337Y-15345239D01*
X30444001Y-15594916D01*
X30444000Y-22594908D01*
X30444001Y-22594913D01*
X30444000Y-30744908D01*
X30452762Y-30788957D01*
X30452762Y-30788961D01*
X30475598Y-30903766D01*
X30543686Y-31068146D01*
X30608716Y-31165470D01*
X30608717Y-31165471D01*
X30684781Y-31241536D01*
X30360000Y-31241536D01*
X30211341Y-31271106D01*
X30109730Y-31339000D01*
X28512807Y-31339000D01*
X28555479Y-31235980D01*
X28555479Y-31180479D01*
X28610980Y-31180479D01*
X28861277Y-31076803D01*
X29052845Y-30885235D01*
X29156521Y-30634938D01*
X29156521Y-30364020D01*
X29052845Y-30113723D01*
X28861277Y-29922155D01*
X28610980Y-29818479D01*
X28410002Y-29818479D01*
X28405915Y-29815748D01*
X28271444Y-29789000D01*
X28271439Y-29789000D01*
X28226042Y-29779970D01*
X28180645Y-29789000D01*
X21395396Y-29789000D01*
X21349999Y-29779970D01*
X21304602Y-29789000D01*
X21304598Y-29789000D01*
X21170127Y-29815748D01*
X21170125Y-29815749D01*
X21170126Y-29815749D01*
X21056127Y-29891920D01*
X21056126Y-29891921D01*
X21017638Y-29917638D01*
X20991921Y-29956126D01*
X20738250Y-30209798D01*
X20698314Y-30209798D01*
X20652912Y-30200767D01*
X20607510Y-30209798D01*
X20473039Y-30236546D01*
X20393343Y-30289797D01*
X20217454Y-30289797D01*
X19967157Y-30393473D01*
X19856000Y-30504630D01*
X19856000Y-23444909D01*
X19864933Y-23400000D01*
X19829542Y-23222078D01*
X19728757Y-23071243D01*
X19577922Y-22970458D01*
X19444909Y-22944000D01*
X19400000Y-22935067D01*
X19355091Y-22944000D01*
X17980045Y-22944000D01*
X17943022Y-22906978D01*
X17880118Y-22844073D01*
X17880117Y-22844072D01*
X17821849Y-22805140D01*
X17928659Y-22783894D01*
X18054686Y-22699686D01*
X18138894Y-22573659D01*
X18168464Y-22425000D01*
X18168464Y-22181000D01*
X21239001Y-22181000D01*
X21239001Y-23509047D01*
X21129048Y-23619000D01*
X20964541Y-23619000D01*
X20714244Y-23722676D01*
X20522676Y-23914244D01*
X20419000Y-24164541D01*
X20419000Y-24435459D01*
X20522676Y-24685756D01*
X20714244Y-24877324D01*
X20964541Y-24981000D01*
X21235459Y-24981000D01*
X21485756Y-24877324D01*
X21677324Y-24685756D01*
X21781000Y-24435459D01*
X21781000Y-24270952D01*
X21993871Y-24058081D01*
X22032362Y-24032362D01*
X22134252Y-23879873D01*
X22161000Y-23745402D01*
X22161000Y-23745398D01*
X22170030Y-23700001D01*
X22161000Y-23654604D01*
X22161000Y-20595396D01*
X22170030Y-20549999D01*
X22161000Y-20504602D01*
X22161000Y-20504598D01*
X22134252Y-20370127D01*
X22102481Y-20322579D01*
X22420627Y-20322579D01*
X26869000Y-24770953D01*
X26869000Y-24935459D01*
X26972676Y-25185756D01*
X27164244Y-25377324D01*
X27414541Y-25481000D01*
X27685459Y-25481000D01*
X27935756Y-25377324D01*
X28127324Y-25185756D01*
X28231000Y-24935459D01*
X28231000Y-24664541D01*
X28127324Y-24414244D01*
X27935756Y-24222676D01*
X27685459Y-24119000D01*
X27520953Y-24119000D01*
X23463550Y-20061597D01*
X24571944Y-20061597D01*
X24571944Y-20332515D01*
X24675620Y-20582812D01*
X24867188Y-20774380D01*
X25117485Y-20878056D01*
X25388403Y-20878056D01*
X25638700Y-20774380D01*
X25648539Y-20764541D01*
X26269000Y-20764541D01*
X26269000Y-21035459D01*
X26372676Y-21285756D01*
X26564244Y-21477324D01*
X26814541Y-21581000D01*
X27085459Y-21581000D01*
X27335756Y-21477324D01*
X27527324Y-21285756D01*
X27631000Y-21035459D01*
X27631000Y-20764541D01*
X27527324Y-20514244D01*
X27335756Y-20322676D01*
X27085459Y-20219000D01*
X26814541Y-20219000D01*
X26564244Y-20322676D01*
X26372676Y-20514244D01*
X26269000Y-20764541D01*
X25648539Y-20764541D01*
X25830268Y-20582812D01*
X25933944Y-20332515D01*
X25933944Y-20061597D01*
X27966056Y-20061597D01*
X27966056Y-20332515D01*
X28069732Y-20582812D01*
X28261300Y-20774380D01*
X28511597Y-20878056D01*
X28782515Y-20878056D01*
X29032812Y-20774380D01*
X29224380Y-20582812D01*
X29328056Y-20332515D01*
X29328056Y-20061597D01*
X29224380Y-19811300D01*
X29032812Y-19619732D01*
X28782515Y-19516056D01*
X28511597Y-19516056D01*
X28261300Y-19619732D01*
X28069732Y-19811300D01*
X27966056Y-20061597D01*
X25933944Y-20061597D01*
X25830268Y-19811300D01*
X25638700Y-19619732D01*
X25388403Y-19516056D01*
X25117485Y-19516056D01*
X24867188Y-19619732D01*
X24675620Y-19811300D01*
X24571944Y-20061597D01*
X23463550Y-20061597D01*
X22969659Y-19567707D01*
X22943941Y-19529217D01*
X22791452Y-19427327D01*
X22656981Y-19400579D01*
X22656976Y-19400579D01*
X22611579Y-19391549D01*
X22566182Y-19400579D01*
X21781000Y-19400579D01*
X21781000Y-18364541D01*
X23869000Y-18364541D01*
X23869000Y-18635459D01*
X23972676Y-18885756D01*
X24164244Y-19077324D01*
X24414541Y-19181000D01*
X24685459Y-19181000D01*
X24935756Y-19077324D01*
X25127324Y-18885756D01*
X25231000Y-18635459D01*
X25231000Y-18364541D01*
X28669000Y-18364541D01*
X28669000Y-18635459D01*
X28772676Y-18885756D01*
X28964244Y-19077324D01*
X29214541Y-19181000D01*
X29485459Y-19181000D01*
X29735756Y-19077324D01*
X29927324Y-18885756D01*
X30031000Y-18635459D01*
X30031000Y-18364541D01*
X29927324Y-18114244D01*
X29735756Y-17922676D01*
X29485459Y-17819000D01*
X29214541Y-17819000D01*
X28964244Y-17922676D01*
X28772676Y-18114244D01*
X28669000Y-18364541D01*
X25231000Y-18364541D01*
X25127324Y-18114244D01*
X24935756Y-17922676D01*
X24685459Y-17819000D01*
X24414541Y-17819000D01*
X24164244Y-17922676D01*
X23972676Y-18114244D01*
X23869000Y-18364541D01*
X21781000Y-18364541D01*
X21781000Y-18300000D01*
X21751998Y-18154198D01*
X21669408Y-18030592D01*
X21545802Y-17948002D01*
X21400000Y-17919000D01*
X18168464Y-17919000D01*
X18168464Y-17675000D01*
X18138894Y-17526341D01*
X18054686Y-17400314D01*
X17928659Y-17316106D01*
X17821849Y-17294860D01*
X17880116Y-17255928D01*
X17880118Y-17255927D01*
X17943022Y-17193022D01*
X17980045Y-17156000D01*
X19355091Y-17156000D01*
X19400000Y-17164933D01*
X19444909Y-17156000D01*
X19577922Y-17129542D01*
X19728757Y-17028757D01*
X19829542Y-16877922D01*
X19864933Y-16700000D01*
X19858466Y-16667485D01*
X24571944Y-16667485D01*
X24571944Y-16938403D01*
X24675620Y-17188700D01*
X24867188Y-17380268D01*
X25117485Y-17483944D01*
X25388403Y-17483944D01*
X25638700Y-17380268D01*
X25830268Y-17188700D01*
X25933944Y-16938403D01*
X25933944Y-16667485D01*
X25830268Y-16417188D01*
X25638700Y-16225620D01*
X25388403Y-16121944D01*
X25117485Y-16121944D01*
X24867188Y-16225620D01*
X24675620Y-16417188D01*
X24571944Y-16667485D01*
X19858466Y-16667485D01*
X19856000Y-16655091D01*
X19856000Y-15964541D01*
X26269000Y-15964541D01*
X26269000Y-16235459D01*
X26372676Y-16485756D01*
X26564244Y-16677324D01*
X26814541Y-16781000D01*
X27085459Y-16781000D01*
X27335756Y-16677324D01*
X27345595Y-16667485D01*
X27966056Y-16667485D01*
X27966056Y-16938403D01*
X28069732Y-17188700D01*
X28261300Y-17380268D01*
X28511597Y-17483944D01*
X28782515Y-17483944D01*
X29032812Y-17380268D01*
X29224380Y-17188700D01*
X29328056Y-16938403D01*
X29328056Y-16667485D01*
X29224380Y-16417188D01*
X29032812Y-16225620D01*
X28782515Y-16121944D01*
X28511597Y-16121944D01*
X28261300Y-16225620D01*
X28069732Y-16417188D01*
X27966056Y-16667485D01*
X27345595Y-16667485D01*
X27527324Y-16485756D01*
X27631000Y-16235459D01*
X27631000Y-15964541D01*
X27527324Y-15714244D01*
X27335756Y-15522676D01*
X27085459Y-15419000D01*
X26814541Y-15419000D01*
X26564244Y-15522676D01*
X26372676Y-15714244D01*
X26269000Y-15964541D01*
X19856000Y-15964541D01*
X19856000Y-15594911D01*
X19905663Y-15345239D01*
X20021651Y-15171651D01*
X20195239Y-15055663D01*
X20444911Y-15006000D01*
X29855089Y-15006000D01*
X30104761Y-15055663D01*
G04 #@! TO.N,VBUS*
G36*
X21239000Y-21673000D02*
X18168066Y-21673000D01*
X18138894Y-21526341D01*
X18054686Y-21400314D01*
X17928659Y-21316106D01*
X17847688Y-21300000D01*
X17928659Y-21283894D01*
X18054686Y-21199686D01*
X18138894Y-21073659D01*
X18168464Y-20925000D01*
X18168464Y-20781574D01*
X18264214Y-20877324D01*
X18514511Y-20981000D01*
X18785429Y-20981000D01*
X19035726Y-20877324D01*
X19152050Y-20761000D01*
X21239000Y-20761000D01*
X21239000Y-21673000D01*
X21239000Y-21673000D01*
G37*
X21239000Y-21673000D02*
X18168066Y-21673000D01*
X18138894Y-21526341D01*
X18054686Y-21400314D01*
X17928659Y-21316106D01*
X17847688Y-21300000D01*
X17928659Y-21283894D01*
X18054686Y-21199686D01*
X18138894Y-21073659D01*
X18168464Y-20925000D01*
X18168464Y-20781574D01*
X18264214Y-20877324D01*
X18514511Y-20981000D01*
X18785429Y-20981000D01*
X19035726Y-20877324D01*
X19152050Y-20761000D01*
X21239000Y-20761000D01*
X21239000Y-21673000D01*
G36*
X21273000Y-19400579D02*
X19402531Y-19400579D01*
X19008081Y-19006129D01*
X18982362Y-18967638D01*
X18829873Y-18865748D01*
X18695402Y-18839000D01*
X18695397Y-18839000D01*
X18650000Y-18829970D01*
X18604603Y-18839000D01*
X17962923Y-18839000D01*
X17928659Y-18816106D01*
X17847688Y-18800000D01*
X17928659Y-18783894D01*
X18054686Y-18699686D01*
X18138894Y-18573659D01*
X18168066Y-18427000D01*
X21273000Y-18427000D01*
X21273000Y-19400579D01*
X21273000Y-19400579D01*
G37*
X21273000Y-19400579D02*
X19402531Y-19400579D01*
X19008081Y-19006129D01*
X18982362Y-18967638D01*
X18829873Y-18865748D01*
X18695402Y-18839000D01*
X18695397Y-18839000D01*
X18650000Y-18829970D01*
X18604603Y-18839000D01*
X17962923Y-18839000D01*
X17928659Y-18816106D01*
X17847688Y-18800000D01*
X17928659Y-18783894D01*
X18054686Y-18699686D01*
X18138894Y-18573659D01*
X18168066Y-18427000D01*
X21273000Y-18427000D01*
X21273000Y-19400579D01*
D26*
G36*
X30145467Y-34970000D02*
X30149589Y-35011853D01*
X30161797Y-35052098D01*
X30181622Y-35089188D01*
X30208302Y-35121698D01*
X30240812Y-35148378D01*
X30277902Y-35168203D01*
X30318147Y-35180411D01*
X30360000Y-35184533D01*
X31360000Y-35184533D01*
X31401853Y-35180411D01*
X31442098Y-35168203D01*
X31479188Y-35148378D01*
X31486500Y-35142377D01*
X31486500Y-35457623D01*
X31479188Y-35451622D01*
X31442098Y-35431797D01*
X31401853Y-35419589D01*
X31360000Y-35415467D01*
X30360000Y-35415467D01*
X30318147Y-35419589D01*
X30277902Y-35431797D01*
X30240812Y-35451622D01*
X30208302Y-35478302D01*
X30185124Y-35506545D01*
X30142464Y-35510747D01*
X30087139Y-35527529D01*
X30036151Y-35554783D01*
X29991460Y-35591460D01*
X29982266Y-35602663D01*
X29928429Y-35656500D01*
X26263500Y-35656500D01*
X26263500Y-34978521D01*
X29238520Y-34978521D01*
X29261129Y-35012358D01*
X29332654Y-35083883D01*
X29416757Y-35140079D01*
X29510208Y-35178788D01*
X29609416Y-35198521D01*
X29710566Y-35198521D01*
X29809774Y-35178788D01*
X29903225Y-35140079D01*
X29987328Y-35083883D01*
X30058853Y-35012358D01*
X30115049Y-34928255D01*
X30145467Y-34854820D01*
X30145467Y-34970000D01*
X30145467Y-34970000D01*
G37*
X30145467Y-34970000D02*
X30149589Y-35011853D01*
X30161797Y-35052098D01*
X30181622Y-35089188D01*
X30208302Y-35121698D01*
X30240812Y-35148378D01*
X30277902Y-35168203D01*
X30318147Y-35180411D01*
X30360000Y-35184533D01*
X31360000Y-35184533D01*
X31401853Y-35180411D01*
X31442098Y-35168203D01*
X31479188Y-35148378D01*
X31486500Y-35142377D01*
X31486500Y-35457623D01*
X31479188Y-35451622D01*
X31442098Y-35431797D01*
X31401853Y-35419589D01*
X31360000Y-35415467D01*
X30360000Y-35415467D01*
X30318147Y-35419589D01*
X30277902Y-35431797D01*
X30240812Y-35451622D01*
X30208302Y-35478302D01*
X30185124Y-35506545D01*
X30142464Y-35510747D01*
X30087139Y-35527529D01*
X30036151Y-35554783D01*
X29991460Y-35591460D01*
X29982266Y-35602663D01*
X29928429Y-35656500D01*
X26263500Y-35656500D01*
X26263500Y-34978521D01*
X29238520Y-34978521D01*
X29261129Y-35012358D01*
X29332654Y-35083883D01*
X29416757Y-35140079D01*
X29510208Y-35178788D01*
X29609416Y-35198521D01*
X29710566Y-35198521D01*
X29809774Y-35178788D01*
X29903225Y-35140079D01*
X29987328Y-35083883D01*
X30058853Y-35012358D01*
X30115049Y-34928255D01*
X30145467Y-34854820D01*
X30145467Y-34970000D01*
G36*
X27271543Y-32372471D02*
X27326868Y-32389253D01*
X27369987Y-32393500D01*
X27369994Y-32393500D01*
X27384403Y-32394919D01*
X27398812Y-32393500D01*
X27483255Y-32393500D01*
X27502254Y-32399263D01*
X27545373Y-32403510D01*
X27545380Y-32403510D01*
X27559789Y-32404929D01*
X27574198Y-32403510D01*
X29963330Y-32403510D01*
X29967459Y-32408541D01*
X30012150Y-32445218D01*
X30063138Y-32472472D01*
X30118463Y-32489254D01*
X30147646Y-32492128D01*
X30149589Y-32511853D01*
X30161797Y-32552098D01*
X30181622Y-32589188D01*
X30208302Y-32621698D01*
X30240812Y-32648378D01*
X30277902Y-32668203D01*
X30318147Y-32680411D01*
X30360000Y-32684533D01*
X31360000Y-32684533D01*
X31401853Y-32680411D01*
X31442098Y-32668203D01*
X31479188Y-32648378D01*
X31486500Y-32642377D01*
X31486500Y-32957623D01*
X31479188Y-32951622D01*
X31442098Y-32931797D01*
X31401853Y-32919589D01*
X31360000Y-32915467D01*
X30360000Y-32915467D01*
X30318147Y-32919589D01*
X30277902Y-32931797D01*
X30240812Y-32951622D01*
X30208302Y-32978302D01*
X30185124Y-33006545D01*
X30142464Y-33010747D01*
X30087139Y-33027529D01*
X30036151Y-33054783D01*
X30034088Y-33056476D01*
X29103195Y-33056476D01*
X29088778Y-33055056D01*
X29074361Y-33056476D01*
X29031242Y-33060723D01*
X28975917Y-33077505D01*
X28924929Y-33104759D01*
X28880238Y-33141436D01*
X28871044Y-33152639D01*
X28817183Y-33206500D01*
X27367307Y-33206500D01*
X26683500Y-32522693D01*
X26683500Y-32371471D01*
X26695430Y-32363500D01*
X27254760Y-32363500D01*
X27271543Y-32372471D01*
X27271543Y-32372471D01*
G37*
X27271543Y-32372471D02*
X27326868Y-32389253D01*
X27369987Y-32393500D01*
X27369994Y-32393500D01*
X27384403Y-32394919D01*
X27398812Y-32393500D01*
X27483255Y-32393500D01*
X27502254Y-32399263D01*
X27545373Y-32403510D01*
X27545380Y-32403510D01*
X27559789Y-32404929D01*
X27574198Y-32403510D01*
X29963330Y-32403510D01*
X29967459Y-32408541D01*
X30012150Y-32445218D01*
X30063138Y-32472472D01*
X30118463Y-32489254D01*
X30147646Y-32492128D01*
X30149589Y-32511853D01*
X30161797Y-32552098D01*
X30181622Y-32589188D01*
X30208302Y-32621698D01*
X30240812Y-32648378D01*
X30277902Y-32668203D01*
X30318147Y-32680411D01*
X30360000Y-32684533D01*
X31360000Y-32684533D01*
X31401853Y-32680411D01*
X31442098Y-32668203D01*
X31479188Y-32648378D01*
X31486500Y-32642377D01*
X31486500Y-32957623D01*
X31479188Y-32951622D01*
X31442098Y-32931797D01*
X31401853Y-32919589D01*
X31360000Y-32915467D01*
X30360000Y-32915467D01*
X30318147Y-32919589D01*
X30277902Y-32931797D01*
X30240812Y-32951622D01*
X30208302Y-32978302D01*
X30185124Y-33006545D01*
X30142464Y-33010747D01*
X30087139Y-33027529D01*
X30036151Y-33054783D01*
X30034088Y-33056476D01*
X29103195Y-33056476D01*
X29088778Y-33055056D01*
X29074361Y-33056476D01*
X29031242Y-33060723D01*
X28975917Y-33077505D01*
X28924929Y-33104759D01*
X28880238Y-33141436D01*
X28871044Y-33152639D01*
X28817183Y-33206500D01*
X27367307Y-33206500D01*
X26683500Y-32522693D01*
X26683500Y-32371471D01*
X26695430Y-32363500D01*
X27254760Y-32363500D01*
X27271543Y-32372471D01*
G04 #@! TD*
M02*
