G04 #@! TF.GenerationSoftware,KiCad,Pcbnew,5.0.1*
G04 #@! TF.CreationDate,2018-12-03T20:07:42+01:00*
G04 #@! TF.ProjectId,pd-buddy-wye,70642D62756464792D7779652E6B6963,v1.2*
G04 #@! TF.SameCoordinates,Original*
G04 #@! TF.FileFunction,Paste,Bot*
G04 #@! TF.FilePolarity,Positive*
%FSLAX46Y46*%
G04 Gerber Fmt 4.6, Leading zero omitted, Abs format (unit mm)*
G04 Created by KiCad (PCBNEW 5.0.1) date Mo 03 Dez 2018 20:07:42 CET*
%MOMM*%
%LPD*%
G01*
G04 APERTURE LIST*
%ADD10C,0.150000*%
%ADD11R,1.150000X0.700000*%
%ADD12R,1.000000X0.340000*%
%ADD13R,0.500000X0.500000*%
G04 APERTURE END LIST*
D10*
X30900000Y-22550000D02*
X30900000Y-15500000D01*
X30900000Y-38550000D02*
X30900000Y-37400000D01*
X17700000Y-30700000D02*
G75*
G02X17450000Y-30950000I-250000J0D01*
G01*
X16450000Y-30950000D02*
G75*
G02X16200000Y-30700000I0J250000D01*
G01*
X16200000Y-37400000D02*
G75*
G02X16450000Y-37150000I250000J0D01*
G01*
X17450000Y-37150000D02*
G75*
G02X17700000Y-37400000I0J-250000D01*
G01*
X17450000Y-23150000D02*
G75*
G02X17700000Y-23400000I0J-250000D01*
G01*
X16200000Y-23400000D02*
G75*
G02X16450000Y-23150000I250000J0D01*
G01*
X16450000Y-16950000D02*
G75*
G02X16200000Y-16700000I0J250000D01*
G01*
X17700000Y-16700000D02*
G75*
G02X17450000Y-16950000I-250000J0D01*
G01*
X19400000Y-37400000D02*
X19400000Y-38550000D01*
X17700000Y-37400000D02*
X19400000Y-37400000D01*
X16450000Y-37150000D02*
X17450000Y-37150000D01*
X15700000Y-37400000D02*
X16200000Y-37400000D01*
X14950000Y-37100000D02*
X15700000Y-37400000D01*
X14950000Y-31000000D02*
X14950000Y-37100000D01*
X15700000Y-30700000D02*
X14950000Y-31000000D01*
X16200000Y-30700000D02*
X15700000Y-30700000D01*
X17450000Y-30950000D02*
X16450000Y-30950000D01*
X19400000Y-30700000D02*
X17700000Y-30700000D01*
X19400000Y-23400000D02*
X19400000Y-30700000D01*
X17700000Y-23400000D02*
X19400000Y-23400000D01*
X16450000Y-23150000D02*
X17450000Y-23150000D01*
X15700000Y-23400000D02*
X16200000Y-23400000D01*
X14950000Y-23100000D02*
X15700000Y-23400000D01*
X14950000Y-17000000D02*
X14950000Y-23100000D01*
X15700000Y-16700000D02*
X14950000Y-17000000D01*
X16200000Y-16700000D02*
X15700000Y-16700000D01*
X17450000Y-16950000D02*
X16450000Y-16950000D01*
X19400000Y-16700000D02*
X17700000Y-16700000D01*
X19400000Y-15550000D02*
X19400000Y-16700000D01*
X31200000Y-31000000D02*
X31560000Y-31000000D01*
X30900000Y-30700000D02*
G75*
G03X31200000Y-31000000I300000J0D01*
G01*
X31860000Y-31300000D02*
X31860000Y-36800000D01*
X31860000Y-31300000D02*
G75*
G03X31560000Y-31000000I-300000J0D01*
G01*
X31560000Y-37100000D02*
X31200000Y-37100000D01*
X31560000Y-37100000D02*
G75*
G03X31860000Y-36800000I0J300000D01*
G01*
X31200000Y-37100000D02*
G75*
G03X30900000Y-37400000I0J-300000D01*
G01*
X30900000Y-15550000D02*
G75*
G03X29900000Y-14550000I-1000000J0D01*
G01*
X20400000Y-14550000D02*
G75*
G03X19400000Y-15550000I0J-1000000D01*
G01*
X19400000Y-38550000D02*
G75*
G03X20400000Y-39550000I1000000J0D01*
G01*
X29900000Y-39550000D02*
G75*
G03X30900000Y-38550000I0J1000000D01*
G01*
X20400000Y-39550000D02*
X29900000Y-39550000D01*
X29900000Y-14550000D02*
X20400000Y-14550000D01*
X30900000Y-30700000D02*
X30900000Y-22550000D01*
D11*
G04 #@! TO.C,P1*
X30020000Y-37470000D03*
D12*
X30860000Y-36800000D03*
X30860000Y-36300000D03*
X30860000Y-35800000D03*
X30860000Y-35300000D03*
X30860000Y-34800000D03*
X30860000Y-33300000D03*
X30860000Y-32800000D03*
X30860000Y-32300000D03*
X30860000Y-31800000D03*
X30860000Y-31300000D03*
G04 #@! TD*
D13*
G04 #@! TO.C,J2*
X19650000Y-31300000D03*
X19650000Y-36800000D03*
G04 #@! TD*
G04 #@! TO.C,J1*
X19650000Y-22800000D03*
X19650000Y-17300000D03*
G04 #@! TD*
M02*
