G04 #@! TF.GenerationSoftware,KiCad,Pcbnew,(6.0.0-rc1-dev-1-g01c5bdfb8)*
G04 #@! TF.CreationDate,2019-02-19T09:48:00+01:00*
G04 #@! TF.ProjectId,PD-Injector,50442D496E6A6563746F722E6B696361,v1.2*
G04 #@! TF.SameCoordinates,Original*
G04 #@! TF.FileFunction,Paste,Top*
G04 #@! TF.FilePolarity,Positive*
%FSLAX46Y46*%
G04 Gerber Fmt 4.6, Leading zero omitted, Abs format (unit mm)*
G04 Created by KiCad (PCBNEW (6.0.0-rc1-dev-1-g01c5bdfb8)) date Tue Feb 19 09:48:00 2019*
%MOMM*%
%LPD*%
G01*
G04 APERTURE LIST*
%ADD10C,0.150000*%
%ADD11C,0.100000*%
%ADD12C,0.590000*%
%ADD13R,1.000000X0.340000*%
%ADD14R,1.150000X0.700000*%
%ADD15R,0.500000X0.500000*%
G04 APERTURE END LIST*
D10*
X30900000Y-22550000D02*
X30900000Y-15500000D01*
X30900000Y-38550000D02*
X30900000Y-37400000D01*
X17700000Y-30700000D02*
G75*
G02X17450000Y-30950000I-250000J0D01*
G01*
X16450000Y-30950000D02*
G75*
G02X16200000Y-30700000I0J250000D01*
G01*
X16200000Y-37400000D02*
G75*
G02X16450000Y-37150000I250000J0D01*
G01*
X17450000Y-37150000D02*
G75*
G02X17700000Y-37400000I0J-250000D01*
G01*
X17450000Y-23150000D02*
G75*
G02X17700000Y-23400000I0J-250000D01*
G01*
X16200000Y-23400000D02*
G75*
G02X16450000Y-23150000I250000J0D01*
G01*
X16450000Y-16950000D02*
G75*
G02X16200000Y-16700000I0J250000D01*
G01*
X17700000Y-16700000D02*
G75*
G02X17450000Y-16950000I-250000J0D01*
G01*
X19400000Y-37400000D02*
X19400000Y-38550000D01*
X17700000Y-37400000D02*
X19400000Y-37400000D01*
X16450000Y-37150000D02*
X17450000Y-37150000D01*
X15700000Y-37400000D02*
X16200000Y-37400000D01*
X14950000Y-37100000D02*
X15700000Y-37400000D01*
X14950000Y-31000000D02*
X14950000Y-37100000D01*
X15700000Y-30700000D02*
X14950000Y-31000000D01*
X16200000Y-30700000D02*
X15700000Y-30700000D01*
X17450000Y-30950000D02*
X16450000Y-30950000D01*
X19400000Y-30700000D02*
X17700000Y-30700000D01*
X19400000Y-23400000D02*
X19400000Y-30700000D01*
X17700000Y-23400000D02*
X19400000Y-23400000D01*
X16450000Y-23150000D02*
X17450000Y-23150000D01*
X15700000Y-23400000D02*
X16200000Y-23400000D01*
X14950000Y-23100000D02*
X15700000Y-23400000D01*
X14950000Y-17000000D02*
X14950000Y-23100000D01*
X15700000Y-16700000D02*
X14950000Y-17000000D01*
X16200000Y-16700000D02*
X15700000Y-16700000D01*
X17450000Y-16950000D02*
X16450000Y-16950000D01*
X19400000Y-16700000D02*
X17700000Y-16700000D01*
X19400000Y-15550000D02*
X19400000Y-16700000D01*
X31200000Y-31000000D02*
X31560000Y-31000000D01*
X30900000Y-30700000D02*
G75*
G03X31200000Y-31000000I300000J0D01*
G01*
X31860000Y-31300000D02*
X31860000Y-36800000D01*
X31860000Y-31300000D02*
G75*
G03X31560000Y-31000000I-300000J0D01*
G01*
X31560000Y-37100000D02*
X31200000Y-37100000D01*
X31560000Y-37100000D02*
G75*
G03X31860000Y-36800000I0J300000D01*
G01*
X31200000Y-37100000D02*
G75*
G03X30900000Y-37400000I0J-300000D01*
G01*
X30900000Y-15550000D02*
G75*
G03X29900000Y-14550000I-1000000J0D01*
G01*
X20400000Y-14550000D02*
G75*
G03X19400000Y-15550000I0J-1000000D01*
G01*
X19400000Y-38550000D02*
G75*
G03X20400000Y-39550000I1000000J0D01*
G01*
X29900000Y-39550000D02*
G75*
G03X30900000Y-38550000I0J1000000D01*
G01*
X20400000Y-39550000D02*
X29900000Y-39550000D01*
X29900000Y-14550000D02*
X20400000Y-14550000D01*
X30900000Y-30700000D02*
X30900000Y-22550000D01*
D11*
G04 #@! TO.C,R2*
G36*
X22426958Y-34630710D02*
X22441276Y-34632834D01*
X22455317Y-34636351D01*
X22468946Y-34641228D01*
X22482031Y-34647417D01*
X22494447Y-34654858D01*
X22506073Y-34663481D01*
X22516798Y-34673202D01*
X22526519Y-34683927D01*
X22535142Y-34695553D01*
X22542583Y-34707969D01*
X22548772Y-34721054D01*
X22553649Y-34734683D01*
X22557166Y-34748724D01*
X22559290Y-34763042D01*
X22560000Y-34777500D01*
X22560000Y-35122500D01*
X22559290Y-35136958D01*
X22557166Y-35151276D01*
X22553649Y-35165317D01*
X22548772Y-35178946D01*
X22542583Y-35192031D01*
X22535142Y-35204447D01*
X22526519Y-35216073D01*
X22516798Y-35226798D01*
X22506073Y-35236519D01*
X22494447Y-35245142D01*
X22482031Y-35252583D01*
X22468946Y-35258772D01*
X22455317Y-35263649D01*
X22441276Y-35267166D01*
X22426958Y-35269290D01*
X22412500Y-35270000D01*
X22117500Y-35270000D01*
X22103042Y-35269290D01*
X22088724Y-35267166D01*
X22074683Y-35263649D01*
X22061054Y-35258772D01*
X22047969Y-35252583D01*
X22035553Y-35245142D01*
X22023927Y-35236519D01*
X22013202Y-35226798D01*
X22003481Y-35216073D01*
X21994858Y-35204447D01*
X21987417Y-35192031D01*
X21981228Y-35178946D01*
X21976351Y-35165317D01*
X21972834Y-35151276D01*
X21970710Y-35136958D01*
X21970000Y-35122500D01*
X21970000Y-34777500D01*
X21970710Y-34763042D01*
X21972834Y-34748724D01*
X21976351Y-34734683D01*
X21981228Y-34721054D01*
X21987417Y-34707969D01*
X21994858Y-34695553D01*
X22003481Y-34683927D01*
X22013202Y-34673202D01*
X22023927Y-34663481D01*
X22035553Y-34654858D01*
X22047969Y-34647417D01*
X22061054Y-34641228D01*
X22074683Y-34636351D01*
X22088724Y-34632834D01*
X22103042Y-34630710D01*
X22117500Y-34630000D01*
X22412500Y-34630000D01*
X22426958Y-34630710D01*
X22426958Y-34630710D01*
G37*
D12*
X22265000Y-34950000D03*
D11*
G36*
X23396958Y-34630710D02*
X23411276Y-34632834D01*
X23425317Y-34636351D01*
X23438946Y-34641228D01*
X23452031Y-34647417D01*
X23464447Y-34654858D01*
X23476073Y-34663481D01*
X23486798Y-34673202D01*
X23496519Y-34683927D01*
X23505142Y-34695553D01*
X23512583Y-34707969D01*
X23518772Y-34721054D01*
X23523649Y-34734683D01*
X23527166Y-34748724D01*
X23529290Y-34763042D01*
X23530000Y-34777500D01*
X23530000Y-35122500D01*
X23529290Y-35136958D01*
X23527166Y-35151276D01*
X23523649Y-35165317D01*
X23518772Y-35178946D01*
X23512583Y-35192031D01*
X23505142Y-35204447D01*
X23496519Y-35216073D01*
X23486798Y-35226798D01*
X23476073Y-35236519D01*
X23464447Y-35245142D01*
X23452031Y-35252583D01*
X23438946Y-35258772D01*
X23425317Y-35263649D01*
X23411276Y-35267166D01*
X23396958Y-35269290D01*
X23382500Y-35270000D01*
X23087500Y-35270000D01*
X23073042Y-35269290D01*
X23058724Y-35267166D01*
X23044683Y-35263649D01*
X23031054Y-35258772D01*
X23017969Y-35252583D01*
X23005553Y-35245142D01*
X22993927Y-35236519D01*
X22983202Y-35226798D01*
X22973481Y-35216073D01*
X22964858Y-35204447D01*
X22957417Y-35192031D01*
X22951228Y-35178946D01*
X22946351Y-35165317D01*
X22942834Y-35151276D01*
X22940710Y-35136958D01*
X22940000Y-35122500D01*
X22940000Y-34777500D01*
X22940710Y-34763042D01*
X22942834Y-34748724D01*
X22946351Y-34734683D01*
X22951228Y-34721054D01*
X22957417Y-34707969D01*
X22964858Y-34695553D01*
X22973481Y-34683927D01*
X22983202Y-34673202D01*
X22993927Y-34663481D01*
X23005553Y-34654858D01*
X23017969Y-34647417D01*
X23031054Y-34641228D01*
X23044683Y-34636351D01*
X23058724Y-34632834D01*
X23073042Y-34630710D01*
X23087500Y-34630000D01*
X23382500Y-34630000D01*
X23396958Y-34630710D01*
X23396958Y-34630710D01*
G37*
D12*
X23235000Y-34950000D03*
G04 #@! TD*
D11*
G04 #@! TO.C,R1*
G36*
X22426958Y-32930710D02*
X22441276Y-32932834D01*
X22455317Y-32936351D01*
X22468946Y-32941228D01*
X22482031Y-32947417D01*
X22494447Y-32954858D01*
X22506073Y-32963481D01*
X22516798Y-32973202D01*
X22526519Y-32983927D01*
X22535142Y-32995553D01*
X22542583Y-33007969D01*
X22548772Y-33021054D01*
X22553649Y-33034683D01*
X22557166Y-33048724D01*
X22559290Y-33063042D01*
X22560000Y-33077500D01*
X22560000Y-33422500D01*
X22559290Y-33436958D01*
X22557166Y-33451276D01*
X22553649Y-33465317D01*
X22548772Y-33478946D01*
X22542583Y-33492031D01*
X22535142Y-33504447D01*
X22526519Y-33516073D01*
X22516798Y-33526798D01*
X22506073Y-33536519D01*
X22494447Y-33545142D01*
X22482031Y-33552583D01*
X22468946Y-33558772D01*
X22455317Y-33563649D01*
X22441276Y-33567166D01*
X22426958Y-33569290D01*
X22412500Y-33570000D01*
X22117500Y-33570000D01*
X22103042Y-33569290D01*
X22088724Y-33567166D01*
X22074683Y-33563649D01*
X22061054Y-33558772D01*
X22047969Y-33552583D01*
X22035553Y-33545142D01*
X22023927Y-33536519D01*
X22013202Y-33526798D01*
X22003481Y-33516073D01*
X21994858Y-33504447D01*
X21987417Y-33492031D01*
X21981228Y-33478946D01*
X21976351Y-33465317D01*
X21972834Y-33451276D01*
X21970710Y-33436958D01*
X21970000Y-33422500D01*
X21970000Y-33077500D01*
X21970710Y-33063042D01*
X21972834Y-33048724D01*
X21976351Y-33034683D01*
X21981228Y-33021054D01*
X21987417Y-33007969D01*
X21994858Y-32995553D01*
X22003481Y-32983927D01*
X22013202Y-32973202D01*
X22023927Y-32963481D01*
X22035553Y-32954858D01*
X22047969Y-32947417D01*
X22061054Y-32941228D01*
X22074683Y-32936351D01*
X22088724Y-32932834D01*
X22103042Y-32930710D01*
X22117500Y-32930000D01*
X22412500Y-32930000D01*
X22426958Y-32930710D01*
X22426958Y-32930710D01*
G37*
D12*
X22265000Y-33250000D03*
D11*
G36*
X23396958Y-32930710D02*
X23411276Y-32932834D01*
X23425317Y-32936351D01*
X23438946Y-32941228D01*
X23452031Y-32947417D01*
X23464447Y-32954858D01*
X23476073Y-32963481D01*
X23486798Y-32973202D01*
X23496519Y-32983927D01*
X23505142Y-32995553D01*
X23512583Y-33007969D01*
X23518772Y-33021054D01*
X23523649Y-33034683D01*
X23527166Y-33048724D01*
X23529290Y-33063042D01*
X23530000Y-33077500D01*
X23530000Y-33422500D01*
X23529290Y-33436958D01*
X23527166Y-33451276D01*
X23523649Y-33465317D01*
X23518772Y-33478946D01*
X23512583Y-33492031D01*
X23505142Y-33504447D01*
X23496519Y-33516073D01*
X23486798Y-33526798D01*
X23476073Y-33536519D01*
X23464447Y-33545142D01*
X23452031Y-33552583D01*
X23438946Y-33558772D01*
X23425317Y-33563649D01*
X23411276Y-33567166D01*
X23396958Y-33569290D01*
X23382500Y-33570000D01*
X23087500Y-33570000D01*
X23073042Y-33569290D01*
X23058724Y-33567166D01*
X23044683Y-33563649D01*
X23031054Y-33558772D01*
X23017969Y-33552583D01*
X23005553Y-33545142D01*
X22993927Y-33536519D01*
X22983202Y-33526798D01*
X22973481Y-33516073D01*
X22964858Y-33504447D01*
X22957417Y-33492031D01*
X22951228Y-33478946D01*
X22946351Y-33465317D01*
X22942834Y-33451276D01*
X22940710Y-33436958D01*
X22940000Y-33422500D01*
X22940000Y-33077500D01*
X22940710Y-33063042D01*
X22942834Y-33048724D01*
X22946351Y-33034683D01*
X22951228Y-33021054D01*
X22957417Y-33007969D01*
X22964858Y-32995553D01*
X22973481Y-32983927D01*
X22983202Y-32973202D01*
X22993927Y-32963481D01*
X23005553Y-32954858D01*
X23017969Y-32947417D01*
X23031054Y-32941228D01*
X23044683Y-32936351D01*
X23058724Y-32932834D01*
X23073042Y-32930710D01*
X23087500Y-32930000D01*
X23382500Y-32930000D01*
X23396958Y-32930710D01*
X23396958Y-32930710D01*
G37*
D12*
X23235000Y-33250000D03*
G04 #@! TD*
D13*
G04 #@! TO.C,P1*
X30860000Y-31300000D03*
X30860000Y-31800000D03*
X30860000Y-32300000D03*
X30860000Y-32800000D03*
X30860000Y-33300000D03*
X30860000Y-33800000D03*
X30860000Y-34300000D03*
X30860000Y-34800000D03*
X30860000Y-35300000D03*
X30860000Y-35800000D03*
X30860000Y-36300000D03*
X30860000Y-36800000D03*
D14*
X30020000Y-30630000D03*
G04 #@! TD*
D15*
G04 #@! TO.C,J2*
X19650000Y-31300000D03*
X19650000Y-36800000D03*
G04 #@! TD*
G04 #@! TO.C,J1*
X19650000Y-22800000D03*
X19650000Y-17300000D03*
G04 #@! TD*
M02*
