G04 #@! TF.GenerationSoftware,KiCad,Pcbnew,5.0.1*
G04 #@! TF.CreationDate,2018-12-03T20:07:42+01:00*
G04 #@! TF.ProjectId,pd-buddy-wye,70642D62756464792D7779652E6B6963,v1.2*
G04 #@! TF.SameCoordinates,Original*
G04 #@! TF.FileFunction,Soldermask,Top*
G04 #@! TF.FilePolarity,Negative*
%FSLAX46Y46*%
G04 Gerber Fmt 4.6, Leading zero omitted, Abs format (unit mm)*
G04 Created by KiCad (PCBNEW 5.0.1) date Mo 03 Dez 2018 20:07:42 CET*
%MOMM*%
%LPD*%
G01*
G04 APERTURE LIST*
%ADD10C,0.150000*%
%ADD11C,0.100000*%
G04 APERTURE END LIST*
D10*
X30900000Y-22550000D02*
X30900000Y-15500000D01*
X30900000Y-38550000D02*
X30900000Y-37400000D01*
X17700000Y-30700000D02*
G75*
G02X17450000Y-30950000I-250000J0D01*
G01*
X16450000Y-30950000D02*
G75*
G02X16200000Y-30700000I0J250000D01*
G01*
X16200000Y-37400000D02*
G75*
G02X16450000Y-37150000I250000J0D01*
G01*
X17450000Y-37150000D02*
G75*
G02X17700000Y-37400000I0J-250000D01*
G01*
X17450000Y-23150000D02*
G75*
G02X17700000Y-23400000I0J-250000D01*
G01*
X16200000Y-23400000D02*
G75*
G02X16450000Y-23150000I250000J0D01*
G01*
X16450000Y-16950000D02*
G75*
G02X16200000Y-16700000I0J250000D01*
G01*
X17700000Y-16700000D02*
G75*
G02X17450000Y-16950000I-250000J0D01*
G01*
X19400000Y-37400000D02*
X19400000Y-38550000D01*
X17700000Y-37400000D02*
X19400000Y-37400000D01*
X16450000Y-37150000D02*
X17450000Y-37150000D01*
X15700000Y-37400000D02*
X16200000Y-37400000D01*
X14950000Y-37100000D02*
X15700000Y-37400000D01*
X14950000Y-31000000D02*
X14950000Y-37100000D01*
X15700000Y-30700000D02*
X14950000Y-31000000D01*
X16200000Y-30700000D02*
X15700000Y-30700000D01*
X17450000Y-30950000D02*
X16450000Y-30950000D01*
X19400000Y-30700000D02*
X17700000Y-30700000D01*
X19400000Y-23400000D02*
X19400000Y-30700000D01*
X17700000Y-23400000D02*
X19400000Y-23400000D01*
X16450000Y-23150000D02*
X17450000Y-23150000D01*
X15700000Y-23400000D02*
X16200000Y-23400000D01*
X14950000Y-23100000D02*
X15700000Y-23400000D01*
X14950000Y-17000000D02*
X14950000Y-23100000D01*
X15700000Y-16700000D02*
X14950000Y-17000000D01*
X16200000Y-16700000D02*
X15700000Y-16700000D01*
X17450000Y-16950000D02*
X16450000Y-16950000D01*
X19400000Y-16700000D02*
X17700000Y-16700000D01*
X19400000Y-15550000D02*
X19400000Y-16700000D01*
X31200000Y-31000000D02*
X31560000Y-31000000D01*
X30900000Y-30700000D02*
G75*
G03X31200000Y-31000000I300000J0D01*
G01*
X31860000Y-31300000D02*
X31860000Y-36800000D01*
X31860000Y-31300000D02*
G75*
G03X31560000Y-31000000I-300000J0D01*
G01*
X31560000Y-37100000D02*
X31200000Y-37100000D01*
X31560000Y-37100000D02*
G75*
G03X31860000Y-36800000I0J300000D01*
G01*
X31200000Y-37100000D02*
G75*
G03X30900000Y-37400000I0J-300000D01*
G01*
X30900000Y-15550000D02*
G75*
G03X29900000Y-14550000I-1000000J0D01*
G01*
X20400000Y-14550000D02*
G75*
G03X19400000Y-15550000I0J-1000000D01*
G01*
X19400000Y-38550000D02*
G75*
G03X20400000Y-39550000I1000000J0D01*
G01*
X29900000Y-39550000D02*
G75*
G03X30900000Y-38550000I0J1000000D01*
G01*
X20400000Y-39550000D02*
X29900000Y-39550000D01*
X29900000Y-14550000D02*
X20400000Y-14550000D01*
X30900000Y-30700000D02*
X30900000Y-22550000D01*
D11*
G04 #@! TO.C,J2*
G36*
X17800000Y-30700000D02*
X17800000Y-37400000D01*
X14950000Y-37400000D01*
X14950000Y-30700000D01*
X17800000Y-30700000D01*
G37*
G04 #@! TO.C,J1*
G36*
X17800000Y-16700000D02*
X17800000Y-23400000D01*
X14950000Y-23400000D01*
X14950000Y-16700000D01*
X17800000Y-16700000D01*
G37*
G36*
X20000000Y-37150000D02*
X19300000Y-37150000D01*
X19300000Y-36450000D01*
X20000000Y-36450000D01*
X20000000Y-37150000D01*
X20000000Y-37150000D01*
G37*
G36*
X30695000Y-30905000D02*
X30697402Y-30929386D01*
X30704515Y-30952835D01*
X30716066Y-30974446D01*
X30731612Y-30993388D01*
X30750554Y-31008934D01*
X30772165Y-31020485D01*
X30795614Y-31027598D01*
X30820000Y-31030000D01*
X31460000Y-31030000D01*
X31460000Y-37070000D01*
X30260000Y-37070000D01*
X30260000Y-31205000D01*
X30257598Y-31180614D01*
X30250485Y-31157165D01*
X30238934Y-31135554D01*
X30223388Y-31116612D01*
X30204446Y-31101066D01*
X30182835Y-31089515D01*
X30159386Y-31082402D01*
X30135000Y-31080000D01*
X29345000Y-31080000D01*
X29345000Y-30180000D01*
X30695000Y-30180000D01*
X30695000Y-30905000D01*
X30695000Y-30905000D01*
G37*
G36*
X17880000Y-37025000D02*
X15300000Y-37025000D01*
X15300000Y-36575000D01*
X15725000Y-36575000D01*
X15749386Y-36572598D01*
X15772835Y-36565485D01*
X15794446Y-36553934D01*
X15813388Y-36538388D01*
X15828934Y-36519446D01*
X15840485Y-36497835D01*
X15847598Y-36474386D01*
X15850000Y-36450000D01*
X15850000Y-35650000D01*
X15847598Y-35625614D01*
X15840485Y-35602165D01*
X15828934Y-35580554D01*
X15813388Y-35561612D01*
X15794446Y-35546066D01*
X15772835Y-35534515D01*
X15749386Y-35527402D01*
X15725000Y-35525000D01*
X15650000Y-35525000D01*
X15650000Y-35075000D01*
X15725000Y-35075000D01*
X15749386Y-35072598D01*
X15772835Y-35065485D01*
X15794446Y-35053934D01*
X15813388Y-35038388D01*
X15828934Y-35019446D01*
X15840485Y-34997835D01*
X15847598Y-34974386D01*
X15850000Y-34950000D01*
X15850000Y-33150000D01*
X15847598Y-33125614D01*
X15840485Y-33102165D01*
X15828934Y-33080554D01*
X15813388Y-33061612D01*
X15794446Y-33046066D01*
X15772835Y-33034515D01*
X15749386Y-33027402D01*
X15725000Y-33025000D01*
X15650000Y-33025000D01*
X15650000Y-32575000D01*
X15725000Y-32575000D01*
X15749386Y-32572598D01*
X15772835Y-32565485D01*
X15794446Y-32553934D01*
X15813388Y-32538388D01*
X15828934Y-32519446D01*
X15840485Y-32497835D01*
X15847598Y-32474386D01*
X15850000Y-32450000D01*
X15850000Y-31650000D01*
X15847598Y-31625614D01*
X15840485Y-31602165D01*
X15828934Y-31580554D01*
X15813388Y-31561612D01*
X15794446Y-31546066D01*
X15772835Y-31534515D01*
X15749386Y-31527402D01*
X15725000Y-31525000D01*
X15300000Y-31525000D01*
X15300000Y-31075000D01*
X17880000Y-31075000D01*
X17880000Y-37025000D01*
X17880000Y-37025000D01*
G37*
G36*
X22551219Y-34533187D02*
X22576433Y-34540835D01*
X22599665Y-34553254D01*
X22620032Y-34569968D01*
X22636745Y-34590333D01*
X22639760Y-34595974D01*
X22653374Y-34616349D01*
X22670702Y-34633676D01*
X22691076Y-34647290D01*
X22713715Y-34656667D01*
X22737749Y-34661447D01*
X22762253Y-34661447D01*
X22786287Y-34656666D01*
X22808925Y-34647289D01*
X22829300Y-34633675D01*
X22846627Y-34616347D01*
X22860240Y-34595974D01*
X22863255Y-34590333D01*
X22879968Y-34569968D01*
X22900335Y-34553254D01*
X22923567Y-34540835D01*
X22948781Y-34533187D01*
X22981141Y-34530000D01*
X23488859Y-34530000D01*
X23521219Y-34533187D01*
X23546433Y-34540835D01*
X23569665Y-34553254D01*
X23590032Y-34569968D01*
X23606746Y-34590335D01*
X23619165Y-34613567D01*
X23626813Y-34638781D01*
X23630000Y-34671141D01*
X23630000Y-35228859D01*
X23626813Y-35261219D01*
X23619165Y-35286433D01*
X23606746Y-35309665D01*
X23590032Y-35330032D01*
X23569665Y-35346746D01*
X23546433Y-35359165D01*
X23521219Y-35366813D01*
X23488859Y-35370000D01*
X22981141Y-35370000D01*
X22948781Y-35366813D01*
X22923567Y-35359165D01*
X22900335Y-35346746D01*
X22879968Y-35330032D01*
X22863255Y-35309667D01*
X22860240Y-35304026D01*
X22846626Y-35283651D01*
X22829298Y-35266324D01*
X22808924Y-35252710D01*
X22786285Y-35243333D01*
X22762251Y-35238553D01*
X22737747Y-35238553D01*
X22713713Y-35243334D01*
X22691075Y-35252711D01*
X22670700Y-35266325D01*
X22653373Y-35283653D01*
X22639760Y-35304026D01*
X22636745Y-35309667D01*
X22620032Y-35330032D01*
X22599665Y-35346746D01*
X22576433Y-35359165D01*
X22551219Y-35366813D01*
X22518859Y-35370000D01*
X22011141Y-35370000D01*
X21978781Y-35366813D01*
X21953567Y-35359165D01*
X21930335Y-35346746D01*
X21909968Y-35330032D01*
X21893254Y-35309665D01*
X21880835Y-35286433D01*
X21873187Y-35261219D01*
X21870000Y-35228859D01*
X21870000Y-34671141D01*
X21873187Y-34638781D01*
X21880835Y-34613567D01*
X21893254Y-34590335D01*
X21909968Y-34569968D01*
X21930335Y-34553254D01*
X21953567Y-34540835D01*
X21978781Y-34533187D01*
X22011141Y-34530000D01*
X22518859Y-34530000D01*
X22551219Y-34533187D01*
X22551219Y-34533187D01*
G37*
G36*
X22551219Y-32833187D02*
X22576433Y-32840835D01*
X22599665Y-32853254D01*
X22620032Y-32869968D01*
X22636745Y-32890333D01*
X22639760Y-32895974D01*
X22653374Y-32916349D01*
X22670702Y-32933676D01*
X22691076Y-32947290D01*
X22713715Y-32956667D01*
X22737749Y-32961447D01*
X22762253Y-32961447D01*
X22786287Y-32956666D01*
X22808925Y-32947289D01*
X22829300Y-32933675D01*
X22846627Y-32916347D01*
X22860240Y-32895974D01*
X22863255Y-32890333D01*
X22879968Y-32869968D01*
X22900335Y-32853254D01*
X22923567Y-32840835D01*
X22948781Y-32833187D01*
X22981141Y-32830000D01*
X23488859Y-32830000D01*
X23521219Y-32833187D01*
X23546433Y-32840835D01*
X23569665Y-32853254D01*
X23590032Y-32869968D01*
X23606746Y-32890335D01*
X23619165Y-32913567D01*
X23626813Y-32938781D01*
X23630000Y-32971141D01*
X23630000Y-33528859D01*
X23626813Y-33561219D01*
X23619165Y-33586433D01*
X23606746Y-33609665D01*
X23590032Y-33630032D01*
X23569665Y-33646746D01*
X23546433Y-33659165D01*
X23521219Y-33666813D01*
X23488859Y-33670000D01*
X22981141Y-33670000D01*
X22948781Y-33666813D01*
X22923567Y-33659165D01*
X22900335Y-33646746D01*
X22879968Y-33630032D01*
X22863255Y-33609667D01*
X22860240Y-33604026D01*
X22846626Y-33583651D01*
X22829298Y-33566324D01*
X22808924Y-33552710D01*
X22786285Y-33543333D01*
X22762251Y-33538553D01*
X22737747Y-33538553D01*
X22713713Y-33543334D01*
X22691075Y-33552711D01*
X22670700Y-33566325D01*
X22653373Y-33583653D01*
X22639760Y-33604026D01*
X22636745Y-33609667D01*
X22620032Y-33630032D01*
X22599665Y-33646746D01*
X22576433Y-33659165D01*
X22551219Y-33666813D01*
X22518859Y-33670000D01*
X22011141Y-33670000D01*
X21978781Y-33666813D01*
X21953567Y-33659165D01*
X21930335Y-33646746D01*
X21909968Y-33630032D01*
X21893254Y-33609665D01*
X21880835Y-33586433D01*
X21873187Y-33561219D01*
X21870000Y-33528859D01*
X21870000Y-32971141D01*
X21873187Y-32938781D01*
X21880835Y-32913567D01*
X21893254Y-32890335D01*
X21909968Y-32869968D01*
X21930335Y-32853254D01*
X21953567Y-32840835D01*
X21978781Y-32833187D01*
X22011141Y-32830000D01*
X22518859Y-32830000D01*
X22551219Y-32833187D01*
X22551219Y-32833187D01*
G37*
G36*
X20000000Y-31650000D02*
X19300000Y-31650000D01*
X19300000Y-30950000D01*
X20000000Y-30950000D01*
X20000000Y-31650000D01*
X20000000Y-31650000D01*
G37*
G36*
X20000000Y-23150000D02*
X19300000Y-23150000D01*
X19300000Y-22450000D01*
X20000000Y-22450000D01*
X20000000Y-23150000D01*
X20000000Y-23150000D01*
G37*
G36*
X17880000Y-23025000D02*
X15300000Y-23025000D01*
X15300000Y-22575000D01*
X15725000Y-22575000D01*
X15749386Y-22572598D01*
X15772835Y-22565485D01*
X15794446Y-22553934D01*
X15813388Y-22538388D01*
X15828934Y-22519446D01*
X15840485Y-22497835D01*
X15847598Y-22474386D01*
X15850000Y-22450000D01*
X15850000Y-21650000D01*
X15847598Y-21625614D01*
X15840485Y-21602165D01*
X15828934Y-21580554D01*
X15813388Y-21561612D01*
X15794446Y-21546066D01*
X15772835Y-21534515D01*
X15749386Y-21527402D01*
X15725000Y-21525000D01*
X15650000Y-21525000D01*
X15650000Y-21075000D01*
X15725000Y-21075000D01*
X15749386Y-21072598D01*
X15772835Y-21065485D01*
X15794446Y-21053934D01*
X15813388Y-21038388D01*
X15828934Y-21019446D01*
X15840485Y-20997835D01*
X15847598Y-20974386D01*
X15850000Y-20950000D01*
X15850000Y-19150000D01*
X15847598Y-19125614D01*
X15840485Y-19102165D01*
X15828934Y-19080554D01*
X15813388Y-19061612D01*
X15794446Y-19046066D01*
X15772835Y-19034515D01*
X15749386Y-19027402D01*
X15725000Y-19025000D01*
X15650000Y-19025000D01*
X15650000Y-18575000D01*
X15725000Y-18575000D01*
X15749386Y-18572598D01*
X15772835Y-18565485D01*
X15794446Y-18553934D01*
X15813388Y-18538388D01*
X15828934Y-18519446D01*
X15840485Y-18497835D01*
X15847598Y-18474386D01*
X15850000Y-18450000D01*
X15850000Y-17650000D01*
X15847598Y-17625614D01*
X15840485Y-17602165D01*
X15828934Y-17580554D01*
X15813388Y-17561612D01*
X15794446Y-17546066D01*
X15772835Y-17534515D01*
X15749386Y-17527402D01*
X15725000Y-17525000D01*
X15300000Y-17525000D01*
X15300000Y-17075000D01*
X17880000Y-17075000D01*
X17880000Y-23025000D01*
X17880000Y-23025000D01*
G37*
G36*
X27912574Y-15326817D02*
X28513135Y-15575577D01*
X29053630Y-15936725D01*
X29513275Y-16396370D01*
X29874423Y-16936865D01*
X30123183Y-17537426D01*
X30250000Y-18174977D01*
X30250000Y-18825023D01*
X30123183Y-19462574D01*
X29874423Y-20063135D01*
X29513275Y-20603630D01*
X29053630Y-21063275D01*
X28513135Y-21424423D01*
X27912574Y-21673183D01*
X27275023Y-21800000D01*
X26624977Y-21800000D01*
X25987426Y-21673183D01*
X25386865Y-21424423D01*
X24846370Y-21063275D01*
X24386725Y-20603630D01*
X24025577Y-20063135D01*
X23776817Y-19462574D01*
X23650000Y-18825023D01*
X23650000Y-18174977D01*
X23776817Y-17537426D01*
X24025577Y-16936865D01*
X24386725Y-16396370D01*
X24846370Y-15936725D01*
X25386865Y-15575577D01*
X25987426Y-15326817D01*
X26624977Y-15200000D01*
X27275023Y-15200000D01*
X27912574Y-15326817D01*
X27912574Y-15326817D01*
G37*
G36*
X20000000Y-17650000D02*
X19300000Y-17650000D01*
X19300000Y-16950000D01*
X20000000Y-16950000D01*
X20000000Y-17650000D01*
X20000000Y-17650000D01*
G37*
M02*
