G04 #@! TF.GenerationSoftware,KiCad,Pcbnew,5.0.1*
G04 #@! TF.CreationDate,2018-12-03T20:07:42+01:00*
G04 #@! TF.ProjectId,pd-buddy-wye,70642D62756464792D7779652E6B6963,v1.2*
G04 #@! TF.SameCoordinates,Original*
G04 #@! TF.FileFunction,Soldermask,Bot*
G04 #@! TF.FilePolarity,Negative*
%FSLAX46Y46*%
G04 Gerber Fmt 4.6, Leading zero omitted, Abs format (unit mm)*
G04 Created by KiCad (PCBNEW 5.0.1) date Mo 03 Dez 2018 20:07:42 CET*
%MOMM*%
%LPD*%
G01*
G04 APERTURE LIST*
%ADD10C,0.150000*%
%ADD11C,0.100000*%
G04 APERTURE END LIST*
D10*
X30900000Y-22550000D02*
X30900000Y-15500000D01*
X30900000Y-38550000D02*
X30900000Y-37400000D01*
X17700000Y-30700000D02*
G75*
G02X17450000Y-30950000I-250000J0D01*
G01*
X16450000Y-30950000D02*
G75*
G02X16200000Y-30700000I0J250000D01*
G01*
X16200000Y-37400000D02*
G75*
G02X16450000Y-37150000I250000J0D01*
G01*
X17450000Y-37150000D02*
G75*
G02X17700000Y-37400000I0J-250000D01*
G01*
X17450000Y-23150000D02*
G75*
G02X17700000Y-23400000I0J-250000D01*
G01*
X16200000Y-23400000D02*
G75*
G02X16450000Y-23150000I250000J0D01*
G01*
X16450000Y-16950000D02*
G75*
G02X16200000Y-16700000I0J250000D01*
G01*
X17700000Y-16700000D02*
G75*
G02X17450000Y-16950000I-250000J0D01*
G01*
X19400000Y-37400000D02*
X19400000Y-38550000D01*
X17700000Y-37400000D02*
X19400000Y-37400000D01*
X16450000Y-37150000D02*
X17450000Y-37150000D01*
X15700000Y-37400000D02*
X16200000Y-37400000D01*
X14950000Y-37100000D02*
X15700000Y-37400000D01*
X14950000Y-31000000D02*
X14950000Y-37100000D01*
X15700000Y-30700000D02*
X14950000Y-31000000D01*
X16200000Y-30700000D02*
X15700000Y-30700000D01*
X17450000Y-30950000D02*
X16450000Y-30950000D01*
X19400000Y-30700000D02*
X17700000Y-30700000D01*
X19400000Y-23400000D02*
X19400000Y-30700000D01*
X17700000Y-23400000D02*
X19400000Y-23400000D01*
X16450000Y-23150000D02*
X17450000Y-23150000D01*
X15700000Y-23400000D02*
X16200000Y-23400000D01*
X14950000Y-23100000D02*
X15700000Y-23400000D01*
X14950000Y-17000000D02*
X14950000Y-23100000D01*
X15700000Y-16700000D02*
X14950000Y-17000000D01*
X16200000Y-16700000D02*
X15700000Y-16700000D01*
X17450000Y-16950000D02*
X16450000Y-16950000D01*
X19400000Y-16700000D02*
X17700000Y-16700000D01*
X19400000Y-15550000D02*
X19400000Y-16700000D01*
X31200000Y-31000000D02*
X31560000Y-31000000D01*
X30900000Y-30700000D02*
G75*
G03X31200000Y-31000000I300000J0D01*
G01*
X31860000Y-31300000D02*
X31860000Y-36800000D01*
X31860000Y-31300000D02*
G75*
G03X31560000Y-31000000I-300000J0D01*
G01*
X31560000Y-37100000D02*
X31200000Y-37100000D01*
X31560000Y-37100000D02*
G75*
G03X31860000Y-36800000I0J300000D01*
G01*
X31200000Y-37100000D02*
G75*
G03X30900000Y-37400000I0J-300000D01*
G01*
X30900000Y-15550000D02*
G75*
G03X29900000Y-14550000I-1000000J0D01*
G01*
X20400000Y-14550000D02*
G75*
G03X19400000Y-15550000I0J-1000000D01*
G01*
X19400000Y-38550000D02*
G75*
G03X20400000Y-39550000I1000000J0D01*
G01*
X29900000Y-39550000D02*
G75*
G03X30900000Y-38550000I0J1000000D01*
G01*
X20400000Y-39550000D02*
X29900000Y-39550000D01*
X29900000Y-14550000D02*
X20400000Y-14550000D01*
X30900000Y-30700000D02*
X30900000Y-22550000D01*
D11*
G04 #@! TO.C,J2*
G36*
X17800000Y-30700000D02*
X17800000Y-37400000D01*
X14950000Y-37400000D01*
X14950000Y-30700000D01*
X17800000Y-30700000D01*
G37*
G04 #@! TO.C,J1*
G36*
X17800000Y-16700000D02*
X17800000Y-23400000D01*
X14950000Y-23400000D01*
X14950000Y-16700000D01*
X17800000Y-16700000D01*
G37*
G36*
X31460000Y-37070000D02*
X30820000Y-37070000D01*
X30795614Y-37072402D01*
X30772165Y-37079515D01*
X30750554Y-37091066D01*
X30731612Y-37106612D01*
X30716066Y-37125554D01*
X30704515Y-37147165D01*
X30697402Y-37170614D01*
X30695000Y-37195000D01*
X30695000Y-37920000D01*
X29345000Y-37920000D01*
X29345000Y-37020000D01*
X30135000Y-37020000D01*
X30159386Y-37017598D01*
X30182835Y-37010485D01*
X30204446Y-36998934D01*
X30223388Y-36983388D01*
X30238934Y-36964446D01*
X30250485Y-36942835D01*
X30257598Y-36919386D01*
X30260000Y-36895000D01*
X30260000Y-34530000D01*
X31460000Y-34530000D01*
X31460000Y-37070000D01*
X31460000Y-37070000D01*
G37*
G36*
X20000000Y-37150000D02*
X19300000Y-37150000D01*
X19300000Y-36450000D01*
X20000000Y-36450000D01*
X20000000Y-37150000D01*
X20000000Y-37150000D01*
G37*
G36*
X17880000Y-37025000D02*
X15300000Y-37025000D01*
X15300000Y-36575000D01*
X15725000Y-36575000D01*
X15749386Y-36572598D01*
X15772835Y-36565485D01*
X15794446Y-36553934D01*
X15813388Y-36538388D01*
X15828934Y-36519446D01*
X15840485Y-36497835D01*
X15847598Y-36474386D01*
X15850000Y-36450000D01*
X15850000Y-35650000D01*
X15847598Y-35625614D01*
X15840485Y-35602165D01*
X15828934Y-35580554D01*
X15813388Y-35561612D01*
X15794446Y-35546066D01*
X15772835Y-35534515D01*
X15749386Y-35527402D01*
X15725000Y-35525000D01*
X15650000Y-35525000D01*
X15650000Y-35075000D01*
X15725000Y-35075000D01*
X15749386Y-35072598D01*
X15772835Y-35065485D01*
X15794446Y-35053934D01*
X15813388Y-35038388D01*
X15828934Y-35019446D01*
X15840485Y-34997835D01*
X15847598Y-34974386D01*
X15850000Y-34950000D01*
X15850000Y-33150000D01*
X15847598Y-33125614D01*
X15840485Y-33102165D01*
X15828934Y-33080554D01*
X15813388Y-33061612D01*
X15794446Y-33046066D01*
X15772835Y-33034515D01*
X15749386Y-33027402D01*
X15725000Y-33025000D01*
X15650000Y-33025000D01*
X15650000Y-32575000D01*
X15725000Y-32575000D01*
X15749386Y-32572598D01*
X15772835Y-32565485D01*
X15794446Y-32553934D01*
X15813388Y-32538388D01*
X15828934Y-32519446D01*
X15840485Y-32497835D01*
X15847598Y-32474386D01*
X15850000Y-32450000D01*
X15850000Y-31650000D01*
X15847598Y-31625614D01*
X15840485Y-31602165D01*
X15828934Y-31580554D01*
X15813388Y-31561612D01*
X15794446Y-31546066D01*
X15772835Y-31534515D01*
X15749386Y-31527402D01*
X15725000Y-31525000D01*
X15300000Y-31525000D01*
X15300000Y-31075000D01*
X17880000Y-31075000D01*
X17880000Y-37025000D01*
X17880000Y-37025000D01*
G37*
G36*
X31460000Y-33570000D02*
X30260000Y-33570000D01*
X30260000Y-31030000D01*
X31460000Y-31030000D01*
X31460000Y-33570000D01*
X31460000Y-33570000D01*
G37*
G36*
X20000000Y-31650000D02*
X19300000Y-31650000D01*
X19300000Y-30950000D01*
X20000000Y-30950000D01*
X20000000Y-31650000D01*
X20000000Y-31650000D01*
G37*
G36*
X20000000Y-23150000D02*
X19300000Y-23150000D01*
X19300000Y-22450000D01*
X20000000Y-22450000D01*
X20000000Y-23150000D01*
X20000000Y-23150000D01*
G37*
G36*
X17880000Y-23025000D02*
X15300000Y-23025000D01*
X15300000Y-22575000D01*
X15725000Y-22575000D01*
X15749386Y-22572598D01*
X15772835Y-22565485D01*
X15794446Y-22553934D01*
X15813388Y-22538388D01*
X15828934Y-22519446D01*
X15840485Y-22497835D01*
X15847598Y-22474386D01*
X15850000Y-22450000D01*
X15850000Y-21650000D01*
X15847598Y-21625614D01*
X15840485Y-21602165D01*
X15828934Y-21580554D01*
X15813388Y-21561612D01*
X15794446Y-21546066D01*
X15772835Y-21534515D01*
X15749386Y-21527402D01*
X15725000Y-21525000D01*
X15650000Y-21525000D01*
X15650000Y-21075000D01*
X15725000Y-21075000D01*
X15749386Y-21072598D01*
X15772835Y-21065485D01*
X15794446Y-21053934D01*
X15813388Y-21038388D01*
X15828934Y-21019446D01*
X15840485Y-20997835D01*
X15847598Y-20974386D01*
X15850000Y-20950000D01*
X15850000Y-19150000D01*
X15847598Y-19125614D01*
X15840485Y-19102165D01*
X15828934Y-19080554D01*
X15813388Y-19061612D01*
X15794446Y-19046066D01*
X15772835Y-19034515D01*
X15749386Y-19027402D01*
X15725000Y-19025000D01*
X15650000Y-19025000D01*
X15650000Y-18575000D01*
X15725000Y-18575000D01*
X15749386Y-18572598D01*
X15772835Y-18565485D01*
X15794446Y-18553934D01*
X15813388Y-18538388D01*
X15828934Y-18519446D01*
X15840485Y-18497835D01*
X15847598Y-18474386D01*
X15850000Y-18450000D01*
X15850000Y-17650000D01*
X15847598Y-17625614D01*
X15840485Y-17602165D01*
X15828934Y-17580554D01*
X15813388Y-17561612D01*
X15794446Y-17546066D01*
X15772835Y-17534515D01*
X15749386Y-17527402D01*
X15725000Y-17525000D01*
X15300000Y-17525000D01*
X15300000Y-17075000D01*
X17880000Y-17075000D01*
X17880000Y-23025000D01*
X17880000Y-23025000D01*
G37*
G36*
X27912574Y-15326817D02*
X28513135Y-15575577D01*
X29053630Y-15936725D01*
X29513275Y-16396370D01*
X29874423Y-16936865D01*
X30123183Y-17537426D01*
X30250000Y-18174977D01*
X30250000Y-18825023D01*
X30123183Y-19462574D01*
X29874423Y-20063135D01*
X29513275Y-20603630D01*
X29053630Y-21063275D01*
X28513135Y-21424423D01*
X27912574Y-21673183D01*
X27275023Y-21800000D01*
X26624977Y-21800000D01*
X25987426Y-21673183D01*
X25386865Y-21424423D01*
X24846370Y-21063275D01*
X24386725Y-20603630D01*
X24025577Y-20063135D01*
X23776817Y-19462574D01*
X23650000Y-18825023D01*
X23650000Y-18174977D01*
X23776817Y-17537426D01*
X24025577Y-16936865D01*
X24386725Y-16396370D01*
X24846370Y-15936725D01*
X25386865Y-15575577D01*
X25987426Y-15326817D01*
X26624977Y-15200000D01*
X27275023Y-15200000D01*
X27912574Y-15326817D01*
X27912574Y-15326817D01*
G37*
G36*
X20000000Y-17650000D02*
X19300000Y-17650000D01*
X19300000Y-16950000D01*
X20000000Y-16950000D01*
X20000000Y-17650000D01*
X20000000Y-17650000D01*
G37*
M02*
